<svg width="1000" height="1000" viewBox="0 0 1000 1000" fill="none" xmlns="http://www.w3.org/2000/svg">
<path d="M1000 0H0V1000H1000V0Z" fill="#D0EDF5"/>
<path d="M452.1 774.6H531.3" stroke="#3B6B7D" stroke-width="10" stroke-miterlimit="10" stroke-linecap="round" stroke-linejoin="round"/>
<path d="M417.3 774.6H430" stroke="#3B6B7D" stroke-width="10" stroke-miterlimit="10" stroke-linecap="round" stroke-linejoin="round"/>
<g opacity="0.23">
<path opacity="0.23" d="M606.9 394.4V425.4H545" stroke="#474747" stroke-width="6" stroke-miterlimit="10" stroke-linecap="round" stroke-linejoin="round"/>
<path opacity="0.23" d="M668.8 425.4H606.9V394.4" stroke="#474747" stroke-width="6" stroke-miterlimit="10" stroke-linecap="round" stroke-linejoin="round"/>
<path opacity="0.23" d="M637.9 425.4H576V456.3H637.9V425.4Z" stroke="#474747" stroke-width="6" stroke-miterlimit="10" stroke-linecap="round" stroke-linejoin="round"/>
<path opacity="0.23" d="M624.5 487.201H606.9V456.301H668.8" stroke="#474747" stroke-width="6" stroke-miterlimit="10" stroke-linecap="round" stroke-linejoin="round"/>
<path opacity="0.23" d="M545 456.301H606.9V487.201H556.7" stroke="#474747" stroke-width="6" stroke-miterlimit="10" stroke-linecap="round" stroke-linejoin="round"/>
<path opacity="0.23" d="M524 425.4H576V456.3H545" stroke="#474747" stroke-width="6" stroke-miterlimit="10" stroke-linecap="round" stroke-linejoin="round"/>
<path opacity="0.23" d="M682.5 456.3H637.8V425.4H659.3" stroke="#474747" stroke-width="6" stroke-miterlimit="10" stroke-linecap="round" stroke-linejoin="round"/>
</g>
<g opacity="0.23">
<path opacity="0.23" d="M860.1 567.6V598.5H798.3" stroke="#474747" stroke-width="6" stroke-miterlimit="10" stroke-linecap="round" stroke-linejoin="round"/>
<path opacity="0.23" d="M922.001 598.5H860.101V567.6" stroke="#474747" stroke-width="6" stroke-miterlimit="10" stroke-linecap="round" stroke-linejoin="round"/>
<path opacity="0.23" d="M891.1 598.5H829.2V629.4H891.1V598.5Z" stroke="#474747" stroke-width="6" stroke-miterlimit="10" stroke-linecap="round" stroke-linejoin="round"/>
<path opacity="0.23" d="M877.701 660.399H860.101V629.399H922.001" stroke="#474747" stroke-width="6" stroke-miterlimit="10" stroke-linecap="round" stroke-linejoin="round"/>
<path opacity="0.23" d="M798.3 629.399H860.1V660.399H810" stroke="#474747" stroke-width="6" stroke-miterlimit="10" stroke-linecap="round" stroke-linejoin="round"/>
<path opacity="0.23" d="M777.2 598.5H829.2V629.4H798.3" stroke="#474747" stroke-width="6" stroke-miterlimit="10" stroke-linecap="round" stroke-linejoin="round"/>
<path opacity="0.23" d="M935.7 629.4H891V598.5H912.5" stroke="#474747" stroke-width="6" stroke-miterlimit="10" stroke-linecap="round" stroke-linejoin="round"/>
</g>
<g opacity="0.23">
<path opacity="0.23" d="M119.1 522.6V553.5H57.2998" stroke="#474747" stroke-width="6" stroke-miterlimit="10" stroke-linecap="round" stroke-linejoin="round"/>
<path opacity="0.23" d="M181.001 553.5H119.101V522.6" stroke="#474747" stroke-width="6" stroke-miterlimit="10" stroke-linecap="round" stroke-linejoin="round"/>
<path opacity="0.23" d="M150.1 553.5H88.2002V584.4H150.1V553.5Z" stroke="#474747" stroke-width="6" stroke-miterlimit="10" stroke-linecap="round" stroke-linejoin="round"/>
<path opacity="0.23" d="M136.701 615.4H119.101V584.5H181.001" stroke="#474747" stroke-width="6" stroke-miterlimit="10" stroke-linecap="round" stroke-linejoin="round"/>
<path opacity="0.23" d="M57.2998 584.5H119.1V615.4H68.9998" stroke="#474747" stroke-width="6" stroke-miterlimit="10" stroke-linecap="round" stroke-linejoin="round"/>
<path opacity="0.23" d="M36.2002 553.5H88.2002V584.5H57.3002" stroke="#474747" stroke-width="6" stroke-miterlimit="10" stroke-linecap="round" stroke-linejoin="round"/>
<path opacity="0.23" d="M194.7 584.5H150V553.5H171.5" stroke="#474747" stroke-width="6" stroke-miterlimit="10" stroke-linecap="round" stroke-linejoin="round"/>
</g>
<path d="M618 726H902.9" stroke="#3B6B7D" stroke-width="10" stroke-miterlimit="10" stroke-linecap="round" stroke-linejoin="round"/>
<path d="M148.3 726H548" stroke="#3B6B7D" stroke-width="10" stroke-miterlimit="10" stroke-linecap="round" stroke-linejoin="round"/>
<path d="M119 726H125.5" stroke="#3B6B7D" stroke-width="10" stroke-miterlimit="10" stroke-linecap="round" stroke-linejoin="round"/>
<path d="M75.7998 726H99.9998" stroke="#3B6B7D" stroke-width="10" stroke-miterlimit="10" stroke-linecap="round" stroke-linejoin="round"/>
<path d="M475.2 560.5C464.9 560.5 456 566.6 452 575.3L446.5 574.1C449.3 569.2 450.9 563.6 450.9 557.6C450.9 539.2 436 524.2 417.5 524.2C405.7 524.2 395.3 530.3 389.4 539.6C383.5 530.4 373.1 524.2 361.3 524.2C353.7 524.2 346.7 526.7 341.1 531C336.5 514.1 321 501.7 302.7 501.7C285.2 501.7 270.4 513 265 528.6C260 525.7 254.2 524 248 524C229.5 524 214.5 539 214.5 557.5V557.6C213.7 557.5 213 557.5 212.2 557.5C196.5 557.5 183.7 570.3 183.7 586V636.1H500.9V586C500.8 572 489.4 560.5 475.2 560.5Z" fill="#F2CFB1"/>
<g opacity="0.58">
<path opacity="0.58" d="M475.2 560.5C464.9 560.5 456 566.6 452 575.3L450.8 575C450.4 580.1 448.9 584.9 446.5 589.1L452 590.3C456.1 581.5 465 575.5 475.2 575.5C489.4 575.5 500.8 587 500.8 601.1V586.1C500.8 572 489.4 560.5 475.2 560.5Z" fill="#F2CFB1"/>
<path opacity="0.58" d="M212.2 572.6C213 572.6 213.7 572.6 214.5 572.7V572.6C214.5 554.1 229.5 539.1 248 539.1C254.2 539.1 260 540.8 265 543.7C270.4 528 285.2 516.8 302.7 516.8C321.1 516.8 336.5 529.2 341.1 546.1C346.7 541.8 353.7 539.3 361.3 539.3C373.1 539.3 383.5 545.4 389.4 554.7C395.3 545.5 405.7 539.3 417.5 539.3C433.3 539.3 446.6 550.3 450 565.1C450.6 562.7 450.9 560.2 450.9 557.6C450.9 539.2 436 524.2 417.5 524.2C405.7 524.2 395.3 530.3 389.4 539.6C383.5 530.4 373.1 524.2 361.3 524.2C353.7 524.2 346.7 526.7 341.1 531C336.5 514.1 321 501.7 302.7 501.7C285.2 501.7 270.4 513 265 528.6C260 525.7 254.2 524 248 524C229.5 524 214.5 539 214.5 557.5V557.6C213.7 557.5 213 557.5 212.2 557.5C196.5 557.5 183.7 570.3 183.7 586V601C183.7 585.4 196.4 572.6 212.2 572.6Z" fill="#F2CFB1"/>
</g>
<path d="M475.2 560.5C464.9 560.5 456 566.6 452 575.3L446.5 574.1C449.3 569.2 450.9 563.6 450.9 557.6C450.9 539.2 436 524.2 417.5 524.2C405.7 524.2 395.3 530.3 389.4 539.6C383.5 530.4 373.1 524.2 361.3 524.2C353.7 524.2 346.7 526.7 341.1 531C336.5 514.1 321 501.7 302.7 501.7C285.2 501.7 270.4 513 265 528.6C260 525.7 254.2 524 248 524C229.5 524 214.5 539 214.5 557.5V557.6C213.7 557.5 213 557.5 212.2 557.5C196.5 557.5 183.7 570.3 183.7 586V636.1H500.9V586C500.8 572 489.4 560.5 475.2 560.5Z" stroke="#3B6B7D" stroke-width="10" stroke-miterlimit="10" stroke-linecap="round" stroke-linejoin="round"/>
<path d="M515 572H143V596C148.5 596 153 600.5 153 606V656C153 684.7 176 708 204.7 708H452.7C481.3 708 505 684.6 505 656V606C505 600.5 509.5 596 515 596V572Z" fill="#EAEAEA"/>
<path d="M153 606V609.5H505V606C505 600.5 509.5 596 515 596V572H143V596C148.5 596 153 600.5 153 606Z" fill="#C6C6C6"/>
<path d="M515 572H143V596C148.5 596 153 600.5 153 606V656C153 684.7 176 708 204.7 708H452.7C481.3 708 505 684.6 505 656V606C505 600.5 509.5 596 515 596V572Z" stroke="#3B6B7D" stroke-width="10" stroke-miterlimit="10" stroke-linecap="round" stroke-linejoin="round"/>
<path d="M515 572H143V596H515V572Z" fill="#D8D8D8"/>
<path d="M449 596H430.5" stroke="#3B6B7D" stroke-width="10" stroke-miterlimit="10" stroke-linecap="round" stroke-linejoin="round"/>
<path d="M413.1 596H143V572H515V596H463" stroke="#3B6B7D" stroke-width="10" stroke-miterlimit="10" stroke-linecap="round" stroke-linejoin="round"/>
<path d="M466 717C466 722 462 726 457 726H200C195 726 191 722 191 717C191 712 195 708 200 708H457C462 708 466 712 466 717Z" fill="#C6C6C6"/>
<path d="M466 717C466 722 462 726 457 726H200C195 726 191 722 191 717C191 712 195 708 200 708H457C462 708 466 712 466 717Z" stroke="#3B6B7D" stroke-width="10" stroke-miterlimit="10" stroke-linecap="round" stroke-linejoin="round"/>
<path d="M269.6 277.2C260.7 261.7 243.9 251.3 224.7 251.3C196.1 251.3 172.9 274.5 172.9 303.1V569.1" stroke="#3B6B7D" stroke-width="12" stroke-miterlimit="10" stroke-linecap="round" stroke-linejoin="round"/>
<path d="M318 304.4C317.2 294 311.4 283.5 299.4 276.4C296.7 274.8 293.6 273.8 290.4 273.5C259.6 270.9 243.4 299.8 254.6 322.1C256.6 326.1 259.2 329.4 262.4 332.2L318 304.4Z" fill="#87D1E8"/>
<path d="M318 304.4C317.2 294 311.4 283.5 299.4 276.4C296.7 274.8 293.6 273.8 290.4 273.5C259.6 270.9 243.4 299.8 254.6 322.1C256.6 326.1 259.2 329.4 262.4 332.2L318 304.4Z" stroke="#3B6B7D" stroke-width="10" stroke-miterlimit="10" stroke-linecap="round" stroke-linejoin="round"/>
<path d="M327.8 463.299C333.985 463.299 339 458.285 339 452.099C339 445.914 333.985 440.899 327.8 440.899C321.614 440.899 316.6 445.914 316.6 452.099C316.6 458.285 321.614 463.299 327.8 463.299Z" fill="#F2CFB1"/>
<path d="M327.8 463.299C333.985 463.299 339 458.285 339 452.099C339 445.914 333.985 440.899 327.8 440.899C321.614 440.899 316.6 445.914 316.6 452.099C316.6 458.285 321.614 463.299 327.8 463.299Z" stroke="#3B6B7D" stroke-width="10" stroke-miterlimit="10" stroke-linecap="round" stroke-linejoin="round"/>
<path d="M392.8 484.2C403.956 484.2 413 475.156 413 464C413 452.844 403.956 443.8 392.8 443.8C381.643 443.8 372.6 452.844 372.6 464C372.6 475.156 381.643 484.2 392.8 484.2Z" fill="#F2CFB1"/>
<path d="M392.8 484.2C403.956 484.2 413 475.156 413 464C413 452.844 403.956 443.8 392.8 443.8C381.643 443.8 372.6 452.844 372.6 464C372.6 475.156 381.643 484.2 392.8 484.2Z" stroke="#3B6B7D" stroke-width="10" stroke-miterlimit="10" stroke-linecap="round" stroke-linejoin="round"/>
<path d="M195 500H175.1" stroke="#3B6B7D" stroke-width="13" stroke-miterlimit="10" stroke-linecap="round" stroke-linejoin="round"/>
<path d="M206.7 508H191.3V492H206.7C211.1 492 214.7 495.6 214.7 500C214.7 504.4 211.1 508 206.7 508Z" stroke="#3B6B7D" stroke-width="10" stroke-miterlimit="10" stroke-linecap="round" stroke-linejoin="round"/>
<path d="M206.7 508H191.3V492H206.7C211.1 492 214.7 495.6 214.7 500C214.7 504.4 211.1 508 206.7 508Z" fill="#3B6B7D"/>
<path d="M298.9 381.2L285.8 335" stroke="#3B6B7D" stroke-width="4" stroke-miterlimit="10" stroke-linecap="round" stroke-linejoin="round"/>
<path d="M313.4 320.399L342.2 354.799" stroke="#3B6B7D" stroke-width="4" stroke-miterlimit="10" stroke-linecap="round" stroke-linejoin="round"/>
<path d="M321.6 364.7L332.9 384.9" stroke="#3B6B7D" stroke-width="4" stroke-miterlimit="10" stroke-linecap="round" stroke-linejoin="round"/>
<path d="M301 328L314.4 351.9" stroke="#3B6B7D" stroke-width="4" stroke-miterlimit="10" stroke-linecap="round" stroke-linejoin="round"/>
<path d="M832.7 523H692.7V578H832.7V523Z" fill="#EF9E9D"/>
<path opacity="0.39" d="M832.7 523H692.7V535.5H832.7V523Z" fill="#EF9E9D"/>
<path d="M832.7 578H692.7V633H832.7V578Z" fill="#EF9E9D"/>
<path opacity="0.39" d="M832.7 577.8H692.7V590.3H832.7V577.8Z" fill="#EF9E9D"/>
<path d="M832.7 633H692.7V688H832.7V633Z" fill="#EF9E9D"/>
<path opacity="0.39" d="M832.7 633.8H692.7V646.3H832.7V633.8Z" fill="#EF9E9D"/>
<path d="M832.7 523H692.7V688H832.7V523Z" stroke="#3B6B7D" stroke-width="10" stroke-miterlimit="10" stroke-linecap="round" stroke-linejoin="round"/>
<path d="M832.7 523H692.7V578H832.7V523Z" stroke="#3B6B7D" stroke-width="10" stroke-miterlimit="10" stroke-linecap="round" stroke-linejoin="round"/>
<path d="M832.7 578H692.7V633H832.7V578Z" stroke="#3B6B7D" stroke-width="10" stroke-miterlimit="10" stroke-linecap="round" stroke-linejoin="round"/>
<path d="M832.7 633H692.7V688H832.7V633Z" stroke="#3B6B7D" stroke-width="10" stroke-miterlimit="10" stroke-linecap="round" stroke-linejoin="round"/>
<path d="M744.7 541H780.7" stroke="#3B6B7D" stroke-width="10" stroke-miterlimit="10" stroke-linecap="round" stroke-linejoin="round"/>
<path d="M744.7 596H780.7" stroke="#3B6B7D" stroke-width="10" stroke-miterlimit="10" stroke-linecap="round" stroke-linejoin="round"/>
<path d="M744.7 651H780.7" stroke="#3B6B7D" stroke-width="10" stroke-miterlimit="10" stroke-linecap="round" stroke-linejoin="round"/>
<path d="M714.9 726H701.7L716.9 688H742.9L714.9 726Z" fill="#3B6B7D"/>
<path d="M714.9 726H701.7L716.9 688H742.9L714.9 726Z" stroke="#3B6B7D" stroke-width="10" stroke-miterlimit="10" stroke-linecap="round" stroke-linejoin="round"/>
<path d="M813.9 726H827.1L811.9 688H785.9L813.9 726Z" stroke="#3B6B7D" stroke-width="10" stroke-miterlimit="10" stroke-linecap="round" stroke-linejoin="round"/>
<path d="M813.9 726H827.1L811.9 688H785.9L813.9 726Z" fill="#3B6B7D"/>
<path d="M769.7 448H755.7V490.7H769.7V448Z" fill="#87D1E8"/>
<path d="M769.7 448H755.7V490.7H769.7V448Z" stroke="#3B6B7D" stroke-width="10" stroke-miterlimit="10" stroke-linecap="round" stroke-linejoin="round"/>
<path d="M762.7 521C772.641 521 780.7 512.941 780.7 503C780.7 493.059 772.641 485 762.7 485C752.759 485 744.7 493.059 744.7 503C744.7 512.941 752.759 521 762.7 521Z" fill="#87D1E8"/>
<path d="M762.7 521C772.641 521 780.7 512.941 780.7 503C780.7 493.059 772.641 485 762.7 485C752.759 485 744.7 493.059 744.7 503C744.7 512.941 752.759 521 762.7 521Z" stroke="#3B6B7D" stroke-width="10" stroke-miterlimit="10" stroke-linecap="round" stroke-linejoin="round"/>
<path d="M777.2 492.3L789.6 479.9" stroke="#3B6B7D" stroke-width="10" stroke-miterlimit="10" stroke-linecap="round" stroke-linejoin="round"/>
<path d="M785.9 472.5L796.9 483.5" stroke="#3B6B7D" stroke-width="10" stroke-miterlimit="10" stroke-linecap="round" stroke-linejoin="round"/>
<path d="M778.3 458.5H747C743.3 458.5 740.8 454.8 742.1 451.4L746.6 439.3C748.9 433.2 755.4 429 762.7 429C770 429 776.4 433.1 778.8 439.3L783.3 451.4C784.6 454.8 782 458.5 778.3 458.5Z" fill="#87D1E8"/>
<path d="M778.3 458.5H747C743.3 458.5 740.8 454.8 742.1 451.4L746.6 439.3C748.9 433.2 755.4 429 762.7 429C770 429 776.4 433.1 778.8 439.3L783.3 451.4C784.6 454.8 782 458.5 778.3 458.5Z" stroke="#3B6B7D" stroke-width="10" stroke-miterlimit="10" stroke-linecap="round" stroke-linejoin="round"/>
<path d="M845.7 503H679.7V523H845.7V503Z" fill="#DD8A8A"/>
<path d="M845.7 503H679.7V523H845.7V503Z" stroke="#3B6B7D" stroke-width="10" stroke-miterlimit="10" stroke-linecap="round" stroke-linejoin="round"/>
<path d="M842.7 224H682.7V416H842.7V224Z" fill="#BBEAF2"/>
<path opacity="0.52" d="M842.7 402H682.7V416H842.7V402Z" fill="#92D7E7"/>
<path opacity="0.48" d="M842.7 224H682.7V238.1H842.7V224Z" fill="#92D7E7"/>
<path d="M842.7 224H682.7V416H842.7V224Z" stroke="#3B6B7D" stroke-width="10" stroke-miterlimit="10" stroke-linecap="round" stroke-linejoin="round"/>
<path d="M659 416H866.3" stroke="#3B6B7D" stroke-width="10" stroke-miterlimit="10" stroke-linecap="round" stroke-linejoin="round"/>
<path d="M824.9 357.7H800.1V416H824.9V357.7Z" fill="#D3B379"/>
<path d="M824.9 357.7H800.1V416H824.9V357.7Z" stroke="#3B6B7D" stroke-width="10" stroke-miterlimit="10" stroke-linecap="round" stroke-linejoin="round"/>
<path d="M813.5 333H811.5C808 333 805.1 335.9 805.1 339.4V357.6H819.9V339.4C819.9 335.9 817 333 813.5 333Z" fill="#D0EDF5"/>
<path d="M813.5 333H811.5C808 333 805.1 335.9 805.1 339.4V357.6H819.9V339.4C819.9 335.9 817 333 813.5 333Z" stroke="#3B6B7D" stroke-width="10" stroke-miterlimit="10" stroke-linecap="round" stroke-linejoin="round"/>
<path d="M710.7 310.3L753.7 267.3" stroke="#3B6B7D" stroke-width="6" stroke-miterlimit="10" stroke-linecap="round" stroke-linejoin="round"/>
<path d="M764.3 297.8L803.1 259.1" stroke="#3B6B7D" stroke-width="6" stroke-miterlimit="10" stroke-linecap="round" stroke-linejoin="round"/>
<path d="M723 339.2L750 312.2" stroke="#3B6B7D" stroke-width="6" stroke-miterlimit="10" stroke-linecap="round" stroke-linejoin="round"/>
<path d="M440.1 238.1H589.7" stroke="#3B6B7D" stroke-width="12" stroke-miterlimit="10" stroke-linecap="round" stroke-linejoin="round"/>
<path d="M440.1 224H413.1V252.2H440.1V224Z" fill="#87D1E8"/>
<path d="M440.1 224H413.1V252.2H440.1V224Z" stroke="#3B6B7D" stroke-width="10" stroke-miterlimit="10" stroke-linecap="round" stroke-linejoin="round"/>
<path d="M616.699 224H589.699V252.2H616.699V224Z" fill="#87D1E8"/>
<path d="M616.699 224H589.699V252.2H616.699V224Z" stroke="#3B6B7D" stroke-width="10" stroke-miterlimit="10" stroke-linecap="round" stroke-linejoin="round"/>
<path d="M575 224H457V395H575V224Z" fill="white"/>
<path opacity="0.84" d="M575 224H457V242.5H575V224Z" fill="#D8D8D8"/>
<path d="M575 224H457V395H575V224Z" stroke="#3B6B7D" stroke-width="10" stroke-miterlimit="10" stroke-linecap="round" stroke-linejoin="round"/>
<path d="M566.5 409V395" stroke="#3B6B7D" stroke-width="8" stroke-miterlimit="10" stroke-linecap="round" stroke-linejoin="round"/>
<path d="M552.5 409V395" stroke="#3B6B7D" stroke-width="8" stroke-miterlimit="10" stroke-linecap="round" stroke-linejoin="round"/>
<path d="M538.5 409V395" stroke="#3B6B7D" stroke-width="8" stroke-miterlimit="10" stroke-linecap="round" stroke-linejoin="round"/>
<path d="M524.5 409V395" stroke="#3B6B7D" stroke-width="8" stroke-miterlimit="10" stroke-linecap="round" stroke-linejoin="round"/>
<path d="M510.5 409V395" stroke="#3B6B7D" stroke-width="8" stroke-miterlimit="10" stroke-linecap="round" stroke-linejoin="round"/>
<path d="M496.5 409V395" stroke="#3B6B7D" stroke-width="8" stroke-miterlimit="10" stroke-linecap="round" stroke-linejoin="round"/>
<path d="M482.5 409V395" stroke="#3B6B7D" stroke-width="8" stroke-miterlimit="10" stroke-linecap="round" stroke-linejoin="round"/>
<path d="M468.5 409V395" stroke="#3B6B7D" stroke-width="8" stroke-miterlimit="10" stroke-linecap="round" stroke-linejoin="round"/>
<path d="M457 363.7H575" stroke="#3B6B7D" stroke-width="10" stroke-miterlimit="10" stroke-linecap="round" stroke-linejoin="round"/>
<path d="M500 227.2V328" stroke="#3B6B7D" stroke-width="6" stroke-miterlimit="10" stroke-linecap="round" stroke-linejoin="round"/>
<path d="M539.699 227.2V292" stroke="#3B6B7D" stroke-width="6" stroke-miterlimit="10" stroke-linecap="round" stroke-linejoin="round"/>
</svg>
