<svg width="1000" height="1000" viewBox="0 0 1000 1000" fill="none" xmlns="http://www.w3.org/2000/svg">
<path d="M1000 0H0V1000H1000V0Z" fill="#1B3B52"/>
<path opacity="0.35" d="M832.8 527.5H710.3V417.1H752.6C767.8 417.1 780.2 404.7 780.2 389.5C780.2 374.3 767.8 361.9 752.6 361.9H710.3H698V306.7H713.5C728.7 306.7 741.1 294.3 741.1 279.1C741.1 263.9 728.7 251.5 713.5 251.5H698H695.4H531.1H525.5H353.9H314.6C299.4 251.5 287 263.9 287 279.1C287 294.3 299.4 306.7 314.6 306.7H386.3C401.543 306.7 413.9 319.057 413.9 334.3V334.3C413.9 349.543 401.543 361.9 386.3 361.9H221C209.3 361.9 199.8 371.4 199.8 383.1C199.8 394.8 209.3 404.3 221 404.3H331.8C344.005 404.3 353.9 414.195 353.9 426.4V426.4C353.9 438.605 344.005 448.5 331.8 448.5H154.8C139.6 448.5 127.2 460.9 127.2 476.1C127.2 491.3 139.6 503.7 154.8 503.7H353.9V558.9H222.8C198.4 558.9 178.6 578.7 178.6 603.1C178.6 627.5 198.4 647.3 222.8 647.3H353.9H412.1H444.8H710.3H832.8C865.8 647.3 892.6 620.5 892.6 587.5C892.6 554.3 865.8 527.5 832.8 527.5Z" fill="#395D77"/>
<path opacity="0.35" d="M818.1 417.1C802.9 417.1 790.5 404.7 790.5 389.5C790.5 374.3 802.9 361.9 818.1 361.9C833.3 361.9 845.7 374.3 845.7 389.5C845.7 404.7 833.4 417.1 818.1 417.1Z" fill="#395D77"/>
<path d="M793.4 361.8H630.2C615 361.8 602.6 349.4 602.6 334.2C602.6 319 615 306.6 630.2 306.6H793.5V361.8H793.4Z" fill="#1B3B52"/>
<path d="M910.8 527.5H704.8C674.3 527.5 649.6 502.8 649.6 472.3C649.6 441.8 674.3 417.1 704.8 417.1H910.8V527.5Z" fill="#1B3B52"/>
<path opacity="0.35" d="M245.5 306.6H241.6C226.4 306.6 214 294.2 214 279C214 263.8 226.4 251.4 241.6 251.4H245.5C260.7 251.4 273.1 263.8 273.1 279C273.1 294.3 260.8 306.6 245.5 306.6Z" fill="#395D77"/>
<path d="M844.3 664.3H184.2C178.7 664.3 174.2 668.8 174.2 674.3C174.2 679.8 178.7 684.3 184.2 684.3H337C331.5 684.3 327 688.8 327 694.3C327 699.8 331.5 704.3 337 704.3H294.7C289.2 704.3 284.7 708.8 284.7 714.3C284.7 719.8 289.2 724.3 294.7 724.3H674.9C680.4 724.3 684.9 719.8 684.9 714.3C684.9 708.8 680.4 704.3 674.9 704.3H700.3C705.8 704.3 710.3 699.8 710.3 694.3C710.3 688.8 705.8 684.3 700.3 684.3H844.4C849.9 684.3 854.4 679.8 854.4 674.3C854.3 668.7 849.8 664.3 844.3 664.3Z" fill="#1B2238"/>
<path d="M866.5 704.3H503.2C497.7 704.3 493.2 699.8 493.2 694.3C493.2 688.8 497.7 684.3 503.2 684.3H866.5C872 684.3 876.5 688.8 876.5 694.3C876.5 699.8 872 704.3 866.5 704.3Z" fill="#1B3B52"/>
<path d="M378 704.3H98.4C92.9 704.3 88.4 699.8 88.4 694.3C88.4 688.8 92.9 684.3 98.4 684.3H378C383.5 684.3 388 688.8 388 694.3C388 699.8 383.5 704.3 378 704.3Z" fill="#1B3B52"/>
<path d="M461.6 456.3H225.6V638.3H461.6V456.3Z" fill="#1B2238"/>
<path d="M443.54 620.285V474.285L243.54 474.285L243.54 620.285H443.54Z" fill="#1A1F33"/>
<path d="M225.6 456.3H209.6V638.3H225.6V456.3Z" fill="#6C9C36"/>
<path d="M609.3 614.8H543.5C524.7 614.8 509.5 599.6 509.5 580.8C509.5 562 524.7 546.8 543.5 546.8H609.3C628.1 546.8 643.3 562 643.3 580.8C643.3 599.5 628.1 614.8 609.3 614.8Z" fill="#E63E35"/>
<path d="M588.6 614.8H259.6C240.8 614.8 225.6 599.6 225.6 580.8C225.6 562 240.8 546.8 259.6 546.8H588.6C607.4 546.8 622.6 562 622.6 580.8C622.6 599.5 607.4 614.8 588.6 614.8Z" fill="#C61D34"/>
<path d="M231.1 599.3C237.2 608.6 247.7 614.8 259.6 614.8H588.6C600.6 614.8 611.1 608.6 617.1 599.3H231.1Z" fill="#AF142E"/>
<path d="M801.6 514.3H565.6V638.3H801.6V514.3Z" fill="#1B2238"/>
<path d="M783.54 620.285V532.285H583.54V620.285H783.54Z" fill="#1A1F33"/>
<path d="M565.6 514.3H549.6V638.3H565.6V514.3Z" fill="#6C9C38"/>
<path d="M610.6 638.3H594.6V674.3H610.6V638.3Z" fill="#593422"/>
<path d="M610.6 638.3H594.6V644.9H610.6V638.3Z" fill="#1A1F33"/>
<path d="M622.6 638.3H610.6V674.3H622.6V638.3Z" fill="#1A1F33"/>
<path d="M760.6 638.3H744.6V674.3H760.6V638.3Z" fill="#1B2238"/>
<path d="M760.6 638.3H744.6V644.9H760.6V638.3Z" fill="#1A1F33"/>
<path d="M772.6 638.3H760.6V674.3H772.6V638.3Z" fill="#1A1F33"/>
<path d="M270.6 638.3H254.6V674.3H270.6V638.3Z" fill="#593422"/>
<path d="M270.6 638.3H254.6V644.9H270.6V638.3Z" fill="#1A1F33"/>
<path d="M282.6 638.3H270.6V674.3H282.6V638.3Z" fill="#1A1F33"/>
<path d="M420.6 638.3H404.6V674.3H420.6V638.3Z" fill="#1A1F33"/>
<path d="M420.6 638.3H404.6V644.9H420.6V638.3Z" fill="#1A1F33"/>
<path d="M432.6 638.3H420.6V674.3H432.6V638.3Z" fill="#1A1F33"/>
<path d="M549.6 614.3H209.6V638.3H549.6V614.3Z" fill="#6C9C38"/>
<path d="M507.3 582.4C507.3 564.9 521.5 550.8 538.9 550.8H542V546.8H529.3C510.5 546.8 495.3 562 495.3 580.8V638.3H507.3V582.4V582.4Z" fill="#1B2238"/>
<path d="M532.2 546.8H389C370.2 546.8 355 562 355 580.8V674.3H498.2V580.8C498.2 562 513.4 546.8 532.2 546.8Z" fill="#F0EC95"/>
<path d="M429.8 555.3C450.4 555.3 467.1 553.106 467.1 550.4C467.1 547.694 450.4 545.5 429.8 545.5C409.2 545.5 392.5 547.694 392.5 550.4C392.5 553.106 409.2 555.3 429.8 555.3Z" fill="#1B2238"/>
<path d="M340.8 556.6C361.4 556.6 378.1 554.406 378.1 551.7C378.1 548.994 361.4 546.8 340.8 546.8C320.2 546.8 303.5 548.994 303.5 551.7C303.5 554.406 320.2 556.6 340.8 556.6Z" fill="#1B2238"/>
<path d="M501.3 674.3V580.8C501.3 564.3 514.8 550.8 531.3 550.8H535.4V546.8H531.3C512.5 546.8 497.3 562 497.3 580.8V674.3H501.3Z" fill="#CEC67A"/>
<path d="M549.6 546.8H534.4V550.8H549.6V546.8Z" fill="#CEC67A"/>
<path d="M392 674.3H377V590.8C377 586.7 380.4 583.3 384.5 583.3C388.6 583.3 392 586.7 392 590.8V674.3Z" fill="#CEC67A"/>
<path d="M420.1 674.3H405.1V590.8C405.1 586.7 408.5 583.3 412.6 583.3C416.7 583.3 420.1 586.7 420.1 590.8V674.3Z" fill="#CEC67A"/>
<path d="M448.1 674.3H433.1V590.8C433.1 586.7 436.5 583.3 440.6 583.3C444.7 583.3 448.1 586.7 448.1 590.8V674.3Z" fill="#CEC67A"/>
<path d="M476.2 674.3H461.2V590.8C461.2 586.7 464.6 583.3 468.7 583.3C472.8 583.3 476.2 586.7 476.2 590.8V674.3Z" fill="#CEC67A"/>
<path d="M449.7 509C441.1 499.4 429.3 494.3 417.4 493.8C417.3 493.8 417.2 493.8 417 493.8H365.4L402.1 549.3H453.9C457.7 549.3 460.9 546.4 461.2 542.6C462.1 530.8 458.3 518.6 449.7 509Z" fill="#CBDDAF"/>
<path d="M369.6 534C378.2 543.6 390 548.7 401.9 549.2C405.8 549.4 409.2 546.4 409.5 542.5C410.4 530.7 406.6 518.5 398 508.9C389.4 499.3 377.6 494.2 365.7 493.7C361.8 493.5 358.4 496.5 358.1 500.4C357.3 512.3 361 524.4 369.6 534Z" fill="#EFF9E1"/>
<path d="M409.6 541.6C409.6 541.9 409.6 542.2 409.6 542.6C409.3 546.4 406.1 549.3 402.2 549.3H454C457.8 549.3 461 546.4 461.3 542.6C461.3 542.3 461.3 542 461.3 541.6H409.6Z" fill="#A4B783"/>
<path d="M362.3 509C353.7 499.4 341.9 494.3 330 493.8C329.9 493.8 329.8 493.8 329.6 493.8H278L314.7 549.3H366.5C370.3 549.3 373.5 546.4 373.8 542.6C374.6 530.8 370.9 518.6 362.3 509Z" fill="#CBDDAF"/>
<path d="M282.2 534C290.8 543.6 302.6 548.7 314.5 549.2C318.4 549.4 321.8 546.4 322.1 542.5C323 530.7 319.2 518.5 310.6 508.9C302 499.3 290.2 494.2 278.3 493.7C274.4 493.5 271 496.5 270.7 500.4C269.8 512.3 273.6 524.4 282.2 534Z" fill="#EFF9E1"/>
<path d="M322.2 541.6C322.2 541.9 322.2 542.2 322.2 542.6C321.9 546.4 318.7 549.3 314.8 549.3H366.6C370.4 549.3 373.6 546.4 373.9 542.6C373.9 542.3 373.9 542 373.9 541.6H322.2Z" fill="#A4B783"/>
<path d="M648.5 357.2C649.3 351.2 646.1 345.1 640.4 343.4C634.7 341.7 628.3 346.4 627.2 354.1C627 355.5 627 356.9 627.2 358.2C627.3 372.3 630.2 386 635.4 398.6C638.8 397.7 642.2 396.8 645.5 395.8C643.9 383.6 644.7 371.6 647.6 360.4C648 359.4 648.3 358.3 648.5 357.2Z" fill="#6C9C38"/>
<path d="M645.9 367.8C647.4 365.6 650.2 364.6 652.6 365.8C654.9 366.9 655.6 370.3 653.7 373.1C653.3 373.6 652.9 374.1 652.5 374.4C648.3 378.9 648.4 383.3 643 385.8C642.2 384.5 641.4 383.2 640.6 381.9C644.7 378.4 642.9 373.5 645.3 369C645.4 368.6 645.6 368.2 645.9 367.8Z" fill="#1A1F33"/>
<path d="M640.4 343.1C638.9 342.7 635.3 342.7 632.9 344.7C633.9 344.2 635.4 344.3 635.5 344.3C641.5 344.8 645.1 351.2 644.3 357.2C644.1 358.3 643.8 359.4 643.4 360.4C640.5 371.6 639.7 383.6 641.3 395.8C639.2 396.4 637.1 397 635 397.5C635.1 397.8 635.3 398.2 635.4 398.5C638.8 397.6 642.2 396.7 645.5 395.7C643.9 383.5 644.7 371.5 647.6 360.3C648 359.3 648.3 358.2 648.5 357.1C649.3 351.2 646.1 344.8 640.4 343.1Z" fill="#1A1F33"/>
<path d="M628.7 417.4H651.8C658.8 412.2 663.4 402.5 663.4 391.4H617C617.1 402.5 621.8 412.2 628.7 417.4Z" fill="#F9F9F9"/>
<path d="M632.2 357.3L630 357.8L632.1 358.8C632.6 359 633.2 358.7 633.2 358.1V358C633.1 357.6 632.6 357.2 632.2 357.3Z" fill="#3A7741"/>
<path d="M638.1 354.1L636.3 352.7L636.8 355C636.9 355.5 637.6 355.8 638 355.4L638.1 355.3C638.5 354.9 638.5 354.4 638.1 354.1Z" fill="#3A7741"/>
<path d="M635.8 372L633.6 372.6L635.7 373.6C636.2 373.8 636.8 373.5 636.8 372.9V372.7C636.8 372.3 636.3 371.9 635.8 372Z" fill="#3A7741"/>
<path d="M645.9 367.8C645.6 368.2 645.4 368.7 645.2 369.1C644 371.3 642.6 373.5 641 375.5V383.4C643.6 382 646 380.3 648.3 378.3C648.4 376.1 648.6 373.6 648.6 372.5C648.6 371.2 649.8 367.7 650.7 365.2C648.9 365.2 647 366.1 645.9 367.8Z" fill="#1A1F33"/>
<path d="M648 391.4C648.5 393.7 648.7 396.1 648.7 398.6C648.7 405.6 646.7 412.1 643.3 417.4H651.9C658.9 412.2 663.5 402.5 663.5 391.4H648Z" fill="#1A1F33"/>
<path d="M645.3 416.4H565.6V428.4H645.3V416.4Z" fill="#A57767"/>
<path d="M710.3 416.4H645.3V428.4H710.3V416.4Z" fill="#1B2238"/>
<path d="M530 453.9H489.2C474 453.9 461.6 441.5 461.6 426.3C461.6 411.1 474 398.7 489.2 398.7H530C545.2 398.7 557.6 411.1 557.6 426.3C557.6 441.5 545.2 453.9 530 453.9Z" fill="#1B3B52"/>
</svg>
