<svg width="1000" height="1000" viewBox="0 0 1000 1000" fill="none" xmlns="http://www.w3.org/2000/svg">
  <path d="M1000 0H0V1000H1000V0Z" fill="#1E90FF" fill-opacity="0.2" />
  <g opacity="0.23">
    <path opacity="0.23" d="M619.2 271.4V240.5H557.4" stroke="#474747" stroke-width="6" stroke-miterlimit="10"
      stroke-linecap="round" stroke-linejoin="round" />
    <path opacity="0.23" d="M681.1 240.5H619.2V271.4" stroke="#474747" stroke-width="6" stroke-miterlimit="10"
      stroke-linecap="round" stroke-linejoin="round" />
    <path opacity="0.23" d="M650.2 209.5H588.3V240.4H650.2V209.5Z" stroke="#474747" stroke-width="6"
      stroke-miterlimit="10" stroke-linecap="round" stroke-linejoin="round" />
    <path opacity="0.23" d="M636.8 178.6H619.2V209.5H681.1" stroke="#474747" stroke-width="6" stroke-miterlimit="10"
      stroke-linecap="round" stroke-linejoin="round" />
    <path opacity="0.23" d="M557.4 209.5H619.2V178.6H569.1" stroke="#474747" stroke-width="6" stroke-miterlimit="10"
      stroke-linecap="round" stroke-linejoin="round" />
    <path opacity="0.23" d="M536.3 240.5H588.3V209.5H557.4" stroke="#474747" stroke-width="6" stroke-miterlimit="10"
      stroke-linecap="round" stroke-linejoin="round" />
    <path opacity="0.23" d="M694.8 209.5H650.2V240.5H671.6" stroke="#474747" stroke-width="6" stroke-miterlimit="10"
      stroke-linecap="round" stroke-linejoin="round" />
  </g>
  <g opacity="0.23">
    <path opacity="0.23" d="M224.2 420.2V451.1H162.3" stroke="#474747" stroke-width="6" stroke-miterlimit="10"
      stroke-linecap="round" stroke-linejoin="round" />
    <path opacity="0.23" d="M286.1 451.1H224.2V420.2" stroke="#474747" stroke-width="6" stroke-miterlimit="10"
      stroke-linecap="round" stroke-linejoin="round" />
    <path opacity="0.23" d="M255.2 451.101H193.3V482.001H255.2V451.101Z" stroke="#474747" stroke-width="6"
      stroke-miterlimit="10" stroke-linecap="round" stroke-linejoin="round" />
    <path opacity="0.23" d="M241.8 513.001H224.2V482.101H286.1" stroke="#474747" stroke-width="6" stroke-miterlimit="10"
      stroke-linecap="round" stroke-linejoin="round" />
    <path opacity="0.23" d="M162.3 482.101H224.2V513.001H174" stroke="#474747" stroke-width="6" stroke-miterlimit="10"
      stroke-linecap="round" stroke-linejoin="round" />
    <path opacity="0.23" d="M141.3 451.101H193.3V482.101H162.3" stroke="#474747" stroke-width="6" stroke-miterlimit="10"
      stroke-linecap="round" stroke-linejoin="round" />
    <path opacity="0.23" d="M299.8 482.101H255.1V451.101H276.6" stroke="#474747" stroke-width="6" stroke-miterlimit="10"
      stroke-linecap="round" stroke-linejoin="round" />
  </g>
  <g opacity="0.23">
    <path opacity="0.23" d="M850 567V598H911.9" stroke="#474747" stroke-width="6" stroke-miterlimit="10"
      stroke-linecap="round" stroke-linejoin="round" />
    <path opacity="0.23" d="M788.1 598H850V567" stroke="#474747" stroke-width="6" stroke-miterlimit="10"
      stroke-linecap="round" stroke-linejoin="round" />
    <path opacity="0.23" d="M818.979 628.834L880.879 628.834L880.879 597.934L818.979 597.934L818.979 628.834Z"
      stroke="#474747" stroke-width="6" stroke-miterlimit="10" stroke-linecap="round" stroke-linejoin="round" />
    <path opacity="0.23" d="M832.4 659.8H850V628.9H788.1" stroke="#474747" stroke-width="6" stroke-miterlimit="10"
      stroke-linecap="round" stroke-linejoin="round" />
    <path opacity="0.23" d="M911.9 628.9H850V659.8H873.2" stroke="#474747" stroke-width="6" stroke-miterlimit="10"
      stroke-linecap="round" stroke-linejoin="round" />
    <path opacity="0.23" d="M932.9 598H880.9V628.9H911.9" stroke="#474747" stroke-width="6" stroke-miterlimit="10"
      stroke-linecap="round" stroke-linejoin="round" />
    <path opacity="0.23" d="M774.4 628.9H819.1V598H797.6" stroke="#474747" stroke-width="6" stroke-miterlimit="10"
      stroke-linecap="round" stroke-linejoin="round" />
  </g>
  <path d="M201 726H902.2" stroke="#333333" stroke-width="10" stroke-miterlimit="10" stroke-linecap="round"
    stroke-linejoin="round" />
  <path d="M150.5 726H178.3" stroke="#333333" stroke-width="10" stroke-miterlimit="10" stroke-linecap="round"
    stroke-linejoin="round" />
  <path d="M372.3 726H284.6V706H392.5L372.3 726Z" fill="#333333" />
  <path d="M503.7 726H591.4V706H483.5L503.7 726Z" fill="#333333" />
  <path
    d="M618 614.901C499.5 638.901 376.5 638.901 258 614.901C258 581.501 258 548.201 258 514.801C258 504.901 266.8 495.001 277.8 492.901C383.6 474.001 492.4 474.001 598.2 492.901C609.2 495.001 618 504.901 618 514.801C618 548.201 618 581.501 618 614.901Z"
    fill="#FFC859" />
  <path
    d="M279.9 502.7C384.3 486.3 491.7 486.3 596 502.7C603 503.9 609.2 508 612.6 513C612.6 512 612.6 511 612.6 510C612.6 501.4 604 492.8 593.4 491C490.7 474.6 385.1 474.6 282.4 491C271.8 492.8 263.2 501.4 263.2 510C263.2 511 263.2 512 263.2 513C266.7 507.9 272.9 503.9 279.9 502.7Z"
    fill="#F9D895" />
  <path
    d="M407.1 589.5C371.9 593 336.4 593 301.2 589.5C293.6 588.7 287.5 582.6 286.9 574.9C286.4 568.4 286.4 561.9 286.9 555.4C287.5 547.7 293.5 541.6 301.2 540.8C336.4 537.3 371.9 537.3 407.1 540.8C414.7 541.6 420.8 547.7 421.4 555.4C421.9 561.9 421.9 568.4 421.4 574.9C420.7 582.6 414.7 588.8 407.1 589.5Z"
    fill="#CE5555" />
  <path opacity="0.47"
    d="M419 560.601C418.4 568.301 412.6 574.401 405.2 575.201C371.2 578.701 337 578.701 303 575.201C295.6 574.401 289.8 568.301 289.2 560.601C289.1 559.801 289.1 558.901 289.1 558.101C288.8 563.701 288.8 569.401 289.2 575.001C289.8 582.701 295.6 588.801 303 589.601C337 593.101 371.2 593.101 405.2 589.601C412.6 588.801 418.4 582.701 419 575.001C419.4 569.301 419.5 563.701 419.1 558.101C419.1 558.901 419.1 559.701 419 560.601Z"
    fill="#CE5555" />
  <path opacity="0.5"
    d="M286.9 563.5C287.5 555.8 293.5 549.7 301.2 548.9C336.4 545.4 371.9 545.4 407.1 548.9C414.7 549.7 420.8 555.8 421.4 563.5C421.6 565.4 421.6 567.3 421.7 569.2C421.9 564.6 421.8 560.1 421.4 555.5C420.8 547.8 414.8 541.7 407.1 540.9C371.9 537.4 336.4 537.4 301.2 540.9C293.6 541.7 287.5 547.8 286.9 555.5C286.5 560.1 286.4 564.7 286.6 569.2C286.7 567.3 286.7 565.4 286.9 563.5Z"
    fill="#CE5555" />
  <path
    d="M407.1 589.5C371.9 593 336.4 593 301.2 589.5C293.6 588.7 287.5 582.6 286.9 574.9C286.4 568.4 286.4 561.9 286.9 555.4C287.5 547.7 293.5 541.6 301.2 540.8C336.4 537.3 371.9 537.3 407.1 540.8C414.7 541.6 420.8 547.7 421.4 555.4C421.9 561.9 421.9 568.4 421.4 574.9C420.7 582.6 414.7 588.8 407.1 589.5Z"
    stroke="#333333" stroke-width="10" stroke-miterlimit="10" stroke-linecap="round" stroke-linejoin="round" />
  <path
    d="M574.8 589.5C539.6 593 504.1 593 468.9 589.5C461.3 588.7 455.2 582.6 454.6 574.9C454.1 568.4 454.1 561.9 454.6 555.4C455.2 547.7 461.2 541.6 468.9 540.8C504.1 537.3 539.6 537.3 574.8 540.8C582.4 541.6 588.5 547.7 589.1 555.4C589.6 561.9 589.6 568.4 589.1 574.9C588.5 582.6 582.5 588.8 574.8 589.5Z"
    fill="#CE5555" />
  <path opacity="0.47"
    d="M585.5 560.601C584.9 568.301 579.2 574.401 572 575.201C538.7 578.701 505.1 578.701 471.7 575.201C464.5 574.401 458.8 568.301 458.2 560.601C458.1 559.801 458.1 558.901 458.1 558.101C457.8 563.701 457.8 569.401 458.2 575.001C458.8 582.701 464.5 588.801 471.7 589.601C505 593.101 538.6 593.101 572 589.601C579.2 588.801 584.9 582.701 585.5 575.001C585.9 569.301 586 563.701 585.6 558.101C585.6 558.901 585.6 559.701 585.5 560.601Z"
    fill="#CE5555" />
  <path opacity="0.5"
    d="M454.7 563.5C455.3 555.8 461.3 549.7 469 548.9C504.2 545.4 539.7 545.4 574.9 548.9C582.5 549.7 588.6 555.8 589.2 563.5C589.4 565.4 589.4 567.3 589.5 569.2C589.7 564.6 589.6 560.1 589.2 555.5C588.6 547.8 582.6 541.7 574.9 540.9C539.7 537.4 504.2 537.4 469 540.9C461.4 541.7 455.3 547.8 454.7 555.5C454.3 560.1 454.2 564.7 454.4 569.2C454.4 567.3 454.5 565.4 454.7 563.5Z"
    fill="#CE5555" />
  <path
    d="M574.8 589.5C539.6 593 504.1 593 468.9 589.5C461.3 588.7 455.2 582.6 454.6 574.9C454.1 568.4 454.1 561.9 454.6 555.4C455.2 547.7 461.2 541.6 468.9 540.8C504.1 537.3 539.6 537.3 574.8 540.8C582.4 541.6 588.5 547.7 589.1 555.4C589.6 561.9 589.6 568.4 589.1 574.9C588.5 582.6 582.5 588.8 574.8 589.5Z"
    stroke="#333333" stroke-width="10" stroke-miterlimit="10" stroke-linecap="round" stroke-linejoin="round" />
  <path
    d="M618 614.901C499.5 638.901 376.5 638.901 258 614.901C258 581.501 258 548.201 258 514.801C258 504.901 266.8 495.001 277.8 492.901C383.6 474.001 492.4 474.001 598.2 492.901C609.2 495.001 618 504.901 618 514.801C618 548.201 618 581.501 618 614.901Z"
    stroke="#333333" stroke-width="10" stroke-miterlimit="10" stroke-linecap="round" stroke-linejoin="round" />
  <path d="M627 622.4H249C249 604.7 263.3 590.4 281 590.4H595C612.7 590.3 627 604.7 627 622.4Z" fill="#B2C68B" />
  <path opacity="0.38" d="M627 606.4H249V622.4H627V606.4Z" fill="#AABC80" />
  <path d="M627 622.4H249C249 604.7 263.3 590.4 281 590.4H595C612.7 590.3 627 604.7 627 622.4Z" stroke="#333333"
    stroke-width="10" stroke-miterlimit="10" stroke-linecap="round" stroke-linejoin="round" />
  <path d="M634 706H242V630.4C242 626 245.6 622.4 250 622.4H626C630.4 622.4 634 626 634 630.4V706Z" fill="#AA7D5E" />
  <path d="M634 706H242V630.4C242 626 245.6 622.4 250 622.4H626C630.4 622.4 634 626 634 630.4V706Z" fill="#FFC758" />
  <path opacity="0.96" d="M634 694.3H242V706H634V694.3Z" fill="#FFC758" />
  <path d="M634 632.9H242V630.4C242 626 245.6 622.4 250 622.4H626C630.4 622.4 634 626 634 630.4V632.9Z"
    fill="#F9D895" />
  <path d="M634 706H242V630.4C242 626 245.6 622.4 250 622.4H626C630.4 622.4 634 626 634 630.4V706Z" stroke="#333333"
    stroke-width="10" stroke-miterlimit="10" stroke-linecap="round" stroke-linejoin="round" />
  <path d="M372.3 726H284.6V706H392.5L372.3 726Z" stroke="#333333" stroke-width="10" stroke-miterlimit="10"
    stroke-linecap="round" stroke-linejoin="round" />
  <path d="M503.7 726H591.4V706H483.5L503.7 726Z" stroke="#333333" stroke-width="10" stroke-miterlimit="10"
    stroke-linecap="round" stroke-linejoin="round" />
  <path d="M447.3 259.8H337.3V275.8H447.3V259.8Z" fill="#6A6A68" />
  <path d="M447.3 259.8H337.3V275.8H447.3V259.8Z" stroke="#333333" stroke-width="10" stroke-miterlimit="10"
    stroke-linecap="round" stroke-linejoin="round" />
  <path d="M370.3 176.1H347V259.8H370.3V176.1Z" stroke="#333333" stroke-width="10" stroke-miterlimit="10"
    stroke-linecap="round" stroke-linejoin="round" />
  <path opacity="0.38" d="M370.3 176.1H347V259.8H370.3V176.1Z" fill="#629EC0" />
  <path d="M393.6 154.7H370.3V259.8H393.6V154.7Z" fill="#FFC859" />
  <path d="M393.6 154.7H370.3V259.8H393.6V154.7Z" stroke="#333333" stroke-width="10" stroke-miterlimit="10"
    stroke-linecap="round" stroke-linejoin="round" />
  <path d="M414.403 169.741L393.695 178.019L424.765 255.742L445.473 247.465L414.403 169.741Z" fill="#FF7373" />
  <path d="M414.403 169.741L393.695 178.019L424.765 255.742L445.473 247.465L414.403 169.741Z" stroke="#333333"
    stroke-width="10" stroke-miterlimit="10" stroke-linecap="round" stroke-linejoin="round" />
  <path d="M478.6 298.7H376.5V400.3H478.6V298.7Z" fill="#F9F9F9" />
  <path d="M478.6 298.7H376.5V400.3H478.6V298.7Z" stroke="#333333" stroke-width="10" stroke-miterlimit="10"
    stroke-linecap="round" stroke-linejoin="round" />
  <path d="M467.583 389.285V309.685H387.483V389.285H467.583Z" fill="#B7F2A7" />
  <path d="M574.6 225H497.5V326.6H574.6V225Z" fill="#F9F9F9" />
  <path d="M574.6 225H497.5V326.6H574.6V225Z" stroke="#333333" stroke-width="10" stroke-miterlimit="10"
    stroke-linecap="round" stroke-linejoin="round" />
  <path d="M563.51 315.59V235.99H508.41V315.59H563.51Z" fill="#9FD3ED" />
  <path d="M602.6 349.5H497.5V428.2H602.6V349.5Z" fill="#F9F9F9" />
  <path d="M602.6 349.5H497.5V428.2H602.6V349.5Z" stroke="#333333" stroke-width="10" stroke-miterlimit="10"
    stroke-linecap="round" stroke-linejoin="round" />
  <path d="M591.577 417.258V360.558H508.477V417.258H591.577Z" fill="#F97D7D" />
  <path
    d="M737.2 336.6L699.5 298.9C691.7 291.1 691.7 278.4 699.5 270.6L737.2 232.9C745 225.1 757.7 225.1 765.5 232.9L803.2 270.6C811 278.4 811 291.1 803.2 298.9L765.5 336.6C757.7 344.4 745 344.4 737.2 336.6Z"
    fill="#F9F9F9" />
  <path
    d="M742 242.4C747.2 237.8 755.6 237.8 760.8 242.4L810.8 287.4C810.7 282.4 808.7 277.4 804.8 273.6L766 235.9C757.9 228.1 744.9 228.1 736.8 235.9L698 273.6C694.1 277.4 692.1 282.4 692 287.4L742 242.4Z"
    fill="#BFBFBF" />
  <path
    d="M737.2 336.6L699.5 298.9C691.7 291.1 691.7 278.4 699.5 270.6L737.2 232.9C745 225.1 757.7 225.1 765.5 232.9L803.2 270.6C811 278.4 811 291.1 803.2 298.9L765.5 336.6C757.7 344.4 745 344.4 737.2 336.6Z"
    stroke="#333333" stroke-width="10" stroke-miterlimit="10" stroke-linecap="round" stroke-linejoin="round" />
  <path d="M751.3 241.4V233.5" stroke="#333333" stroke-width="6" stroke-miterlimit="10" stroke-linecap="round"
    stroke-linejoin="round" />
  <path d="M751.3 336V328.1" stroke="#333333" stroke-width="6" stroke-miterlimit="10" stroke-linecap="round"
    stroke-linejoin="round" />
  <path d="M794.7 284.7H802.6" stroke="#333333" stroke-width="6" stroke-miterlimit="10" stroke-linecap="round"
    stroke-linejoin="round" />
  <path d="M700.1 284.7H708" stroke="#333333" stroke-width="6" stroke-miterlimit="10" stroke-linecap="round"
    stroke-linejoin="round" />
  <path d="M751.3 284.7L738.7 273" stroke="#333333" stroke-width="8" stroke-miterlimit="10" stroke-linecap="round"
    stroke-linejoin="round" />
  <path d="M770.1 259.9L751.3 286.2" stroke="#333333" stroke-width="5" stroke-miterlimit="10" stroke-linecap="round"
    stroke-linejoin="round" />
  <path
    d="M752.3 290.9C755.724 290.9 758.5 288.124 758.5 284.7C758.5 281.276 755.724 278.5 752.3 278.5C748.876 278.5 746.1 281.276 746.1 284.7C746.1 288.124 748.876 290.9 752.3 290.9Z"
    fill="#333333" />
  <path d="M816 577.699H674V707.699H816V577.699Z" fill="#996447" />
  <path d="M804.018 637.816V589.016H686.018V637.816H804.018Z" fill="#AA7D5E" />
  <path d="M803.979 696.477V647.677H685.979V696.477H803.979Z" fill="#AA7D5E" />
  <path d="M804.033 655.23V647.73H686.033V655.23H804.033Z" fill="#BF9E86" />
  <path d="M816 577.699H674V707.699H816V577.699Z" stroke="#333333" stroke-width="10" stroke-miterlimit="10"
    stroke-linecap="round" stroke-linejoin="round" />
  <path d="M803.972 596.569V589.069H685.972V596.569H803.972Z" fill="#BF9E86" />
  <path d="M804.018 637.816V589.016H686.018V637.816H804.018Z" stroke="#333333" stroke-width="6" stroke-miterlimit="10"
    stroke-linecap="round" stroke-linejoin="round" />
  <path d="M803.979 696.477V647.677H685.979V696.477H803.979Z" stroke="#333333" stroke-width="6" stroke-miterlimit="10"
    stroke-linecap="round" stroke-linejoin="round" />
  <path d="M711.3 496.9V491.3C711.3 469.9 727.6 452.6 747.6 452.6C767.7 452.6 783.9 469.9 783.9 491.3V563.3"
    stroke="#333333" stroke-width="12" stroke-miterlimit="10" stroke-linecap="round" stroke-linejoin="round" />
  <path d="M799.3 559.699H749.5V577.699H799.3V559.699Z" fill="#B67DBC" />
  <path opacity="0.44" d="M799.3 559.699H749.5V567.799H799.3V559.699Z" fill="#B67DBC" />
  <path d="M799.3 559.699H749.5V577.699H799.3V559.699Z" stroke="#333333" stroke-width="10" stroke-miterlimit="10"
    stroke-linecap="round" stroke-linejoin="round" />
  <path
    d="M738.1 527.299C739 523.699 739.5 519.799 739.5 515.899C739.5 495.399 726.9 478.699 711.4 478.699C695.9 478.699 683.3 495.299 683.3 515.899C683.3 519.899 683.8 523.699 684.7 527.299H738.1Z"
    fill="#9A5BA2" />
  <path
    d="M719.4 499C719.4 491.7 717.7 484.9 714.8 479.1C713.7 478.9 712.5 478.8 711.3 478.8C695.8 478.8 683.2 495.4 683.2 516C683.2 520 683.7 523.8 684.6 527.4H709C715.4 520.4 719.4 510.3 719.4 499Z"
    fill="#B67DBC" />
  <path
    d="M738.1 527.299C739 523.699 739.5 519.799 739.5 515.899C739.5 495.399 726.9 478.699 711.4 478.699C695.9 478.699 683.3 495.299 683.3 515.899C683.3 519.899 683.8 523.699 684.7 527.299H738.1Z"
    stroke="#333333" stroke-width="10" stroke-miterlimit="10" stroke-linecap="round" stroke-linejoin="round" />
  <path d="M762.4 606.399H727.7V620.399H762.4V606.399Z" fill="#474747" />
  <path d="M762.4 606.399H727.7V620.399H762.4V606.399Z" stroke="#333333" stroke-width="6" stroke-miterlimit="10"
    stroke-linecap="round" stroke-linejoin="round" />
  <path d="M762.4 665.1H727.7V679.1H762.4V665.1Z" fill="#474747" />
  <path d="M762.4 665.1H727.7V679.1H762.4V665.1Z" stroke="#333333" stroke-width="6" stroke-miterlimit="10"
    stroke-linecap="round" stroke-linejoin="round" />
  <path d="M714.7 725.999H686.7V707.699H730.7L714.7 725.999Z" fill="#333333" />
  <path d="M714.7 725.999H686.7V707.699H730.7L714.7 725.999Z" stroke="#333333" stroke-width="10" stroke-miterlimit="10"
    stroke-linecap="round" stroke-linejoin="round" />
  <path d="M775.3 725.999H803.3V707.699H759.3L775.3 725.999Z" fill="#333333" />
  <path d="M775.3 725.999H803.3V707.699H759.3L775.3 725.999Z" stroke="#333333" stroke-width="10" stroke-miterlimit="10"
    stroke-linecap="round" stroke-linejoin="round" />
  <path opacity="0.44"
    d="M744.335 496.223C745.289 494.109 744.715 491.787 743.054 491.037C741.392 490.288 739.272 491.395 738.318 493.509C737.365 495.624 737.938 497.945 739.6 498.695C741.261 499.444 743.381 498.338 744.335 496.223Z"
    fill="#B67DBC" />
  <path d="M396.5 352.2L423.9 324.9" stroke="#333333" stroke-width="4" stroke-miterlimit="10" stroke-linecap="round"
    stroke-linejoin="round" />
  <path d="M421.1 349.5L445.8 324.9" stroke="#333333" stroke-width="4" stroke-miterlimit="10" stroke-linecap="round"
    stroke-linejoin="round" />
  <path d="M401.9 368.7L412 358.6" stroke="#333333" stroke-width="4" stroke-miterlimit="10" stroke-linecap="round"
    stroke-linejoin="round" />
  <path d="M520.3 272.3L539 253.7" stroke="#333333" stroke-width="4" stroke-miterlimit="10" stroke-linecap="round"
    stroke-linejoin="round" />
  <path d="M548.3 267.8L555.5 260.6" stroke="#333333" stroke-width="4" stroke-miterlimit="10" stroke-linecap="round"
    stroke-linejoin="round" />
  <path d="M517.3 298.7L540.3 275.8" stroke="#333333" stroke-width="4" stroke-miterlimit="10" stroke-linecap="round"
    stroke-linejoin="round" />
  <path d="M533.6 404.6L567.3 370.8" stroke="#333333" stroke-width="4" stroke-miterlimit="10" stroke-linecap="round"
    stroke-linejoin="round" />
  <path d="M528.4 388.9L543.6 373.7" stroke="#333333" stroke-width="4" stroke-miterlimit="10" stroke-linecap="round"
    stroke-linejoin="round" />
  <path d="M401.6 197.9L422.2 189.2" stroke="#333333" stroke-width="10" stroke-miterlimit="10" stroke-linecap="round"
    stroke-linejoin="round" />
  <path d="M370.3 181.2H393.7" stroke="#333333" stroke-width="10" stroke-miterlimit="10" stroke-linecap="round"
    stroke-linejoin="round" />
  <path d="M347 194.9H370.3" stroke="#333333" stroke-width="10" stroke-miterlimit="10" stroke-linecap="round"
    stroke-linejoin="round" />
  <path d="M282.1 412.2H172.1V428.2H282.1V412.2Z" fill="#6A6A68" />
  <path d="M282.1 412.2H172.1V428.2H282.1V412.2Z" stroke="#333333" stroke-width="10" stroke-miterlimit="10"
    stroke-linecap="round" stroke-linejoin="round" />
  <path d="M209 219.2L227 233.2V299.7" stroke="#333333" stroke-width="5" stroke-miterlimit="10" stroke-linecap="round"
    stroke-linejoin="round" />
  <path d="M236.1 268.4V301.7" stroke="#333333" stroke-width="5" stroke-miterlimit="10" stroke-linecap="round"
    stroke-linejoin="round" />
  <path d="M216.7 244V300" stroke="#333333" stroke-width="5" stroke-miterlimit="10" stroke-linecap="round"
    stroke-linejoin="round" />
  <path
    d="M244.6 354.1V289.2H209.6V354.1C209.6 356.3 208.6 358.4 207 359.9C200.7 365.6 196.8 374 197.1 383.3C197.7 398.5 209.9 411.1 225.2 412.1C242.6 413.2 257.1 399.4 257.1 382.2C257.1 373.3 253.3 365.4 247.2 359.9C245.5 358.4 244.6 356.3 244.6 354.1Z"
    fill="#7D80BA" />
  <g opacity="0.6">
    <path opacity="0.6"
      d="M257.1 364.501C256.5 363.301 255.8 362.201 255 361.101C255.3 362.401 256.1 363.601 257.1 364.501Z"
      fill="#7D80BA" />
    <path opacity="0.6"
      d="M207.1 388C206.7 378.7 210.6 370.3 217 364.6C218.7 363.1 219.6 361 219.6 358.8V293.9H248.3V285.9H213.3V350.8C213.3 353 212.3 355.1 210.7 356.6C204.4 362.3 200.5 370.7 200.8 380C201.1 388.3 204.9 395.8 210.8 401.1C208.6 397.2 207.3 392.7 207.1 388Z"
      fill="#7D80BA" />
  </g>
  <path
    d="M244.6 354.1V289.2H209.6V354.1C209.6 356.3 208.6 358.4 207 359.9C200.7 365.6 196.8 374 197.1 383.3C197.7 398.5 209.9 411.1 225.2 412.1C242.6 413.2 257.1 399.4 257.1 382.2C257.1 373.3 253.3 365.4 247.2 359.9C245.5 358.4 244.6 356.3 244.6 354.1Z"
    stroke="#333333" stroke-width="10" stroke-miterlimit="10" stroke-linecap="round" stroke-linejoin="round" />
  <path d="M227 250.2L241.5 240.4V219.2L251.1 209.9" stroke="#333333" stroke-width="5" stroke-miterlimit="10"
    stroke-linecap="round" stroke-linejoin="round" />
  <path d="M241.5 174.1V219.2" stroke="#333333" stroke-width="5" stroke-miterlimit="10" stroke-linecap="round"
    stroke-linejoin="round" />
  <path d="M227 183L241.5 194.9" stroke="#333333" stroke-width="5" stroke-miterlimit="10" stroke-linecap="round"
    stroke-linejoin="round" />
  <path d="M206 259.8L216.6 268.4L206 259.8Z" stroke="#333333" stroke-width="5" stroke-miterlimit="10"
    stroke-linecap="round" stroke-linejoin="round" />
  <path opacity="0.6"
    d="M223.931 383.412C225.437 380.774 225.141 377.77 223.271 376.702C221.4 375.634 218.663 376.907 217.157 379.546C215.651 382.184 215.947 385.188 217.818 386.255C219.688 387.323 222.426 386.05 223.931 383.412Z"
    fill="#7D80BA" />
  <path d="M495.1 774.6H574.3" stroke="#1D2F3D" stroke-width="10" stroke-miterlimit="10" stroke-linecap="round"
    stroke-linejoin="round" />
  <path d="M460.3 774.6H473" stroke="#1D2F3D" stroke-width="10" stroke-miterlimit="10" stroke-linecap="round"
    stroke-linejoin="round" />
</svg>
