<svg viewBox="0 0 500 500" xml:space="preserve" xmlns="http://www.w3.org/2000/svg" xmlns:xlink="http://www.w3.org/1999/xlink"><style>.st2{fill:#efbfa5}.st3{fill:#353a85}.st4{fill:#292949}.st5{fill:#babcbe}.st6{fill:#d67086}.st7{fill:#5d66d3}.st8{fill:#eed5d5}.st10{fill:#b0c0ba}.st11{fill:#8cabef}.st13{fill:#dddae8}.st18{fill:#ba6275}.st23{fill:#2f3476}.st27{fill:#fff}.st28{fill:#dfd8c7}.st29{fill:#c1bbac}.st30{fill:#cbc4b5}.st31{fill:#f4f4f4}.st45{fill:#b97262}.st47{fill:#292945}.st48{fill:#e9e9e9}.st51{fill:#d4d3d3}.st52{fill:#292842}.st53{fill:#323672}.st55{fill:#bab4a7}.st58{fill:#575fc1}.st59{fill:#c2c1c1}.st61{fill:#4e54a2}</style><path style="fill:#f8f9fa" d="M1 0h500v500H1z"/><g transform="matrix(.1333 0 0 -.1333 0 1066.7)"><path d="M3078.7 5072c-19.99 0-40.09.78-60.42 2.67-77.65 7.25-156.37 10.87-233.63 21.21-177.33 23.74-354.74 25.14-533.36 25.14-70.92 0-141.84.66-212.75.66-103.24 0-206.44-1.4-309.48-8.3-160.77-10.76-321.81-12.47-482.88-12.47-24.26 0-48.53.04-72.79.09h-4.71c-89.16 0-177.96-5.49-266.98-9.37-89.43-3.9-176.4-10.3-265.31-10.3-8.02 0-16.05.05-24.1.17-88.84 1.22-224.11 27.1-287.48 93.07-37.63 39.19-32.53 133.48 5.15 171.27 16.46 16.51 43 29.44 64.68 37.3 61.76 22.41 124.6 22.46 189.13 22.93.79.01 1.57.01 2.35.01 44.54 0 90.84-8.97 133.52-21.44 38.83-11.34 78.5-15.32 117.99-22.38 32.31-5.78 66.88-8.55 101.07-8.55 22.25 0 44.35 1.18 65.54 3.45 57.34 6.16 115.08 9.02 172.59 13.87 12.03 1.02 24.03 2.23 35.99 3.58 6.68-4.31 13.82-8.01 20.94-11.48 25.79-12.55 53.38-25.24 82.24-36.61a231.959 231.959 0 0 1 34.38-23.94c26.86-15.26 61.84-19.79 96.64-19.79 26.93 0 53.76 2.71 76.64 5.27 49.52 5.52 97.99 20.31 142.15 43.37 28.43 14.84 54.05 32.35 50.1 66.46-1.14 9.87-3.36 19.17-6.67 27.77 23.04.4 46.08.58 69.13.65 7.64.02 15.29.03 22.93.03 44.96 0 89.93-.34 134.88-.34 36.54 0 73.07.11 109.59.11 125 0 249.89-1.28 374.54-12.62 38.63-3.51 77.01-1.39 115.1-9.75 38.24-8.39 76.85-16.04 116.03-17.54 19.36-.74 38.74-1.19 58.16-1.44l.45-.18c.04.06.09.12.13.18 14.03-.18 28.08-.25 42.13-.25 59.85 0 119.82 1.33 179.47 1.55 5.98.02 14.31.06 24.64.06 14.41 0 32.66-.07 53.73-.35 2.33-20.31 5.56-40.51 10.02-60.55l69.61-.42c4.8 19.55 9.84 39.04 15.14 58.46 185.72-7.5 442.07-34.17 416.99-127.44-12.83-47.71-87.39-109.82-129.23-129.8-52.84-25.25-110.62-40.2-168.79-45.23-48.99-4.24-96.78-8.79-145.19-8.79" style="fill:#f7e2e7"/><path class="st2" d="M404.82 6395c7.87 4.69 20.04 6.02 29.69 11.22 4.87 2.63 4.68 13.79 14.95 8.66 3.8-1.9 10.23-7.43 17.49-10.95 10.58-5.15 26.22-6.16 39.67-4.42 52.84 6.83 105.86 12.68 159.41 13.35 3.05.04 6.08-.02 8.78 1.55 4.84 2.81 5.91 7.99 7.52 13.01 7.48 23.31 15.62 46.09 27.44 67.68 10.55 19.26 22.62 37.43 40.78 50.11s41.12 17.82 61.32 9.35c15.14-6.35 27.1-18.34 28.91-34.86 4.48-40.96-35.15-67.83-59.8-94.1-23.32-24.85-43.25-45.93-67.36-68.48-2.98-2.79-5.81-5.38-9.76-6.77-3.95-1.38-8.36-1.1-12.48-.68-53.11 5.38-104.73 11.99-157.74 5.77-14.56-1.71-27.36 2.47-41.22-.92-8.85-2.16-14.08-10.29-22.35-13.67-8.26-3.39-17.96-6.71-26.86-6.52-19.62.41-40.36 18.71-45.27 38.01-3.2 12.59.37 18.78 6.88 22.66"/><path class="st3" d="M781.68 6440.4c-28.95 13.97-59.73 23.65-87.72 39.94 12.83 24.49 52.54 125.19 58.9 137.1 24.27 45.48 29.96 65.5 59.87 88.01 63.88 48.07 131.07 6.56 121.53-68.81-10.35-81.82-60.54-148.41-113.77-207.71-1.16-1.29-2.66-2.24-4.53-2.76s-4.57.41-6.67 1.46c-8.99 4.49-18.47 8.36-27.61 12.77"/><path class="st2" d="M762.87 5303c-10.52-.35-20.63 2-30.95 2.96-5.34 102.41 4.34 209.74 8.54 312.63 26.31-1.4 52.62-2.81 78.92-4.21a918.933 918.933 0 0 1-39.04-169.18c-1.21-9.1-15.97-142.15-17.47-142.2"/><path class="st4" d="M728.74 5325.8c-6.49 1.15-10.33-1.74-14.65-5.69-2.51-2.29-4.22-5.55-7.26-7.19-3.03-1.65-6.01-1.97-9.61-2.33-18.98-1.91-62.7-1.12-39.41-32.86 21.15-28.82 77.33-17.35 109.79-9.52 2.13.52 4.39.84 5.95 2.49 1.56 1.66 2.62 4.01 3.28 6.44 3.7 13.57 8.77 30.5-7.91 36.19-7.11 2.42-13.66-2.29-21.2.32-6.17 2.14-12.49 10.99-18.98 12.15M681.48 5556.9l160.95 3.12c43.4 206.61 81.62 414.3 114.61 622.82 2.56 16.17 5.05 32.98.39 48.67-8.81 29.67-40.59 46.61-71.02 52.29-47.29 8.84-134.18-3.46-158.43-52.64-25.63-51.96-21.33-144.77-27.54-202.19-16.97-156.69-23.33-314.53-18.96-472.07"/><path class="st2" d="M1069.7 5303c10.52-.35 20.62 2 30.95 2.96 5.33 102.41-4.35 209.74-8.54 312.63-26.31-1.4-52.62-2.81-78.93-4.21 18.32-54.99 31.4-111.73 39.05-169.18 1.21-9.1 15.97-142.15 17.47-142.2"/><path class="st4" d="M1103.8 5325.8c6.49 1.15 10.33-1.74 14.66-5.69 2.51-2.29 4.22-5.55 7.25-7.19 3.03-1.65 6.01-1.97 9.61-2.33 18.98-1.91 62.7-1.12 39.41-32.86-21.15-28.82-77.33-17.35-109.79-9.52-2.13.52-4.39.84-5.95 2.49-1.56 1.66-2.62 4.01-3.28 6.44-3.7 13.57-8.77 30.5 7.91 36.19 7.11 2.42 13.67-2.29 21.2.32 6.17 2.14 12.49 10.99 18.98 12.15M1151.1 5556.9l-160.95 3.12c-43.4 206.61-81.62 414.3-114.61 622.82-2.56 16.17-5.04 32.98-.39 48.67 8.81 29.67 40.6 46.61 71.03 52.29 47.29 8.84 134.18-3.46 158.43-52.64 25.63-51.96 21.33-144.77 27.54-202.19 16.96-156.69 23.32-314.53 18.95-472.07"/><path class="st3" d="M1013.5 6689.8c43.01-40.94 75.23-93.52 94.64-147.99 34.37-96.46 35.03-199.45 35.34-300.37.1-33.59.21-67.18.31-100.77.1-33.05-2.82-40.16-38.73-35.81-66.56 8.07-135.74 21.8-196.05 51.37-28.7 14.07-55.52 31.85-85.61 42.93-43.76 16.12-88.63 8.82-131.93 19.31 18.8 56.82 32.25 105.22 41.9 163.76 9.93 60.29 18.97 126.04 33.52 185.51 8.74 35.69 24.98 69.02 41.5 101.84 11.11 22.06 22.87 44.63 41.73 60.57 56.82 48.04 120.53.44 163.38-40.35"/><path class="st2" d="M858.32 6831.3c8.12-17.76 21.4-32.55 32.24-48.79 10.54-15.8 14.33-30.1 17.13-48.42 2.02-13.23 6.75-23.57 22.69-25.84 30.06-4.27 21.46 20.57 28.29 38.64 7.8 20.65 24.45 36.97 36.08 55.41 33.61 53.27 24.02 158.56-45.84 181.03-76.39 24.56-115.24-98.15-90.59-152.03"/><path class="st4" d="M980.08 6882.8c8.67-.35 18.21-1.04 24.64-6.86s5.73-18.53-2.76-19.9c-7.7-1.24-17.67 6.79-22.37.92-2.75-3.42-.33-8.44 1.75-12.45 8-15.38 10.4-33.21 6.66-49.59 3.17-2.93 8.11.12 10.89 3.17 13.81 15.17 24.6 32.89 31.67 52.01 2.77-4.63 6.84-8.56 11.64-11.27-2.88 7.19-1.06 15.05.72 22.38 6.53 26.95 10.97 58.52-7.85 80.54-10.07 11.78-25.38 18.56-40.78 21.41s-31.09 2.16-46.61 1.46c-6.64-.3-14.82-1.74-16.41-7.88 14.56-5.84 29.63-17.21 36.92-31 2.25-4.23 11.01-42.91 11.89-42.94"/><path class="st4" d="M949.31 6947.6c.53-.39 1.06-.77 1.56-1.17 6.6-5.02 12.79-11.13 20.77-13.36 11.52-3.21 23.88 2.34 35.22-1.58 12.67-4.38 21-19.53 30.25-28.5 15.17-14.7 33.97-25.52 54.16-31.66 10.31-3.14 20.99-5.06 31.75-5.67 4.88-.28 11.41-1.2 16.16.08 6.38 1.72 6.16 4.62-.64 6.8-21.33 6.84-28.01 36.79-26.4 56.64 1.27 15.68 6.68 32.05.7 46.6-4.57 11.11-14.37 16.85-23.85 23.2-10.45 7.01-21.79 5.12-33.66 8.49-12.38 3.52-22.47 13.27-35.1 15.76-13.34 2.62-26.67-3.29-40.02-5.88-11.03-2.14-22.49-2-33.46.41-9.83 2.17-19.42 6.14-29.49 6.05-14.85-.14-28.5-9.41-37.16-21.46-12.25-17.05-20.17-46.23-15.86-68.68-.67 3.48 11.05 16.1 13.47 18.82 5.09 5.73 11.23 11.1 19 12.03 17.61 2.1 38.46-6.65 52.6-16.92"/><path class="st5" d="M364.54 6257.1s16.42-78.02 5.46-113.33l29.86-.23-9.64 125.43-25.68-11.87"/><path class="st5" d="M398.43 6157.2c-8.36-1.32-16.76-2.28-25.2-2.86-1.36-.1-1.1-2.32.25-2.22a292.1 292.1 0 0 1 25.2 2.86c1.34.22 1.09 2.44-.25 2.22M397.09 6169c-7.18-.98-14.31-1.95-22.5-3.07-1.34-.18-1.1-2.41.25-2.22 7.49 1.02 14.99 2.04 22.49 3.07 1.35.18 1.11 2.4-.24 2.22M395.94 6179.1c-5.54-1.65-8.95-2.64-21.51-2.5-1.36.01-1.1-2.24.25-2.22 7.27.08 14.42.91 21.51 2.51 1.31.29 1.07 2.51-.25 2.21M396.48 6193.4c-7.24-1.74-14.53-2.99-21.93-3.77-1.35-.14-1.1-2.36.25-2.22 7.4.77 14.69 2.03 21.93 3.77 1.3.32 1.07 2.54-.25 2.22M394.48 6206.2a353.01 353.01 0 0 0-21.5-2.57c-1.35-.12-1.11-2.34.25-2.22 7.19.64 14.36 1.5 21.5 2.57 1.34.2 1.1 2.42-.25 2.22M392.49 6218.8c-6.92-1.3-13.88-2.33-20.88-3.1-1.35-.15-1.1-2.37.25-2.22 7 .76 13.96 1.8 20.89 3.1 1.33.26 1.08 2.48-.26 2.22M391.39 6233.3c-7.42-1.59-14.88-2.86-22.4-3.84l-.53-.25.04-.26c.15-.54.27-1.09.39-1.64l.36-.06c7.52.96 14.98 2.24 22.4 3.83 1.31.28 1.07 2.51-.26 2.22M390.84 6247.7c-7.32-1.07-14.63-2.13-21.94-3.19-1.34-.19-1.1-2.42.25-2.22 7.32 1.06 14.63 2.13 21.94 3.19 1.34.19 1.09 2.41-.25 2.22"/><path class="st6" d="m890.9 6024-533.47-44.71c-.68-.06-1.28.46-1.34 1.16l-7.56 89.09c-.06.7.45 1.31 1.13 1.36l533.47 44.72c.68.05 1.28-.46 1.34-1.16l7.56-89.09c.06-.7-.45-1.31-1.13-1.37"/><path class="st4" d="m451.39 5987.2-56.08-4.7-7.77 91.63 56.07 4.7 7.78-91.63M476.8 5989.3l-12.47-1.04-7.77 91.63 12.47 1.04 7.77-91.63M520.29 6039.1c.76-8.97-5.74-16.82-14.53-17.56s-16.52 5.94-17.28 14.9 5.74 16.83 14.53 17.56c8.78.74 16.52-5.93 17.28-14.9"/><path class="st7" d="m887.6 6115-533.47-44.71c-.68-.06-1.28.46-1.34 1.16l-6.06 71.38c-.06.69.45 1.31 1.13 1.36l533.48 44.71c.68.05 1.28-.46 1.34-1.16l6.06-71.37c.05-.7-.46-1.31-1.14-1.37"/><path class="st8" d="m416.55 6128.9 2.72-32.03 15.65 15.68-18.37 16.35zM438.26 6127.6l2.19-25.86 12.64 12.66-14.83 13.2zM384.26 6072.8l-2.43-.2-6.27 73.9 2.43.2 6.27-73.9M395.66 6073.8l-2.43-.2-6.27 73.9 2.43.2 6.27-73.9M487.68 6969.1l-37.99-14.06.51 9.13c1.54 27.49-3.23 60.61-11.21 87.04l1.57 1.65 34.84 30.07 12.28-113.83"/><path d="m704.79 6983.8-220.38-9.73-35.65-18.65 238.67 10 17.36 18.38" style="fill:#9eb79c"/><path class="st10" d="M448.13 6957.8c6.41 1.73 12.46 5.97 18.54 9.33 5.69 3.16 11.37 6.3 17.04 9.45.9.5 1.6-2.47.7-2.97L466 6963.4c-5.76-3.2-11.47-7.07-17.55-8.71-.95-.27-1.26 2.85-.32 3.11M475.44 7078.7c-12.76-8.32-25.1-18.53-36.94-30.66-1.23-1.26-2.82 2.77-1.58 4.04 12.01 12.3 24.51 22.71 37.46 31.15 1.34.86 2.39-3.66 1.06-4.53"/><path class="st11" d="m695.63 7091.5-222.04-8.64 3.45-24.44c2.79-19.77 4.79-39.63 6-59.38l1.38-24.95 220.38 9.73.08 1.48c1.85 34.76-1.35 71.69-9.25 106.2"/><path class="st7" d="M507.15 7081.6c-.65 3.11-5.49 2.55-4.83-.59 6.83-32.74 9.26-66.04 7.15-99.41-.2-3.18 4.62-3.94 4.82-.75 2.14 33.8-.22 67.58-7.14 100.75M669.18 7086.7c-.68 3.1-5.51 2.5-4.83-.63 7.11-32.68 9.83-65.96 8.01-99.35-.17-3.17 4.65-3.9 4.83-.71 1.84 33.83-.81 67.59-8.01 100.69"/><path class="st2" d="m381.79 6822.6-85.22-21.73 1.81 12.34c5.45 37.14-2.67 81.4-18.39 116.42l3.59 2.34 79.43 43.07 18.78-152.44"/><path class="st4" d="m863.96 6858.3-489.05-29.26-80.39-27.75 529.6 30.98 39.84 26.03"/><path class="st3" d="M293.31 6804.6c14.33 2.79 28.07 8.95 41.76 13.92 12.85 4.67 25.67 9.32 38.47 13.97 2.03.73 3.36-3.21 1.33-3.95-13.82-5.02-27.67-10.06-41.54-15.1-13-4.72-25.95-10.37-39.54-13.02-2.14-.41-2.6 3.77-.48 4.18M362.8 6969.4c-28.89-12.15-56.98-26.81-84.12-44.01-2.81-1.78-6.04 3.53-3.2 5.33 27.54 17.45 55.99 32.39 85.31 44.71 3.02 1.26 5.02-4.77 2.01-6.03"/><path d="M851.66 7002.7 359 6974.78l5.82-32.67c4.7-26.43 7.68-53.03 8.88-79.56l1.21-33.5 489.05 29.26.28 2c6.7 46.96 2.35 96.48-12.58 142.39" style="fill:#3b3387"/><path class="st13" d="m843.91 6186.6-451.44-37.84-9.19 108.41 451.44 37.84.56-1.45a187.783 187.783 0 0 0 8.63-106.96"/><path class="st3" d="m501.71 6157.9-63.08-5.29-9.19 108.41 63.08 5.29 9.19-108.41"/><path class="st2" d="m375.11 6372-84.8 5.31 3.85-9.31c11.58-27.99 11.57-63.17 2.84-92.04l3.78-1.34 82.47-23.15-8.14 120.53"/><path class="st4" d="m864.28 6411.5-494.64-45.47-81.18 10.66 530.03 50.21 45.79-15.4"/><path class="st3" d="M287.89 6374c14.02-.22 28.09-3.14 41.95-5.14 13.03-1.89 26.06-3.77 39.09-5.66 2.06-.3 2.66 2.95.59 3.26-14.07 2.04-28.14 4.08-42.21 6.11-13.15 1.9-26.39 4.53-39.69 4.74-2.1.03-1.8-3.27.27-3.31M382.09 6255.7c-29.5 5.74-58.56 13.48-87.04 23.26-2.94 1.01-5.06-3.46-2.09-4.48 28.88-9.92 58.31-17.84 88.24-23.66 3.09-.6 3.97 4.28.89 4.88"/><path d="m874.37 6292.6-494.98-41.49-.03 25.9a392.6 392.6 0 0 1-5.12 62.75l-4.6 26.23 494.64 45.47.62-1.58a205.884 205.884 0 0 0 9.47-117.28" style="fill:#474ebb"/><path class="st11" d="m815.82 6415-469.09-39.32c-.68-.06-1.28.46-1.34 1.16l-9.32 109.82c-.06.7.45 1.31 1.13 1.36l469.09 39.32c.68.05 1.28-.47 1.34-1.16l9.32-109.82c.06-.69-.45-1.3-1.13-1.36"/><path class="st7" d="m864.38 6612.4-579.93-48.61c-.68-.06-1.28.46-1.34 1.16l-6.74 79.49c-.06.69.45 1.31 1.13 1.36l579.92 48.61c.69.06 1.28-.46 1.35-1.16l6.74-79.49c.06-.69-.45-1.3-1.13-1.36"/><path class="st6" d="m764.48 6685.1-369.66-30.98-13.74 162 369.66 30.98 2.11-8.91a490.611 490.611 0 0 0 12.21-143.96l-.58-9.13"/><path class="st8" d="m509.06 6664.7-73.35-6.15-13.56 159.85 73.35 6.15 13.56-159.85"/><path class="st6" d="m492.63 6663.4-41.18-3.45-13.56 159.85 41.19 3.45 13.55-159.85"/><defs><path id="r" d="M545.11 6822.8h50.45v5.5h-50.45z"/></defs><clipPath id="q"><use xlink:href="#r"/></clipPath><g style="clip-path:url(#q)"><path d="m381.9 6806.4-.74 8.77.74-8.77" style="fill:#242440"/><path class="st18" d="M759.51 6804.9h-.91l-261.52 1.06-1.58 18.65-73.35-6.15 1.04-12.2-41.28.16-.74 8.77 369.63 30.98h.03l8.68-41.27"/><path d="m497.08 6805.9-16.55.07-1.46 17.2-41.19-3.45 1.15-13.59-15.86.06-1.04 12.2 73.35 6.15 1.6-18.64" style="fill:#cfbab9"/><path class="st18" d="m480.53 6806-41.49.17-1.15 13.59 41.19 3.45 1.45-17.21"/></g><defs><path id="p" d="M544.58 7031.2h6.7v6.83h-6.7z"/></defs><clipPath id="k"><use xlink:href="#p"/></clipPath><g style="clip-path:url(#k)"><path d="M548.07 7009h-.14c-12.91.04-23.89 10.17-25.03 23.53-.06.72-.09 1.44-.09 2.15v.18c.04 13.11 9.9 24.21 22.95 25.31.7.06 1.39.09 2.08.09 12.95 0 23.98-10.14 25.12-23.53.06-.68.09-1.35.09-2.02v-.44c-.11-13.06-9.94-24.08-22.95-25.18-.68-.06-1.36-.08-2.03-.09" style="fill:#6e7fdd"/></g><path class="st13" d="M337.8 6610.4c-5.52 5.88-11.7 10.75-18.6 14.83-2.72 1.61-4.79-2.89-2.09-4.48 5.88-3.47 11.11-7.65 15.91-12.5-4.24-5.92-8.83-11.5-13.87-16.74-2.19-2.28 1.55-5.48 3.73-3.21 5.58 5.8 10.62 11.97 15.22 18.61.82 1.17.68 2.44-.3 3.49M365.94 6613.8c-3.74 4.84-10.28 8.71-14.99 12.57-2.45 2.01-5.59-1.78-3.13-3.79 3.98-3.25 9.56-6.53 13.15-10.48-1.65-2.44-4.59-4.82-6.39-6.82-2.39-2.66-4.78-5.31-7.18-7.96-2.12-2.35 1.61-5.56 3.73-3.21 2.87 3.19 5.74 6.37 8.61 9.56 2.12 2.35 5.09 4.7 6.41 7.64.35.77.33 1.79-.21 2.49M379.48 6634.2c-2.42 2.05-5.56-1.74-3.14-3.79 1.45-1.24 4.48-5.66 1.25-6.58-3.01-.86-1.31-5.52 1.7-4.67 3.01.86 4.66 3.84 4.52 6.92-.14 3.2-1.96 6.12-4.33 8.12M404.07 6612.9c-1.74-1.88-4.68-2.21-6.5-.3-3.75 3.94.8 9.57 5.43 7.52.49-.22.95-.25 1.37-.18 1.3-2.22 1.59-5-.3-7.04m3.52 10.97c-.77.94-1.83 1.09-2.73.8-4.24 1.76-9.34.5-12.01-3.39-2.64-3.85-1.74-9.32 1.58-12.48 3.67-3.49 9.33-3.08 12.87.38 4.02 3.94 3.77 10.46.29 14.69M753.5 6409.6l-5.59-.47-9.57 112.78 5.59.47 9.57-112.78M776.15 6411.5l-5.59-.47-9.57 112.78 5.59.47 9.57-112.78"/><defs><path id="o" d="M582.19 6266.4h61.21v5.44h-61.21z"/></defs><clipPath id="g"><use xlink:href="#o"/></clipPath><g style="clip-path:url(#g)"><path class="st23" d="M842.32 6271.4c-.62 2.46-1.29 4.9-2.01 7.34.75-2.5 1.48-5.09 2.01-7.34"/><path d="m383.99 6248.7-.73 2.74.01.01.49.04.23-2.79" style="fill:#a6a7a9"/><path d="m383.99 6248.7-.23 2.8 28.04 2.35 18.12 1.52.37-4.38-46.3-2.29m109.56 5.42-.55 6.54 343.8 28.81s1.83-5.11 3.51-10.69c.72-2.44 1.39-4.88 2.01-7.34.01-.04.02-.07.02-.11l-348.79-17.21" style="fill:#c5c2cf"/><path class="st23" d="m430.29 6251-.37 4.38 63.08 5.29.55-6.54-63.26-3.13M383.26 6251.4v.01h.02c-.01 0-.02-.01-.02-.01"/><path d="m383.25 6251.4 28.55 2.39-28.04-2.35-.49-.04h-.02" style="fill:#3f46a6"/></g><path class="st4" d="m841.18 6529.3-579.93-48.61c-.68-.06-1.28.46-1.34 1.16l-6.74 79.49c-.06.69.45 1.31 1.13 1.36l579.93 48.61c.68.06 1.28-.46 1.34-1.16l6.74-79.49c.06-.69-.45-1.31-1.13-1.36"/><path class="st13" d="m334 6511.2-8.77-.74-2.85 33.55 8.77.74 2.85-33.55M361.55 6513.5l-8.77-.74-2.85 33.55 8.77.74 2.85-33.55"/><path class="st8" d="m866.45 6614.1-581.54-49.55c-1.71-.15-3.12 1.35-2.9 3.08l582.32 54.25 2.12-7.78"/><path class="st13" d="m864.02 6617.4-581.54-49.55c-1.71-.15-3.12 1.35-2.9 3.08l582.32 54.25 2.12-7.78"/><path class="st5" d="M355.77 6800.8s26.05-101.26 9.09-145.45l29.97-1.24-13.67 161.09-25.39-14.4"/><path class="st2" d="M801.29 6274.9c.36 1 .73 2.02 1.33 2.84 5.62 7.66 13.13 8.3 20.61 14.11 3.34 2.59 2.39 13.41 10.72 10.51 3.07-1.07 10.24-4.76 16.77-7.11 9.52-3.43 23.66-2 34.68 1.19 14.81 4.3 30.38 9.19 44.27 15.61 14.54 6.71 28.72 14.19 42.56 22.22 11.54 6.7 29.84 14.38 38.56 24.57 14.75 17.24-2.33 59.26-4.28 80.79-2.02 22.44-.06 88.53 30.23 90.4 49.62 3.06 50.4-44.09 52.62-82.05 1.39-23.69 1.29-47.83-.84-71.48-2.98-33.12-24.45-52.09-52.81-67.77-30.07-16.62-60.81-32.91-93.86-42.8-16.06-4.81-31.87-6.25-48.25-8.9-16.2-2.61-14.13-9.68-27.71-15.6-7.58-3.31-14.69-8.11-22.78-9.96-14.51-3.31-26.14 6.75-37.17 14.53-2.75 1.94-4.61 3.24-6.03 6.05-2.32 4.57-1.42 9.46-.69 14.34.43 2.91 1.09 5.78 2.07 8.51"/><path class="st3" d="M1088.5 6435.2c-28.05-5.44-56.1-10.88-84.16-16.31 1.8.35-32.46 125.78-34.25 133.32-6.81 28.77-13.65 58.62-7.82 87.6 12.45 61.88 42.27 77.11 79.85 12.09 35.47-61.37 91.07-134.83 80.06-204.68-.24-1.52-.53-3.11-1.48-4.3-1.32-1.65-3.57-2.15-5.64-2.55l-26.56-5.17"/><path class="st11" d="M1785.9 6646.7c40.75-24.8 86.33-41.62 133.42-49.24 8.41 38.59 17.31 77.08 26.71 115.45 4.05 16.54 8.28 33.34 16.38 48.44 4.31 8.03 20.49 22.67 15.46 33.09-8.82 18.25-47.18-1.95-58.14-8.01-28.58-15.82-54.72-37.83-77.19-61.38-5.43-5.68-61.62-75.32-56.64-78.35"/><path class="st2" d="m2178.4 5738.6 2.6-157.96c-1.07-43.83 2.88-87.51 5.55-131.2 2.48-40.57-5.7-82.4 13.55-120 6.04-11.79 18.88-20 28.66-6.39 7.53 10.5 4.07 28.66 5.93 40.85 13.98 91.57 40.01 180.87 52.99 272.61 13.59 96.11-23.59 93.57-109.28 102.09"/><path class="st4" d="m2187.4 5356.5-10.15-26.35 49.97-43.99 45.78-1.89 14.81 24.16-61.57 53.54-38.84-5.47"/><path class="st2" d="m2066.5 5737.1-28.81-155.33c-9.99-69.49-32.69-137.16-42.68-206.65-2.29-15.98-1.14-33.46-7.81-48.53-6.53-14.74-19.32-15.33-30.61-5.32-15.12 13.4-8.14 37.35-7.87 55.65 1.85 121.94-7.74 242.17-10.05 364.31-.03 1.6.04 3.44 1.28 4.46 1.01.83 2.44.81 3.74.72 11.86-.79 122.19-12.66 122.81-9.31"/><path class="st4" d="m1948.4 5350-15.84-23.38 38.76-54.13 44.17-12.17 19.87 20.19-47.9 66.05-39.06 3.44M2341.2 5638.1l-21.55 225.83-10.39 146.73-34.94 119.84-188.68 29.28-233.27-39.98-11.21-45.33 44.89-419.51 225-16.86-3.05 261.1 34.71-161.84-1.47-99.27h199.96"/><path class="st27" d="M1901.9 6571.8c-.32-7.63-.53-15.25-.66-22.85-2.73-154.9 5.81-311.78 6.79-467.97a1733.31 1733.31 0 0 0 241.82 20.64c6.66.1 21.73-1.5 38.92-3.1 31.14-2.9 69.23-5.79 76.87 1.42 16.1 15.18-1.6 12.32-.43 32.11 1.53 25.59-10.77 46.55-6.13 76.88 5.46 35.64 16.32 70.9 22.58 106.53a1555.907 1555.907 0 0 1 22.54 216.3c2.18 64.31-.16 131.01-27.81 189.12-68.2 143.28-288.08 140.7-348.42-8.91-17.88-44.31-24.08-92.28-26.07-140.17"/><path class="st11" d="m2150 6772.8-59.72-108.83 9.36-329.84 4.32-152c.5-17.59.93-35.19 1.49-52.78.25-7.9-1.92-21.19 2.58-27.63 7.49-10.73 30.24-10.67 47.48-10.6 5.25.02 9.99.04 13.63-.25 24.31-1.92 48.98-3.91 71.88-12.3 15.25-5.59 29.7-14 45.78-16.27 3.61-.5 7.65-.58 10.49 1.72 3.17 2.56 3.71 7.11 4.01 11.18 5.59 75.48 5.71 153.29 9.89 229.58 3.29 59.99 11.42 120.47 8.56 180.56-2.95 61.81-12.62 123.28-24.44 183.95-6.99 35.91-15.22 72.53-34.99 103.31-22.41 34.9-54.14 48.89-93.21 56.75-13.8 2.78-65.17 22.2-56.6-9.17 4.26-15.53 29.02-34.92 39.49-47.38M2020.1 6762.5l59.72-108.83c-1.25 0-7.57-266.79-8.08-284.8-1.94-68.48-3.89-136.96-5.83-205.45-.54-19.03 2.02-41.33-1.71-60.04-5.2-26.12-32.7-20.98-56.13-23.09-51.26-4.62-105.22-13.37-156.62-10.78-14.83.75 4.69 310.16 4.66 339.03-.1 103.85-21.52 219.06 31.22 313.24 15.35 27.4 42.41 71.33 72.27 84.86 27.83 12.6 67.67 14.75 97.89 21.81l1.57-19.58-38.96-46.37"/><path class="st4" d="M2149.7 7026.2c9.4-16.48 13.93-35.46 14.77-54.41.22-5.04.57-10.86 4.64-13.83 4.36-3.19.53-10.17 3.85-5.92 3.32 4.26 14.58 19.06 15.09 24.44 1.19 12.6 1.17 25.31-.05 37.9-1.07 10.95-3.3 22.4-10.47 30.74-4.25 4.95-9.92 8.43-15.51 11.81-8.1 4.89-16.44 9.83-25.74 11.56-16.03 2.99-25.86-2.76-11.72-13.94 10.13-8.02 18.69-17.07 25.14-28.35"/><path class="st2" d="M2049.5 6811.2c.1-7.76-1.48-15.8 5.36-21.82 3.29-2.89 7.74-4.05 12.07-4.74a74.9 74.9 0 0 1 33.59 2.38c4.45 1.37 8.89 3.23 12.25 6.45 3.97 3.81 4.17 7.43 4.36 12.42.23 5.85 1.4 11.79 2.17 17.72 1.67 12.97 2.42 26.04 2.8 39.11 19.21 3.29 41.8 9.51 48.36 29.63 2.07 6.34 2.14 13.23 2.19 19.97.2 27.88.41 55.75.61 83.63.07 9.64.09 19.58-3.21 28.52-5.79 15.7-20.52 25.06-34.95 30.94-36.84 15.03-79.77 14.43-113.78-6.94-9.05-5.69-17.59-13.01-22.8-22.94-8.04-15.31-7.03-34.22-5.78-51.89 1.16-16.31 2.31-32.62 3.46-48.93 1.32-18.76 4.14-40.35 18.71-50.26 7.73-5.26 17.73-6.23 24.39-13.04 11.63-11.88 6.09-29.63 9.53-44.03.49-2 .64-4.08.67-6.18"/><path class="st4" d="M2109.9 6884.2c-10.01-6.73-21.04-7.09-32.19-3.73-4.74 1.43-2.73 9.39 2.02 7.96 9.24-2.78 17.97-2.71 26.3 2.89 4.19 2.81 8.04-4.32 3.87-7.12m69.53 39.25c-.31 5.17-2.57 20.32-10.34 10.8-2.03-2.49-2.54-6.01-2.66-9.33s.03-6.73-1.02-9.85c-2.4-7.17-10.32-10.42-17.39-10.29-2.81.05-5.67.51-8.16 1.92-2.41 1.37-4.32 3.56-6.19 5.7-4.53 5.2-9.06 10.4-13.6 15.6-7.79 8.94-23.24 5.07-33.74 3.7-12.1-1.58-24.21-5.23-34.09-13.19-1-.8-1.97-1.64-2.95-2.49-2.38-2.05-4.78-4.09-7.55-5.44-9.35-4.55-20.91.2-27.46 8.71-3 3.9-5.8 8.92-10.46 9.57-3.65.51-7.2-2.11-9.07-5.52-1.87-3.42-2.37-7.48-2.63-11.44-.92-14.4 1.06-29.25 7.31-42.02 13.53-27.69 39.7-31.09 66-30.47 10.39.24 20.79.49 31.18.74 19 .45 39.09 1.24 55.1 12.28 14.12 9.75 22.52 26.31 25.96 43.67 1.78 8.97 2.31 18.22 1.76 27.35M2183.4 7074.5c1.83 6.75 3.19 13.64 4.05 20.59-6.43-2.26-13.44-2.85-20.16-1.73-.02 4.01-.03 8.01-.05 12.02-.03 3.34-45.13 5.67-48.8 5.97-34.31 2.81-65.68 5.49-96.71-12.92-26.5-15.73-43.49-39.22-47.56-69.79-3.89-29.2 5.67-67.35 22.56-91.59-.09 7.78-4.57 26.12-2.74 33.51 1.13 7.4 3.68 14.54 7.21 21.14 7.05 13.16 17.97 24.24 30.58 32.15 20.11 12.6 43.49 19.26 66.84 22.52 21.39 2.98 47.46 5.73 68.6.06 10.16-2.72 11.84-5.27 18 4.98 1.09 1.81 9.69 22.92 8.84 22.93-3.53.05-7.1.1-10.66.16"/><path class="st3" d="m2852 6556.9-766.23-76.17-766.23 76.17c-21.56 2.14-39.9-15.68-38.56-37.48l31.97-758.1c1.07-17.32 14.37-31.32 31.49-33.08 126.07-12.97 618.06-62.08 673.22-68.35 2.79-.32 5.23-1.96 6.52-4.48 3.7-7.22 17-21.98 61.59-21.98s57.88 14.77 61.59 21.98c1.29 2.51 3.72 4.16 6.51 4.48 55.16 6.27 547.16 55.39 673.22 68.35 17.13 1.76 30.43 15.75 31.5 33.08l31.97 758.1c1.33 21.8-17 39.62-38.56 37.48"/><path class="st7" d="m2852 6569.4-766.23-76.17-766.23 76.17c-21.56 2.14-39.9-15.68-38.56-37.48l31.97-758.1c1.07-17.32 14.37-31.32 31.49-33.08 126.07-12.96 618.06-62.08 673.22-68.35 2.79-.32 5.23-1.96 6.52-4.48 3.7-7.21 17-21.98 61.59-21.98s57.88 14.77 61.59 21.98c1.29 2.51 3.72 4.16 6.51 4.48 55.16 6.27 547.16 55.39 673.22 68.35 17.13 1.76 30.43 15.76 31.5 33.08l31.97 758.1c1.33 21.8-17 39.62-38.56 37.48"/><path class="st28" d="M2088.7 6498.8c-353 236.07-708.89 129.2-708.89 129.2v-819.94c492 99.82 706-106.95 706-106.95s214.01 206.77 706.01 106.95V6628s-350.12 106.87-703.12-129.2"/><path class="st29" d="M1379.8 6628s-15.79-62.39-70.64-99.82l35.32-783.4s35.32 27.63 35.32 63.28V6628M2791.8 6628s15.79-62.39 70.64-99.82l-35.32-783.4s-35.32 27.63-35.32 63.28V6628"/><path class="st30" d="M1344.5 5744.7s490.75 112.3 710.15-85.56h31.17v41.89s-221.48 210.33-706 106.95l-35.32-63.28"/><path class="st30" d="M2827.1 5744.7s-490.75 112.3-710.16-85.56h-31.16v41.89s221.48 210.33 706 106.95l35.32-63.28"/><path class="st31" d="M1720.1 6678.1c-42.53 4.21-84.73 5.91-124.93 6.31-18.53.18-170.9-5.62-170.9-10.81v-825.06c0 5.22 152.72 11.01 171.3 10.81 131.17-1.39 278.57-25.4 394.56-89.44 19.38-10.7 97.98-52.8 97.98-82.38v803.03c0 16.37-6.1 32.18-17.31 44.18-88.07 94.25-220.9 130.51-350.7 143.36"/><path class="st27" d="M2456.1 6678.1c42.53 4.21 84.73 5.91 124.92 6.31 18.53.18 170.9-5.62 170.9-10.81v-825.06c0 5.22-152.72 11.01-171.3 10.81-131.18-1.39-278.57-25.4-394.56-89.44-19.38-10.7-97.98-52.8-97.98-82.38v803.03c0 16.37 6.1 32.18 17.31 44.18 88.08 94.25 220.92 130.51 350.71 143.36"/><defs><path id="n" d="M2375.8 6119.5h88.51v132.92h-88.51z"/></defs><clipPath id="f"><use xlink:href="#n"/></clipPath><path class="st31" d="M2088.1 5687.6v803.03c0 16.37 6.1 32.18 17.31 44.18 88.07 94.26 220.9 130.52 350.7 143.37 42.53 4.21 84.73 5.91 124.92 6.31.29 0 .61.01.95.01 22.24 0 169.95-5.71 169.95-10.82v-262.51c-21.05-123.68-23.89-261.5-1.94-373.77.65-.06 1.29-.11 1.94-.16v-188.63c0 5.13-147.7 10.81-170.27 10.81h-1.03c-26-.27-52.64-1.44-79.53-3.63-335.45 145.69-401.37 502.35-413 595.13V5687.6m97.98 82.38.62.34c-.21-.11-.42-.23-.62-.34m.82.45c.14.08.28.15.42.23-.14-.07-.28-.15-.42-.23m.65.37c.14.07.27.15.41.22-.14-.08-.27-.15-.41-.22m.64.34c.17.09.35.19.52.28-.18-.09-.35-.18-.52-.28m.67.37c.18.1.36.2.54.29-.17-.09-.36-.19-.54-.29m.82.44c.11.06.23.12.34.18-.12-.06-.23-.12-.34-.18m.65.35c.1.05.2.11.3.16-.1-.05-.2-.1-.3-.16m.62.34c.1.05.19.1.3.16-.1-.05-.2-.11-.3-.16m.97.52c.06.04.13.07.19.11-.06-.04-.13-.08-.19-.11m.6.32c.06.03.13.07.19.1-.07-.03-.13-.07-.19-.1m.61.32c.06.03.11.06.17.09-.06-.03-.12-.06-.17-.09m.62.33c.01 0 .01 0 .01.01-.01-.01-.01 0-.01-.01" style="clip-path:url(#f)"/><defs><path id="m" d="M2267.1 6018.3h55.07v101.78h-55.07z"/></defs><clipPath id="e"><use xlink:href="#m"/></clipPath><g style="clip-path:url(#e)"><path d="M2108.9 5719.4c.31.28.61.55.93.82-.31-.26-.62-.54-.93-.82" style="fill:#5a63ca"/><path d="M2109.8 5720.2c24.75 21.83 63.44 42.62 76.25 49.69-12.81-7.07-51.49-27.86-76.25-49.69m76.88 50.03c.07.04.13.07.2.11-.07-.03-.14-.07-.2-.11m.62.34c.08.04.16.09.23.13-.08-.04-.15-.08-.23-.13m.64.36c.07.04.15.09.22.12-.07-.04-.14-.08-.22-.12m.75.4c.05.03.11.06.16.08-.06-.02-.11-.05-.16-.08m.7.38.27.15-.27-.15m.61.33.31.17c-.1-.05-.21-.11-.31-.17m.61.34c.11.06.22.11.32.17-.11-.06-.21-.12-.32-.17m.62.33c.22.12.45.24.67.35-.23-.11-.45-.23-.67-.35m.86.46c.14.07.27.14.41.22-.14-.07-.27-.14-.41-.22m.6.32c.13.07.28.15.42.22-.14-.07-.28-.15-.42-.22m.59.32.45.24c-.15-.09-.31-.17-.45-.24m.46.24c91.51 48.58 201.49 73.05 307.34 81.66l.02-.01v-.03c-105.86-8.61-215.85-33.04-307.36-81.62" style="fill:#d6cfbf"/><path d="M2088.1 5687.6c0 9.78 8.6 20.94 20.8 31.86h.01c-12.21-10.92-20.81-22.08-20.81-31.86" style="fill:#c3bcae"/><path d="M2088.1 5687.6c0 9.78 8.6 20.94 20.8 31.86-12.21-10.93-20.8-22.08-20.8-31.86" style="fill:#bbb4a7"/><path d="M2088.1 5687.5v763.34c11.63-92.78 77.55-449.44 413.03-595.14-105.88-8.6-215.86-33.07-307.37-81.65l-.01-.01-.45-.24c-.06-.03-.11-.06-.17-.09-.14-.07-.28-.15-.42-.22-.06-.03-.13-.07-.19-.1-.13-.07-.27-.14-.41-.22-.06-.03-.13-.07-.19-.11-.22-.12-.45-.24-.67-.35-.1-.06-.2-.11-.3-.16-.11-.06-.22-.12-.32-.17s-.2-.11-.3-.16l-.31-.17c-.11-.06-.23-.12-.34-.18l-.27-.15c-.18-.1-.36-.2-.54-.29-.05-.03-.11-.06-.16-.08-.17-.09-.35-.19-.52-.28-.07-.04-.15-.08-.22-.12-.14-.07-.27-.15-.41-.22-.08-.04-.15-.09-.23-.13-.14-.08-.28-.15-.42-.23-.07-.04-.13-.07-.2-.11l-.62-.34c-12.98-7.16-52.47-28.39-77.18-50.52-12.22-10.96-20.81-22.11-20.81-31.9" style="fill:#eae9e9"/></g><path class="st2" d="M3443 6482.8c-1.11.49-2.28.99-3.45 1.14-10.92 1.38-17.45-4.46-28.34-6.13-1.71-.26-3.85.73-6.1 1.73-4.12 1.84-8.61 3.67-11.32-2.38-1.54-3.45-4.15-12.44-7.4-19.82-4.69-10.76-17.19-21.55-28.68-28.29-45.15-26.48-96.26-39.95-147.23-51.67-2.9-.67-5.95-1.32-8.83-.58-5.17 1.34-8.16 6.57-10.68 11.28a400.38 400.38 0 0 1-40.82 61.93c-13.82 17.23-29.55 33.69-49.44 43.28-19.9 9.6-44.74 11.28-63.5-.38-14.05-8.74-23.41-24.59-24.26-41.12-2.12-40.97 51.85-67.03 80.07-88a711.353 711.353 0 0 1 84.01-53.74c3.61-1.97 7.36-3.94 11.45-4.33 4.35-.41 8.66 1.01 12.8 2.42 53.35 18.22 104.78 41.05 156.03 65.04 14.08 6.59 22.92 19.75 35.98 25.72 4.86 2.23 10.05 2.13 15.27 2.03 3.72-.07 7.4-.14 11.02.63 8.57 1.84 19.39 6.44 26.66 11.3 14.37 9.6 15.17 27.44 17.42 42.95.54 3.87.94 6.47-.3 9.91-2.01 5.6-6.83 8.74-11.52 12.03-2.78 1.96-5.72 3.69-8.84 5.05"/><path class="st13" d="M3088.8 6379.1c26.97 19.32 53.94 38.64 80.91 57.95-1.73-1.24-80.17 127.74-85.1 135.26-18.82 28.69-38.55 58.29-67.64 76.49-62.11 38.88-140.57-17.25-116.7-89.2 25.91-78.11 83.83-152.89 151.51-199.34 1.47-1.01 3.03-2.04 4.81-2.19 2.45-.2 4.66 1.29 6.66 2.72 8.52 6.11 17.04 12.21 25.55 18.31"/><path class="st2" d="m3026.9 5376-1.18-83.27 49.34-.66 1.31 92.32-49.47-8.39"/><path class="st4" d="m3070.6 5305.1-42.92-14.18-12.79-13.77 2.16-32.64 116.01-9.02c9.8 14.27 3.42 33.63-12.93 39.25l-5.4 1.86-44.13 28.5"/><path class="st2" d="m2671.3 5455.8-32.69-76.6 45.41-19.33 36.24 84.92-48.96 11.01"/><path class="st4" d="M2683.1 5358.4c-1.63 1.8-3.52 3.51-5.72 5.12-5.46 3.99-49.45 27.3-53.22 16.79-.61-1.71-.42-3.58-.2-5.38a399.933 399.933 0 0 1 21.1-88.67c4.44-12.24 11.17-25.81 23.84-28.86 5.55-1.34 11.38-.35 16.95.91 8.22 1.86 16.3 4.31 24.16 7.33 2.88 1.1 5.93 2.46 7.42 5.16 2.99 5.39-2.22 11.78-7.66 14.69s-12.08 4.99-14.73 10.56c-1.19 2.49-1.36 5.34-1.51 8.1-1.13 20.47 2.35 40.14-10.43 54.25"/><path class="st5" d="M2981.3 5761.9c-16.19-74.03-62.48-127.21-111.91-181.65a2347.007 2347.007 0 0 1-159.34-195.65c-21.42 8.93-42.83 17.86-64.25 26.79 17.9 104.03 67.25 199.48 105.49 297.87 26.57 68.37 48.1 140.67 49.27 214.56.58 36.75-8.32 70.35-13.09 106.09-5.91 44.27-6.24 89.65-11.58 134.13-1.79 14.92-2.81 32.55 8.66 42.25 5.11 4.32 11.84 6.14 18.4 7.41 243.55 47.16 209.13-311.04 178.35-451.8"/><path class="st5" d="M2782.9 6150.1c-.13 44.92 5.35 88.21 13.76 121.22 69.28 3.71 147.57-3.95 216.09-17.86 66.96-13.59 108.73-28.16 109.22-100.78.89-133.62 53.11-247.45 75.67-375.88 13.1-74.64-9.54-141.4-34.63-210.53a2344.801 2344.801 0 0 1-73.2-241.47l-69.61.42c-22.9 103.05-13.45 210.08-15.4 315.62-1.35 73.34-8.86 148.4-35.81 217.21-29.62 75.64-72.29 45.53-121.26 89.4-47.63 42.65-64.6 125.07-64.83 202.65"/><path class="st6" d="M2861.6 6664.3c-7.65-5.93-14.37-13.08-21.02-20.16-5.95-6.35-11.9-12.69-17.85-19.04-20.62-21.99-30.8-54.54-39.64-82.64-46.51-147.83-63.24-350.66-33.04-505.13 114.54-9.9 247.11 18.99 361.4 34.6 11.12 1.52 23.71 4.01 29.47 13.63 3.5 5.83 3.6 13.01 3.6 19.81-.01 98.07-20.74 203.46-40.18 300.13-8.2 40.79-18.31 81.24-31.27 120.8-13.71 41.87-29.18 87.08-61.29 118.76-34.35 33.89-100.12 50.63-143.12 24.17a84.095 84.095 0 0 1-7.06-4.93"/><path class="st2" d="M2874 6643.7c-2.07 13.33-4.14 26.67-6.21 40.01-2.78 1.33-5.43 2.8-7.88 4.36-47.77 30.5-127.9 194.28-.56 230.94 115.62 33.29 109.61-125.77 87.04-192.09-3.86-11.36-9.02-22.07-16.66-31.37-5.23-6.36-6.4-5.16-5.65-12.53.72-7.13 7.83-15.21 9.45-22.73 1.72-8.02 1.07-16.92-3.59-23.67-2.85-4.14-7.02-7.22-11.47-9.58-7.06-3.74-15.27-5.8-23.12-4.31-9.34 1.77-19.87 11.41-21.35 20.97"/><path class="st4" d="M2973.6 6787c-9.66-32.65-17.85-45.22-29.39-59.91-24.16-30.8-4.08 78.38-14.05 116.24-.76 2.89-1.5 6.16.06 8.7 1.46 2.38 4.44 3.26 7.16 3.85 48.7 10.52 48.55-32 36.22-68.88M2845.7 6728c-7.81-10.99-24.93-8.04-36.98-1.98-49.49 24.88-78.62 84.77-67.64 139.06 9.19 45.43 66.45 79.5 78.03 23.21 4.11-19.96-8.05-47.61-5.27-69.75 3.99-31.63 18.73-61.88 31.86-90.54"/><path class="st4" d="M2973.1 6960.8c5.54-2.19 11.18-4.5 17.13-6.83 12.31-4.81 21.22-6.43 33.91.78 3.63 2.06 27.94 25.04 22.09 29.82 38.78-31.64 6.88-77.82-7.66-110.52-9.8-22.04-11.82-53.14-33.85-67.55-24.24-15.84-40.87 4.19-62.88 13.16-19.41 7.92-40.4 12.2-60.15 19.25-32.78 11.69-81.55 32.23-70.69 75.78 12.68 50.86 64.2 63.54 110.5 59.65 19.77-1.66 35.26-7.08 51.6-13.54"/><path class="st3" d="m3491.3 5982.5-119.92 180.46v613.08c0 10.76 13.97 14.97 19.9 6.01l100.02-150.51V5982.5"/><path class="st27" d="m3485.9 6625.6-102.93 152.77-42.51-8.82 123.37-154.49v-637.98l22.07 5.45v643.07"/><path class="st27" d="m3000.2 6671.6 73.44 26.69 390.25-83.28V5997.6l-463.69 83.51v590.49"/><path class="st3" d="m3431.1 5963.4-455.06 62.95c-10.15 2.01-17.47 10.91-17.47 21.26v604.88c0 13.66 12.48 23.92 25.88 21.26l446.65-61.28V5963.4"/><path class="st7" d="M3491.3 6631.6c-1.14-4.55-12.56-11.54-27.43-16.52-16.11-5.38-30.38-6.42-32.56-2.49l-.17-.06v-647.39c-.13-.49-.13-.96 0-1.39v-.29l.1.03c1.81-4.17 16.25-3.19 32.63 2.28 16.51 5.51 28.74 13.51 27.43 17.91v647.92"/><path class="st28" d="M3340.5 6769.6v-128.16l123.37-26.33-123.37 154.49z"/><path class="st30" d="m3463.8 6615.1-355.18 92.38v-16.59l355.18-75.79z"/><path class="st11" d="m3012.4 6149.5 374.93-51.87v-83.96l-374.93 51.87v83.96"/><defs><path id="l" d="M3173.3 6244.7h60.67v86.54h-60.67z"/></defs><clipPath id="d"><use xlink:href="#l"/></clipPath><g style="clip-path:url(#d)"><path d="m3431.1 5963.4-289.53 40.05 289.53-40.05" style="fill:#eee"/><path d="m3141.6 6003.5-165.5 22.89 165.5-22.89" style="fill:#aeb0b2"/><path d="M3431.1 5963.4h-.03l-289.53 40.05-165.5 22.89c33.1 7.82 63.87 18.46 92.43 31.36l318.88-44.11v83.96l-208.25 28.81c214.21 174.6 252 486.09 252 486.1v-647.39c-.13-.49-.13-.96 0-1.39v-.28" style="fill:#34387d"/><path d="M3431.1 5963.4v.29c-.13.43-.13.9 0 1.39v647.39-649.07" style="fill:#5961c5"/><path d="m3387.4 6013.6-318.88 44.11c41.3 18.66 78.01 42.07 110.63 68.66l208.25-28.81v-83.96" style="fill:#84a0df"/></g><path class="st2" d="M3243.2 6213.7c-.83.9-1.7 1.82-2.72 2.42-9.48 5.63-17.8 2.88-28.43 5.69-4.74 1.25-8.66 13.24-16.23 6.35-2.8-2.54-8.78-9.75-14.68-15.22-8.62-7.99-24.37-12.91-37.6-14.5-51.97-6.27-104.2 1.78-155.62 11.35-2.93.55-5.98 1.17-8.33 3-4.21 3.29-4.86 9.28-5.29 14.6a400.501 400.501 0 0 1-12.73 73.07c-5.8 21.32-13.65 42.68-28.08 59.41-14.42 16.74-36.52 28.2-58.38 24.99-16.36-2.41-31.27-13.21-38.64-28.02-18.29-36.72 20.81-82.15 38.32-112.65a712.827 712.827 0 0 1 55.59-82.8c2.52-3.24 5.18-6.55 8.77-8.53 3.83-2.12 8.34-2.53 12.7-2.88 56.19-4.58 112.46-4.16 169.02-2.61 15.54.43 28.89 8.97 43.26 9.23 9.17.17 16.49-6.29 25.18-8.05 8.59-1.73 20.33-1.83 28.96-.27 17.01 3.07 24.86 19.1 33.09 32.44 2.05 3.32 3.45 5.56 3.69 9.2.4 5.94-2.79 10.75-5.78 15.63-1.77 2.9-3.78 5.67-6.07 8.15"/><path class="st6" d="M2877 6259.9c32.44 6.95 64.87 13.9 97.32 20.86-2.08-.45-22.55 149.12-24.07 157.98-5.81 33.82-12.09 68.82-31.5 97.13-41.44 60.43-135.78 40.26-142.59-35.24-7.41-81.96 15.86-173.64 59.4-243.23.94-1.51 1.97-3.08 3.54-3.93 2.16-1.16 4.79-.67 7.19-.16 10.22 2.2 20.46 4.4 30.71 6.59"/><path class="st4" d="M1715.9 5397.9c-4.05 35.03-21.6 62.83-54.04 78.06-26.3 12.35-55.88 15.25-84.7 18.95-64.2 8.24-125.48 16.48-190.3 13.93-51.83-2.04-83.78-46.26-108.04-89.88-15.29-27.49-11.04-40.38 8.21-63.4 17.75-21.23 39.28-39.29 63.34-52.96 47.64-27.07 120.82-20.38 173.28-14.52 49.52 5.52 97.99 20.3 142.15 43.37 28.43 14.83 54.05 32.34 50.1 66.45"/><path class="st4" d="M1391.6 5302.7a612.458 612.458 0 0 1-22.5-61.68c-3.39-11.08-6.48-22.48-6.05-34.06 1-27.1 31.16-46.74 50.88-21.68a136.19 136.19 0 0 1 20.46 36.38c7.23 19.29-8.04 8.06-20.93 13.98-14.85 6.82-14.49 12.13-8.19 26.05 8.13 17.93 17.74 29.61 16.58 50.24-.31 5.69-1.93 12.3-7.18 14.53-3.98 1.69-8.76.05-11.92-2.91-3.17-2.95-5.05-6.99-6.82-10.94-1.47-3.28-2.91-6.59-4.33-9.91"/><path class="st45" d="m1492.2 5940.5 52.47-5.1a330 330 0 0 1 4.75 46.81c15.24 2.64 33.17 7.64 38.4 23.93 1.65 5.13 1.72 10.71 1.77 16.18l.6 67.73c.07 7.81.1 15.86-2.51 23.11-4.57 12.73-16.24 20.33-27.68 25.11-29.2 12.22-63.26 11.79-90.26-5.47-7.18-4.59-13.97-10.51-18.12-18.54-6.4-12.39-5.62-27.7-4.65-42.01.89-13.21 1.78-26.42 2.68-39.64 1.03-15.19 3.23-32.69 14.77-40.73 6.13-4.27 14.05-5.07 19.33-10.59 9.31-9.76 5.02-27.04 8.45-40.79"/><path class="st4" d="M1563.8 6114.3a22.87 22.87 0 0 0 1.85-3.83c2.55-6.97 1.05-14.91 3.55-21.9 3.96-11.08 17.08-17.54 19.25-29.11 1.77-9.45-4.55-18.59-4.92-28.2-.41-10.5 6.48-20.31 5.63-30.69-.75-9.01-6.23-21.76-11.47-29.06 1.62 2.26 16.7 1.74 20.56 4.19 5.92 3.76 6.56 6.08 8.23 12.35 1.66 6.22.18 12.3 2.82 18.69 3.25 7.84 10.09 13.68 12.37 22.02 3.12 11.39-3.12 23.23-2.86 35.03.39 17.86 15.52 34.95 9.62 51.82-3.46 9.9-13.24 16.08-18.83 24.95-4.25 6.73-5.92 14.72-8.91 22.1-3 7.37-8.05 14.71-15.72 16.83-4.26 1.17-8.82.58-13.18 1.31-7.54 1.26-13.87 6.34-21.16 8.66-10.42 3.32-28.5-7.48-34.39-16.37-5.85-8.82-2.69-16.17 3.58-23.77 10.46-12.62 35.29-20.58 43.98-35.02"/><path class="st4" d="M1415.2 6163.2c-6.13-4.66-13.73-8.09-19.3-13.51-10.87-10.57-12.67-27.19-12.8-42.36-.11-13.5-5.8-25.59-4.09-39.62 1.15-9.43 5.33-18.9 13.12-24.34 9.69-6.77 24.74-7.64 29.2-18.59 4.85-11.89-7.29-27.2.43-37.47 4.25-5.67 12.41-6.36 18.43-10.12 6.71-4.18 10.25-11.8 14.42-18.52s10.37-13.41 18.28-13.44c.11 12.03.29 21.56-5.03 32.46-3.11 6.35-12.12 18.01-5.48 25.06 4.16 5.84 14.2 7.89 14.33 15.06.06 3.37-2.34 6.19-4.24 8.97-7.37 10.75-8.35 25.24-3.7 37.42s14.49 22.02 26.12 27.91c13.63 6.9 11.35 10.22 15.11 23.45 3.46 12.18 10.28 15.14 21.11 19.75 9.72 4.14 12.82 6.67 16.27 15.89 2.53 6.75 5.64 14.84 1.67 22.26-3.15 5.89-8.71 10.05-14.1 14-11.25 8.27-23.88 16.95-37.79 15.7-7.72-.7-14.93-4.46-22.67-5.04-5.16-.39-10.31.67-15.48.75-8.82.14-18.06-2.71-25.11-8.08-7.1-5.42-6.8-10.96-10.66-18.54-1.9-3.69-4.76-6.55-8.04-9.05"/><path class="st4" d="M1445.5 6213.1c1.2 8.4.14 19.3-7.91 21.98-4.41 1.47-9.29-.31-13.86.53-9.74 1.8-13.26 13.5-18.5 21.91-.78 1.26-1.71 2.53-3.08 3.11-1.95.83-4.16.02-6.26-.27-9.64-1.35-17.15 8.05-26.31 11.34-11.34 4.08-25.38-3.22-28.56-14.83-1.31-4.77-.97-9.87-2.2-14.67-4.95-19.43-33.13-28.17-33.49-48.22-.24-13.55 13.24-26.28 8.31-38.91-3.15-8.07-13.37-13.72-12.04-22.28.86-5.51 6.81-9.17 12.38-8.99 5.58.17 10.64 3.32 14.78 7.06 6.56 5.94 11.45 13.5 17.69 19.77 6.24 6.28 14.62 11.43 23.42 10.49 8.52-.91 16.34-7.4 24.76-5.83 6.74 1.26 11.65 7.38 18.26 9.19 6.19 1.7 12.69-.62 19.1-.89s14.21 3.2 14.27 9.61c.02 1.55-.45 3.15.01 4.64 1.29 4.16 8.36 4.05 9.62 8.21-3.43 5.09-8.11 3.16-10.62 9.85-1.95 5.18-.53 11.93.23 17.2"/><path class="st27" d="M1539.7 5957.4c24.41 3.26 49.2 7.68 69.66-1.23 17.32-7.55 17.02-29.43 20.9-45.96 12.82-54.71 22.45-110.08 29.99-165.75 3.6-26.62 9.84-55.11 9.68-81.99-.13-21.57-5.53-42.54-3.87-64.53 1.28-16.89 8.45-35.12 23.92-42.03 7.78-3.48 16.73-3.64 24.52-7.07 7.8-3.44 14.48-12.62 10.55-20.19-1.87-3.6-5.6-5.76-9.14-7.73-19.29-10.76-38.58-21.51-57.87-32.27-14.73-8.21-29.55-16.47-45.42-22.17-22.5-8.08-46.55-10.83-70.42-12.04-61.65-3.14-123.8 3.68-183.3 20.1-32.04 8.84-62.99 24.53-55.21 60.77 8 37.3 23.47 74.53 40.15 108.69 20.19 41.35 26.18 91.19 40.49 134.83 14.5 44.22 29.83 88.17 45.28 132.07l.18.5c5.65 16.05 7.96 31.92 20.4 44.94 17.02 17.81 25.22 3.65 44.54.03 14.02-2.64 29.42-1.04 44.97 1.03"/><path class="st45" d="M1599.6 5280.5c5.56-.29 11.11-.59 16.67-.89 6.04-.32 12.77-.42 17.27 3.63 5.49 4.93 4.87 14.25.43 20.15s-11.6 9.04-18.63 11.29c-16.96 5.44-34.9 7.11-52.7 7.81-1.78.07-3.63.12-5.28-.55-2.88-1.16-4.53-4.2-5.5-7.16-10.11-30.67 26.14-33.12 47.74-34.28M1385.8 5228.3c-.3-2.47-.58-5.1.49-7.35.77-1.64 2.19-2.89 3.71-3.87 11.46-7.3 26.87.56 35.64 10.94s14.71 23.51 25.91 31.22c25.62 17.65 2.17 49.95-24.6 42.54-31.26-8.64-37.82-46.19-41.15-73.48"/><path class="st4" d="M1731 5394.6c22.12 16.25 44.3 34.68 52.38 62.05 8.08 27.38-3.32 66.04-31.86 81.83-34.8 19.24-68.97-4.4-93.79-26.74-50.82-45.69-106.21-86.08-160.37-127.87-18.3-14.12-81.8-66.12-81.8-66.12-1.75-7.33 32.38-73.64 41.43-71.21 98.8 26.13 194.88 89.92 274.01 148.06"/><path class="st4" d="M1233.7 5363.1c-21.66 10.54-43.44 23.24-52.01 48.56-8.56 25.32 1.17 66.99 28 90.19 32.71 28.29 66.13 13.46 90.55-2.47 50.02-32.58 104.25-58.67 157.34-86.48 17.94-9.4 80.28-45.02 80.28-45.02 1.89-6.88-28.75-82.12-37.48-82.04-95.31.57-189.2 39.55-266.68 77.26M1562.4 5267.1c19.9-9.68 40.33-18.29 61.16-25.78 11.02-3.96 22.37-7.66 34.09-7.8 27.42-.33 48.75 29.15 24.42 50.3a137.567 137.567 0 0 1-35.72 22.46c-19.12 8.26-8.53-7.72-15.16-20.45-7.62-14.65-12.96-14.03-26.7-6.97-17.7 9.09-29.02 19.38-49.9 19.24-5.77-.04-12.52-1.34-15.03-6.53-1.91-3.94-.48-8.84 2.34-12.18s6.81-5.44 10.71-7.43c3.24-1.64 6.51-3.26 9.79-4.86"/><path class="st45" d="M1848.2 5632.2c-.31 1.31-.63 2.66-.57 3.95.62 12.08 8.18 18.01 12.07 29.42 1.74 5.09-6.83 15.94 4.07 18.68 11.29 2.83 33.13.91 40.77 11.25 3.37 4.57 7.54 10.57 13.05 9.2 1.89-.47 3.44-1.78 4.83-3.13 46.22-44.7 1.29-98.54-49.08-96.85-4.27.14-7.16.22-10.64 2.22-5.66 3.24-8.11 9.07-10.76 14.77-1.56 3.38-2.86 6.9-3.74 10.49"/><path class="st27" d="M1936.8 5624.1c11.45-4.79 25.5.05 33.34 9.66s10.03 22.97 8 35.21-7.86 23.53-14.64 33.92c-8.04 12.31-18.15 24.14-31.89 29.38-7.66 2.92-15.97 3.59-24.16 3.77-5.53.12-11.65-.2-15.64-4.05-2.85-2.75-4.01-6.79-4.85-10.66-5.52-25.16-1.19-28.82 15.3-45.55 14.61-14.83 25.32-33.16 34.54-51.68"/><path class="st28" d="M1178 5899.6v38.63s207.13 19.25 331.7-63.72L1178 5899.6"/><path class="st27" d="m1135.6 5903.7 27.74 21.38s169.39 32.37 346.39-50.59V5414s-120.02 86.29-374.13 52.4v437.3"/><path class="st28" d="M1841.4 5899.6v38.63s-207.13 19.25-331.7-63.72l331.7 25.09"/><path class="st27" d="m1883.9 5903.7-27.74 21.38s-169.39 32.37-346.39-50.59V5414s120.02 86.29 374.13 52.4v437.3"/><path class="st3" d="M1509.8 5874.8c19.3 1.06 33.98 5.64 34.79 11.21l.33.36-.29.12c.33.08.66.16.98.24 5.49 2.45 31.36 7.63 39.23 9.32.56.12 1.11.24 1.66.36l.31.07c21.95 5.53 44.21 9.62 66.63 12.6 85.04 13.32 147.46 10.94 182.58 5.8 13.1-1.61 25.9-4.26 38.09-8.44 2.23-.76 4.34-1.63 6.31-2.67l.03-.01h-.01c4.19-2.2 7.74-5.16 10.45-9.54 3.64-5.9 3.82-11.66 3.82-18.31V5469.2c0-11.48-9.49-22.85-20.78-20.78-69.44 12.8-126.01 12.36-169.51 9.28-45.86-3.25-91.6-10.22-135.99-22.32-14.46-3.94-32.56-7.02-45.83-14.16-1.27-.68-2.65-1.18-4.1-1.46-.9-.18-1.83-.27-2.78-.27-1.12 0-2.21.13-3.26.37-1.04.4-2.11.78-3.23 1.16-4.79 2.39-8.08 7.33-8.08 13.05v430.81c.02 3.46 3.04 6.79 8.65 9.92"/><path class="st3" d="M1509.8 5874.8c-19.3 1.06-33.99 5.64-34.79 11.21l-.32.36.29.12-.99.24c-5.49 2.45-31.36 7.63-39.23 9.32l-1.66.36-.31.07c-21.95 5.53-44.2 9.62-66.62 12.6-85.05 13.32-147.46 10.94-182.58 5.8-13.11-1.61-25.91-4.26-38.09-8.44-2.23-.76-4.35-1.63-6.32-2.67l-.03-.01c-4.18-2.2-7.73-5.16-10.44-9.54-3.64-5.9-3.83-11.66-3.83-18.31V5469.2c0-11.48 9.49-22.85 20.78-20.78 69.44 12.8 126 12.36 169.51 9.28 45.86-3.25 91.6-10.22 135.99-22.32 14.45-3.94 32.56-7.02 45.83-14.16 1.26-.68 2.64-1.18 4.1-1.46a14.61 14.61 0 0 1 6.05.1c1.04.4 2.11.78 3.23 1.16 4.79 2.39 8.08 7.33 8.08 13.05v430.81c-.02 3.46-3.04 6.79-8.65 9.92"/><defs><path id="j" d="M1325.6 5586.3h45.39v51.34h-45.39z"/></defs><clipPath id="c"><use xlink:href="#j"/></clipPath><g style="clip-path:url(#c)"><path class="st47" d="M1474.9 5429.4"/><path class="st48" d="M1178 5453.6c1.17.16 2.32.31 3.48.47v-.01c-1.16-.16-2.32-.31-3.48-.46"/><path class="st47" d="M1406.4 5445.8c-6.25 1.22-12.51 2.36-18.79 3.41 6.27-1.06 12.54-2.19 18.79-3.41M1387.6 5449.2c-23.99 4-48.2 6.76-72.44 8.48-14.98 1.06-31.51 1.81-49.59 1.81-25.07 0-53.11-1.44-84.1-5.46v.01c30.97 4.02 59 5.46 84.06 5.46 18.09 0 34.63-.75 49.63-1.81 24.24-1.73 48.45-4.48 72.44-8.49"/><path d="M1474.9 5429.4c-2.5.68-5.02 1.32-7.52 1.93-5.61 1.39-11.14 2.67-16.22 4.05-14.78 4.03-29.71 7.49-44.75 10.43a666.27 666.27 0 0 1-18.79 3.41c-24 4.01-48.2 6.76-72.44 8.48-14.99 1.06-31.54 1.81-49.63 1.81-25.06 0-53.09-1.44-84.06-5.46-1.15-.15-2.31-.3-3.47-.46 255.56 82.13 296.88 350.96 296.88 350.96h.07l-.07-375.15" style="fill:#34387b"/></g><path class="st7" d="M1509.9 5875.6c-19.32 0-34.98 5.49-34.89 10.82l-.09-460.47c0-6.6 15.66-11.94 34.98-11.94s34.99 5.35 34.99 11.94l-.01 460.35c-1.71-6.08-15.66-10.7-34.98-10.7"/><defs><path id="i" d="M1458.5 5890.1h102.64v6.79H1458.5z"/></defs><clipPath id="b"><use xlink:href="#i"/></clipPath><g style="clip-path:url(#b)"><path class="st51" d="M1506.5 5875.7c-2.95.1-5.8.32-8.49.66h-.01c-.02 0-.05 0-.07.01-.01 0-.02 0-.04.01-.02 0-.05 0-.07.01h-.02c-.03 0-.05.01-.08.01-12.6 1.59-21.76 5.49-22.62 9.42l-.03.16v.01c-.02.11-.03.21-.03.32v.15l-.14-.06.14.06-.99.24c-5.08 2.26-27.63 6.87-37.19 8.88 9.56-2.01 32.11-6.62 37.19-8.88.33-.08.66-.16.99-.25l.04-.48.04-.18c1.07-4.78 14.45-9.52 31.38-10.09m-31.46 10.32-.28.31.28-.26v-.05"/><path class="st52" d="M1125.6 5886.4c.54 2.64 1.47 5.22 3.08 7.82-1.6-2.61-2.54-5.18-3.08-7.82"/><path class="st51" d="M1434.8 5896c-.55.12-1.11.24-1.66.37.55-.13 1.1-.25 1.66-.37"/><path class="st52" d="M1130.1 5896.2c1.6 2.12 3.44 3.85 5.47 5.31a24.976 24.976 0 0 1-5.47-5.31"/><path class="st51" d="M1432.8 5896.4c-21.95 5.53-44.2 9.62-66.62 12.6 22.42-2.98 44.67-7.07 66.62-12.6M1139.17 5903.68l.02.01c1.97 1.04 4.08 1.9 6.31 2.67 4.47 1.53 9.01 2.86 13.63 4a166.54 166.54 0 0 1-13.63-4c-2.23-.76-4.35-1.63-6.32-2.67l-.01-.01m225.91 5.49c-46.13 7.17-85.57 9.71-117.57 9.71 32 0 71.44-2.54 117.57-9.71"/><path class="st53" d="M1124.9 5868.2v7.65c0 3.71.05 7.15.74 10.49.54 2.64 1.47 5.22 3.08 7.82.45.72.91 1.4 1.4 2.04 1.6 2.12 3.44 3.85 5.47 5.31 1.13.81 2.32 1.53 3.57 2.19h.01l.02.01c1.97 1.04 4.08 1.91 6.32 2.67 4.46 1.53 9.01 2.86 13.63 4 7.98 1.98 16.17 3.42 24.47 4.44 15.87 2.32 37.32 4.08 63.92 4.08 31.99 0 71.43-2.54 117.57-9.71.37-.06.73-.11 1.09-.17 22.42-2.98 44.67-7.07 66.62-12.6l.31-.07 1.66-.36c.59-.13 1.27-.27 2.04-.43 9.56-2.01 32.11-6.62 37.19-8.88l.99-.24-.14-.06-.15-.06.01-.01.28-.31v-7.21c-.33.08-.66.16-.98.24-5.49 2.45-31.36 7.62-39.23 9.31-.56.12-1.11.24-1.66.37l-.31.07c-21.95 5.53-44.2 9.62-66.62 12.59-46.61 7.3-86.42 9.88-118.67 9.88-26.59 0-48.04-1.76-63.91-4.08-13.1-1.61-25.91-4.26-38.1-8.44-2.23-.77-4.34-1.63-6.31-2.67l-.03-.01c-4.18-2.2-7.73-5.16-10.44-9.54-3.66-5.9-3.84-11.66-3.84-18.31m350.17 17.58-.03.17v-.01l.03-.16"/><path d="M1890.4 5895c-1.84 2.74-4.02 4.89-6.49 6.65 2.47-1.75 4.65-3.91 6.49-6.65" style="fill:#cbcbcb"/><path class="st55" d="M1511.8 5875.6c.13 0 .27 0 .4.01-.13-.01-.26-.01-.4-.01"/><path class="st51" d="M1512.2 5875.6c16.52.31 28.73 4.07 32.02 9.14.2.39.33.78.39 1.18l.32.36-.28.12.29-.12-.33-.36c-.06-.39-.18-.78-.37-1.16-3.28-5.09-15.5-8.84-32.04-9.16m32.45 10.8c.33.08.66.16.99.25 5.49 2.44 31.36 7.62 39.23 9.31l1.38.3-1.38-.3c-7.87-1.69-33.74-6.87-39.23-9.31-.34-.09-.66-.17-.99-.25m42.19 9.99c21.95 5.53 44.21 9.62 66.62 12.6 46.61 7.3 86.42 9.88 118.66 9.88-32.24 0-72.06-2.58-118.66-9.88-22.41-2.98-44.67-7.07-66.62-12.6m297.07 5.19c-1.09.77-2.24 1.46-3.44 2.09h.01c1.2-.63 2.34-1.32 3.43-2.09m-3.43 2.09-.03.01c-1.97 1.04-4.08 1.91-6.31 2.67 2.23-.76 4.34-1.63 6.31-2.67l.03-.01m-6.63 2.78c-8.36 2.85-17 4.98-25.83 6.55 8.83-1.58 17.47-3.7 25.83-6.55"/><path class="st53" d="M1894.7 5869.6c-.04 6.08-.43 11.46-3.82 16.95-2.71 4.38-6.26 7.35-10.44 9.54l-.03.01c-1.97 1.04-4.08 1.9-6.31 2.67-12.19 4.18-24.99 6.83-38.1 8.44-15.87 2.32-37.31 4.08-63.91 4.08-32.25 0-72.06-2.59-118.67-9.88-22.42-2.97-44.68-7.07-66.62-12.59l-.31-.07c-.55-.12-1.11-.24-1.66-.37-7.87-1.69-33.74-6.87-39.23-9.31-.23-.06-.47-.12-.7-.17v7.46a5.62 5.62 0 0 0-.7-1.52c.19.38.31.77.37 1.16l.33.36-.29.12c.33.08.66.16.98.24 5.49 2.45 31.36 7.63 39.23 9.31l1.38.3c.09.02.19.04.29.06l.31.07c21.95 5.53 44.21 9.62 66.63 12.6 46.6 7.3 86.41 9.88 118.66 9.88 26.59 0 48.04-1.76 63.92-4.08 4.03-.5 8.03-1.09 11.99-1.79 8.83-1.57 17.47-3.7 25.83-6.55.09-.03.19-.06.28-.1 2.23-.76 4.34-1.63 6.31-2.67l.03-.01h-.01c1.2-.63 2.35-1.32 3.44-2.09a25.09 25.09 0 0 0 6.49-6.65c.17-.26.35-.53.52-.8 3.39-5.49 3.78-10.87 3.82-16.95v-7.65"/><path class="st51" d="M1509.9 5875.6h.19-.19m-.11 0h-.04.04m.32 0h.18-.18m-.44 0h-.04.04m-.1 0h-.06.06m.75 0h.18-.18m-.87 0h-.07.07m-.1 0h-.06.06m1.18 0h.18-.18m-1.3 0h-.06.06m1.5 0c.2 0 .4 0 .6.01-.2 0-.39 0-.6-.01m-1.61 0h-.05.05m-.11.01h-.06.06m-.1 0h-.06.06m-.12 0h-.07.07m-.1 0h-.06.06m-.11 0h-.07.07m2.76 0h.08-.08"/><path class="st55" d="M1511.4 5875.6h.11-.11"/><path class="st51" d="M1508.5 5875.6h-.07.07"/><path class="st55" d="M1511.6 5875.6h.2-.2"/><path class="st51" d="M1508.4 5875.6h-.06.06m-.11 0h-.05c.01.01.03.01.05 0m-.12.01h-.06.06m-.1 0h-.01.01"/><path class="st55" d="M1508 5875.6h-.06.06m-.09 0h-.08.08m-.08 0h-.1.1m-.13 0c-.06 0-.12 0-.19.01.06 0 .12 0 .19-.01m-.19.01c-.08 0-.17 0-.25.01.08-.01.16-.01.25-.01"/><path class="st51" d="M1507.3 5875.7h-.17.17m-.18 0h-.1.1m-.1 0h-.08.08m-.11.01c-.1 0-.21.01-.31.01.1-.01.2-.01.31-.01m-.32.01h-.09.09"/><path d="M1509.9 5868c-3.03 0-5.97.14-8.77.39v7.65c-1.07.09-2.12.2-3.15.33a96.9 96.9 0 0 1 8.49-.66h.11c.1 0 .21-.01.31-.01h.39c.08 0 .17-.01.25-.01.06 0 .12 0 .19-.01H1510.68c.2 0 .4 0 .6.01H1511.69c.13 0 .27 0 .4.01 16.53.31 28.75 4.07 32.03 9.15.32.5.55 1 .7 1.52v-7.46c-.1-.02-.19-.05-.29-.07l.28-.12-.32-.36c-.06-.4-.19-.79-.39-1.18-3.38-5.32-16.55-9.18-34.2-9.18m-11.94 8.37c-.02 0-.05 0-.07.01.02-.01.05-.01.07-.01m-.11.01c-.02 0-.05 0-.07.01.03 0 .05-.01.07-.01m-.09.01c-.03 0-.05.01-.08.01.03 0 .06 0 .08-.01m-22.76 2.43v7.26-7.26" style="fill:#5259b0"/></g><defs><path id="h" d="M1486.3 5619h3.49v62.94h-3.49z"/></defs><clipPath id="a"><use xlink:href="#h"/></clipPath><g style="clip-path:url(#a)"><path class="st48" d="M1475 5886.3v.07-.07"/><path class="st58" d="M1501.1 5414.4c-15.07 1.33-26.21 6.01-26.21 11.57l.09 452.82.04-.47v-.01l.04-.18c.95-4.27 11.71-8.5 26.04-9.77V5414.4m-26.12 471.65v.3V5886.05"/><path class="st59" d="M1498 5876.4h-.01.01m-.08.01c-.01 0-.02 0-.04.01.02-.01.03-.01.04-.01m-.11.01h-.02.02m-.1.01c-12.58 1.59-21.73 5.48-22.61 9.4v.02c.86-3.93 10.01-7.82 22.61-9.42m-22.64 9.59"/><path d="M1475.1 5885.8c-.01.06-.02.12-.03.19l.03-.17v-.02" style="fill:#31346a"/><path class="st61" d="M1501.1 5868.4c-14.33 1.27-25.09 5.5-26.04 9.77l-.04.18v.01l-.04.47v7.49l.03-.32c.01-.06.02-.12.03-.19.88-3.92 10.03-7.81 22.61-9.4.03 0 .05-.01.08-.01h.02c.02 0 .05-.01.07-.01.01 0 .02 0 .04-.01.02 0 .05-.01.07-.01h.01c1.03-.13 2.08-.24 3.15-.33v-7.64"/><path class="st48" d="M1475 5886.4v.09-.09m0 .06v.03-.03"/><path class="st58" d="M1475 5886.4v.09-.09"/></g><path class="st7" d="M1831.7 5864c-33.82 4.95-93.95 7.24-175.86-5.59-15.58-2.06-42.71-7.6-56.8-10.57a11.42 11.42 0 0 1-9.07-11.18v-93c0-7.31 6.76-12.71 13.9-11.16 33.27 7.25 69.04 17.38 110.26 19.89 35.26 2.15 70.2 3.19 123.13-3.98 6.86-.93 12.97 4.4 12.97 11.32v91.71c0 5.58-4.04 10.36-9.55 11.27-2.98.5-5.97.92-8.98 1.29"/><path class="st45" d="M1189.9 5676.6c.32 1.3.63 2.66.57 3.95-.62 12.08-8.18 18.01-12.07 29.42-1.74 5.09 6.83 15.94-4.07 18.68-11.29 2.82-33.14.91-40.77 11.25-3.38 4.57-7.54 10.57-13.06 9.2-1.89-.47-3.44-1.78-4.84-3.13-46.21-44.7-1.29-98.54 49.08-96.85 4.28.14 7.16.22 10.65 2.22 5.66 3.24 8.12 9.07 10.77 14.77 1.56 3.39 2.87 6.9 3.74 10.49"/><path class="st27" d="M1101.4 5668.5c-11.44-4.79-25.5.06-33.34 9.67s-10.03 22.97-8 35.21 7.86 23.53 14.64 33.92c8.04 12.31 18.15 24.14 31.89 29.38 7.65 2.92 15.97 3.59 24.16 3.77 5.53.12 11.65-.2 15.63-4.05 2.85-2.75 4.01-6.79 4.85-10.66 5.53-25.16 1.18-28.82-15.3-45.55-14.6-14.83-25.3-33.16-34.53-51.69"/><path class="st2" d="M2321.7 6593.3c-.95.62-1.93 1.26-2.63 2.06-6.49 7.35-4.92 14.3-8.88 22.77-1.77 3.78-13.6 6.18-8.01 12.81 2.06 2.44 8.14 7.78 12.6 12.95 8.12 9.41.54 23.08 9 33.65 7.27 9.08 33.48 17.47 42.67 4.12 3.44-5.01-1.34-13.09-.61-18.53 1.13-8.35 7.86-13.92 10.91-21.67 2.7-6.89 4.23-16.44 3.82-23.56-.81-14.05-15.03-21.5-26.64-29.08-2.89-1.89-4.84-3.17-8.27-3.61-5.57-.71-10.51 1.57-15.51 3.68-2.95 1.26-5.82 2.72-8.45 4.41"/><path class="st11" d="M2396.8 6633.4c10.94 5.29 16.49 18.75 14.53 30.74-1.97 11.99-10.36 22.26-20.65 28.7-10.3 6.45-22.37 9.49-34.39 11.25-14.25 2.08-29.49 2.33-42.23-4.35-7.11-3.73-12.99-9.4-18.44-15.29-3.67-3.98-7.41-8.69-7.17-14.1.17-3.88 2.39-7.34 4.68-10.47 14.88-20.37 20.39-19.55 43.34-18.31 20.36 1.11 40.76-2.92 60.33-8.17"/><path class="st2" d="M1818.6 6613.7c1.05.45 2.11.93 2.93 1.59 7.62 6.19 7.2 13.31 12.5 21.01 2.37 3.44 14.43 3.87 10.01 11.31-1.63 2.75-6.76 9.01-10.31 14.85-6.46 10.61 3.26 22.85-3.36 34.67-5.68 10.15-30.16 22.73-41.42 11.06-4.22-4.37-.83-13.12-2.45-18.37-2.48-8.06-10.04-12.45-14.31-19.6-3.8-6.35-6.87-15.52-7.63-22.61-1.51-13.99 11.3-23.67 21.5-33.05 2.55-2.34 4.25-3.92 7.56-4.92 5.38-1.61 10.63-.17 15.91 1.09 3.14.75 6.2 1.72 9.07 2.97"/><path class="st11" d="M1751.2 6665.5c-9.92 7.01-13.19 21.2-9.28 32.7s13.87 20.25 25.08 24.92 23.62 5.69 35.77 5.45c14.39-.28 29.47-2.54 40.95-11.23 6.39-4.84 11.27-11.4 15.67-18.11 2.97-4.53 5.89-9.78 4.76-15.08-.8-3.8-3.55-6.85-6.33-9.57-18.02-17.65-23.32-15.94-45.77-10.94-19.89 4.44-40.68 3.81-60.85 1.86"/></g></svg>
