<svg width="1000" height="1000" viewBox="0 0 1000 1000" fill="none" xmlns="http://www.w3.org/2000/svg">
<path d="M1000 0H0V1000H1000V0Z" fill="#C3EDE1"/>
<g opacity="0.23">
<path opacity="0.23" d="M541.4 267.9V298.9H479.5" stroke="#474747" stroke-width="6" stroke-miterlimit="10" stroke-linecap="round" stroke-linejoin="round"/>
<path opacity="0.23" d="M603.2 298.9H541.4V267.9" stroke="#474747" stroke-width="6" stroke-miterlimit="10" stroke-linecap="round" stroke-linejoin="round"/>
<path opacity="0.23" d="M572.3 298.9H510.4V329.8H572.3V298.9Z" stroke="#474747" stroke-width="6" stroke-miterlimit="10" stroke-linecap="round" stroke-linejoin="round"/>
<path opacity="0.23" d="M558.9 360.7H541.4V329.8H603.2" stroke="#474747" stroke-width="6" stroke-miterlimit="10" stroke-linecap="round" stroke-linejoin="round"/>
<path opacity="0.23" d="M479.5 329.8H541.4V360.7H491.2" stroke="#474747" stroke-width="6" stroke-miterlimit="10" stroke-linecap="round" stroke-linejoin="round"/>
<path opacity="0.23" d="M458.4 298.9H510.4V329.8H479.5" stroke="#474747" stroke-width="6" stroke-miterlimit="10" stroke-linecap="round" stroke-linejoin="round"/>
<path opacity="0.23" d="M616.9 329.8H572.3V298.9H593.7" stroke="#474747" stroke-width="6" stroke-miterlimit="10" stroke-linecap="round" stroke-linejoin="round"/>
</g>
<g opacity="0.23">
<path opacity="0.23" d="M117.6 521.2V552.1H55.7" stroke="#474747" stroke-width="6" stroke-miterlimit="10" stroke-linecap="round" stroke-linejoin="round"/>
<path opacity="0.23" d="M179.4 552.1H117.6V521.2" stroke="#474747" stroke-width="6" stroke-miterlimit="10" stroke-linecap="round" stroke-linejoin="round"/>
<path opacity="0.23" d="M148.5 552.1H86.6V583H148.5V552.1Z" stroke="#474747" stroke-width="6" stroke-miterlimit="10" stroke-linecap="round" stroke-linejoin="round"/>
<path opacity="0.23" d="M135.1 614H117.6V583.1H179.4" stroke="#474747" stroke-width="6" stroke-miterlimit="10" stroke-linecap="round" stroke-linejoin="round"/>
<path opacity="0.23" d="M55.7 583.1H117.6V614H67.4" stroke="#474747" stroke-width="6" stroke-miterlimit="10" stroke-linecap="round" stroke-linejoin="round"/>
<path opacity="0.23" d="M34.6 552.1H86.6V583.1H55.7" stroke="#474747" stroke-width="6" stroke-miterlimit="10" stroke-linecap="round" stroke-linejoin="round"/>
<path opacity="0.23" d="M193.1 583.1H148.5V552.1H169.9" stroke="#474747" stroke-width="6" stroke-miterlimit="10" stroke-linecap="round" stroke-linejoin="round"/>
</g>
<g opacity="0.23">
<path opacity="0.23" d="M872 411.6V442.5H933.9" stroke="#474747" stroke-width="6" stroke-miterlimit="10" stroke-linecap="round" stroke-linejoin="round"/>
<path opacity="0.23" d="M810.2 442.5H872V411.6" stroke="#474747" stroke-width="6" stroke-miterlimit="10" stroke-linecap="round" stroke-linejoin="round"/>
<path opacity="0.23" d="M841.033 473.5L902.933 473.5L902.933 442.6L841.033 442.6L841.033 473.5Z" stroke="#474747" stroke-width="6" stroke-miterlimit="10" stroke-linecap="round" stroke-linejoin="round"/>
<path opacity="0.23" d="M854.4 504.4H872V473.5H810.2" stroke="#474747" stroke-width="6" stroke-miterlimit="10" stroke-linecap="round" stroke-linejoin="round"/>
<path opacity="0.23" d="M933.9 473.5H872V504.4H895.2" stroke="#474747" stroke-width="6" stroke-miterlimit="10" stroke-linecap="round" stroke-linejoin="round"/>
<path opacity="0.23" d="M955 442.5H902.9V473.5H933.9" stroke="#474747" stroke-width="6" stroke-miterlimit="10" stroke-linecap="round" stroke-linejoin="round"/>
<path opacity="0.23" d="M796.4 473.5H841.1V442.5H819.6" stroke="#474747" stroke-width="6" stroke-miterlimit="10" stroke-linecap="round" stroke-linejoin="round"/>
</g>
<path d="M75.8 726H902.9" stroke="#333333" stroke-width="10" stroke-miterlimit="10" stroke-linecap="round" stroke-linejoin="round"/>
<path d="M741.5 375.6H637.6C631 375.6 625.6 370.2 625.6 363.6V233.6C625.6 227 631 221.6 637.6 221.6H741.5V375.6Z" fill="#CC6675"/>
<path d="M741.5 375.6H845.4C852 375.6 857.4 370.2 857.4 363.6V233.6C857.4 227 852 221.6 845.4 221.6H741.5V375.6Z" fill="#FEE2CA"/>
<path d="M741.5 375.6H845.4C852 375.6 857.4 370.2 857.4 363.6V233.6C857.4 227 852 221.6 845.4 221.6H741.5V375.6Z" fill="#CC6675"/>
<path d="M845.4 375.6H637.6C631 375.6 625.6 370.2 625.6 363.6V233.6C625.6 227 631 221.6 637.6 221.6H845.4C852 221.6 857.4 227 857.4 233.6V363.6C857.4 370.2 852 375.6 845.4 375.6Z" stroke="#333333" stroke-width="10" stroke-miterlimit="10" stroke-linecap="round" stroke-linejoin="round"/>
<path d="M741.5 375.6H637.6C631 375.6 625.6 370.2 625.6 363.6V233.6C625.6 227 631 221.6 637.6 221.6H741.5V375.6Z" stroke="#333333" stroke-width="10" stroke-miterlimit="10" stroke-linecap="round" stroke-linejoin="round"/>
<path d="M741.5 375.6H637.6C631 375.6 625.6 370.2 625.6 363.6V233.6C625.6 227 631 221.6 637.6 221.6H741.5V375.6Z" stroke="#333333" stroke-width="10" stroke-miterlimit="10" stroke-linecap="round" stroke-linejoin="round"/>
<path d="M724.91 359.042V238.141L642.11 238.141V359.042H724.91Z" fill="#F26B79"/>
<path opacity="0.5" d="M724.973 359.105V350.505H642.173V359.105H724.973Z" fill="#99675E"/>
<path opacity="0.53" d="M724.937 248.068V238.168L642.137 238.168V248.068L724.937 248.068Z" fill="#99675E"/>
<path d="M724.91 359.042V238.141L642.11 238.141V359.042H724.91Z" stroke="#333333" stroke-width="8" stroke-miterlimit="10" stroke-linecap="round" stroke-linejoin="round"/>
<path d="M741.5 375.6H845.4C852 375.6 857.4 370.2 857.4 363.6V233.6C857.4 227 852 221.6 845.4 221.6H741.5V375.6Z" stroke="#333333" stroke-width="10" stroke-miterlimit="10" stroke-linecap="round" stroke-linejoin="round"/>
<path d="M840.824 359.027V238.127L758.024 238.127V359.027H840.824Z" fill="#F26B79"/>
<path opacity="0.5" d="M840.887 359.091V350.491H758.087V359.091H840.887Z" fill="#99675E"/>
<path opacity="0.53" d="M840.851 248.054V238.154L758.051 238.154V248.054L840.851 248.054Z" fill="#99675E"/>
<path d="M840.824 359.027V238.127L758.024 238.127V359.027H840.824Z" stroke="#333333" stroke-width="8" stroke-miterlimit="10" stroke-linecap="round" stroke-linejoin="round"/>
<path d="M703.9 278.4V313.8" stroke="#333333" stroke-width="10" stroke-miterlimit="10" stroke-linecap="round" stroke-linejoin="round"/>
<path d="M777.3 278.4V313.8" stroke="#333333" stroke-width="10" stroke-miterlimit="10" stroke-linecap="round" stroke-linejoin="round"/>
<path d="M481.2 310C512.128 310 537.2 284.928 537.2 254C537.2 223.072 512.128 198 481.2 198C450.272 198 425.2 223.072 425.2 254C425.2 284.928 450.272 310 481.2 310Z" fill="#FFE9BD"/>
<path d="M481.2 220C508.4 220 531 239.3 536.1 265C536.8 261.4 537.2 257.8 537.2 254C537.2 223.1 512.1 198 481.2 198C450.3 198 425.2 223.1 425.2 254C425.2 257.8 425.6 261.4 426.3 265C431.4 239.3 454 220 481.2 220Z" fill="#E2E2E2"/>
<path d="M481.2 310C512.128 310 537.2 284.928 537.2 254C537.2 223.072 512.128 198 481.2 198C450.272 198 425.2 223.072 425.2 254C425.2 284.928 450.272 310 481.2 310Z" stroke="#333333" stroke-width="10" stroke-miterlimit="10" stroke-linecap="round" stroke-linejoin="round"/>
<path d="M526.584 261.329C530.654 236.251 513.624 212.623 488.547 208.553C463.469 204.483 439.841 221.513 435.771 246.59C431.701 271.668 448.731 295.296 473.808 299.366C498.886 303.436 522.514 286.406 526.584 261.329Z" stroke="#333333" stroke-width="6" stroke-miterlimit="10" stroke-linecap="round" stroke-linejoin="round"/>
<path d="M466.5 225L481.2 254H506" stroke="#333333" stroke-width="6" stroke-miterlimit="10" stroke-linecap="round" stroke-linejoin="round"/>
<path d="M481.2 261.1C485.121 261.1 488.3 257.921 488.3 254C488.3 250.079 485.121 246.9 481.2 246.9C477.279 246.9 474.1 250.079 474.1 254C474.1 257.921 477.279 261.1 481.2 261.1Z" fill="#333333"/>
<path d="M756.2 476.6C760.729 476.6 764.4 472.929 764.4 468.4C764.4 463.871 760.729 460.2 756.2 460.2C751.671 460.2 748 463.871 748 468.4C748 472.929 751.671 476.6 756.2 476.6Z" fill="#FFF3E9"/>
<path d="M756.2 476.6C760.729 476.6 764.4 472.929 764.4 468.4C764.4 463.871 760.729 460.2 756.2 460.2C751.671 460.2 748 463.871 748 468.4C748 472.929 751.671 476.6 756.2 476.6Z" stroke="#333333" stroke-width="8" stroke-miterlimit="10" stroke-linecap="round" stroke-linejoin="round"/>
<path d="M846.8 535.7H779.7V726H846.8V535.7Z" fill="#F29F4D"/>
<path d="M846.8 715.3H779.7V726H846.8V715.3Z" fill="#DB8945"/>
<path d="M846.8 535.7H779.7V548.5H846.8V535.7Z" fill="#DB8945"/>
<path d="M846.8 495H595.7V535.7H846.8V495Z" fill="#F4B47A"/>
<path opacity="0.63" d="M846.8 527.7H595.7V535.7H846.8V527.7Z" fill="#DB8945"/>
<path d="M846.8 495H595.7V503.5H846.8V495Z" fill="#F9C59B"/>
<path d="M687.7 630.8H595.7V726H687.7V630.8Z" fill="#F29F4D"/>
<path d="M687.7 715.3H595.7V726H687.7V715.3Z" fill="#DB8945"/>
<path d="M687.7 495H595.7V726H687.7V495Z" stroke="#333333" stroke-width="10" stroke-miterlimit="10" stroke-linecap="round" stroke-linejoin="round"/>
<path d="M779.7 495H687.7V726H779.7V495Z" stroke="#333333" stroke-width="10" stroke-miterlimit="10" stroke-linecap="round" stroke-linejoin="round"/>
<path d="M846.8 495H779.7V726H846.8V495Z" stroke="#333333" stroke-width="10" stroke-miterlimit="10" stroke-linecap="round" stroke-linejoin="round"/>
<path d="M687.7 535.7H595.7V726H687.7V535.7Z" stroke="#333333" stroke-width="10" stroke-miterlimit="10" stroke-linecap="round" stroke-linejoin="round"/>
<path d="M687.7 630.8H595.7V726H687.7V630.8Z" stroke="#333333" stroke-width="10" stroke-miterlimit="10" stroke-linecap="round" stroke-linejoin="round"/>
<path d="M687.7 535.7H595.7V630.9H687.7V535.7Z" fill="#F29F4D"/>
<path d="M687.7 535.7H595.7V548.5H687.7V535.7Z" fill="#DB8945"/>
<path d="M687.7 535.7H595.7V630.9H687.7V535.7Z" stroke="#333333" stroke-width="10" stroke-miterlimit="10" stroke-linecap="round" stroke-linejoin="round"/>
<path d="M779.7 535.7H687.7V726H779.7V535.7Z" fill="#F29F4D"/>
<path d="M779.7 715.3H687.7V726H779.7V715.3Z" fill="#DB8945"/>
<path d="M779.7 535.7H687.7V548.5H779.7V535.7Z" fill="#DB8945"/>
<path d="M779.7 535.7H687.7V726H779.7V535.7Z" stroke="#333333" stroke-width="10" stroke-miterlimit="10" stroke-linecap="round" stroke-linejoin="round"/>
<path d="M760.272 705.762V567.562H707.172V705.762H760.272Z" fill="#F4B77F"/>
<path opacity="0.39" d="M707.1 655.8L760.3 585.8V567.6H745.4L707.1 618V655.8Z" fill="#F9C59B"/>
<path opacity="0.39" d="M707.1 683.5L760.3 613.5V599.5L707.1 669.6V683.5Z" fill="#F9C59B"/>
<path opacity="0.39" d="M707.1 702.6L760.3 632.6V625.2L707.1 695.3V702.6Z" fill="#F9C59B"/>
<path d="M760.272 705.762V567.562H707.172V705.762H760.272Z" stroke="#333333" stroke-width="6" stroke-miterlimit="10" stroke-linecap="round" stroke-linejoin="round"/>
<path d="M668.232 613.722V567.622H615.132V613.722H668.232Z" fill="#F4B77F"/>
<path opacity="0.43" d="M639.6 567.6L615.1 599.9V613.7H620.8L655.8 567.6H639.6Z" fill="#F9C59B"/>
<path opacity="0.43" d="M638.3 613.7L668.3 574.2V567.6H662.7L627.7 613.7H638.3Z" fill="#F9C59B"/>
<path d="M668.232 613.722V567.622H615.132V613.722H668.232Z" stroke="#333333" stroke-width="6" stroke-miterlimit="10" stroke-linecap="round" stroke-linejoin="round"/>
<path d="M846.8 535.7H779.7V726H846.8V535.7Z" stroke="#333333" stroke-width="10" stroke-miterlimit="10" stroke-linecap="round" stroke-linejoin="round"/>
<path d="M829.007 705.826V567.626H797.507V705.826H829.007Z" fill="#F4B77F"/>
<path opacity="0.32" d="M797.5 656.3L829 614.7V576.9L797.5 618.4V656.3Z" fill="#F9C59B"/>
<path opacity="0.32" d="M797.5 678.4L829 636.9V622.9L797.5 664.5V678.4Z" fill="#F9C59B"/>
<path opacity="0.32" d="M797.5 694L829 652.4V645.1L797.5 686.6V694Z" fill="#F9C59B"/>
<path d="M829.007 705.826V567.626H797.507V705.826H829.007Z" stroke="#333333" stroke-width="6" stroke-miterlimit="10" stroke-linecap="round" stroke-linejoin="round"/>
<path d="M595.7 495H379.7V726H595.7V495Z" stroke="#333333" stroke-width="10" stroke-miterlimit="10" stroke-linecap="round" stroke-linejoin="round"/>
<path d="M595.7 535.7H379.7V720.3H595.7V535.7Z" fill="#F29F4D"/>
<path d="M595.7 710.3H379.7V720.3H595.7V710.3Z" fill="#DB8945"/>
<path d="M595.7 535.7H379.7V548.5H595.7V535.7Z" fill="#DB8945"/>
<path d="M595.7 535.7H379.7V720.3H595.7V535.7Z" stroke="#333333" stroke-width="10" stroke-miterlimit="10" stroke-linecap="round" stroke-linejoin="round"/>
<path d="M412.3 668V609C412.3 597.4 421.7 588 433.3 588H542C553.6 588 563 597.4 563 609V668C563 679.6 553.6 689 542 689H433.4C421.8 689 412.3 679.6 412.3 668Z" fill="#CFE5E8"/>
<path d="M433.4 675C429.5 675 426.4 671.8 426.4 668V609C426.4 605.1 429.6 602 433.4 602H542C545.9 602 549 605.2 549 609V668C549 671.9 545.8 675 542 675H433.4Z" fill="#A7E3E8"/>
<path d="M412.3 668V609C412.3 597.4 421.7 588 433.3 588H542C553.6 588 563 597.4 563 609V668C563 679.6 553.6 689 542 689H433.4C421.8 689 412.3 679.6 412.3 668Z" stroke="#333333" stroke-width="8" stroke-miterlimit="10" stroke-linecap="round" stroke-linejoin="round"/>
<path d="M527.3 561.5H448.1" stroke="#333333" stroke-width="10" stroke-miterlimit="10" stroke-linecap="round" stroke-linejoin="round"/>
<path d="M595.738 535.729V495.029L379.738 495.029V535.729H595.738Z" fill="#F4B47A"/>
<path opacity="0.63" d="M595.672 535.662V527.662H379.672V535.662H595.672Z" fill="#DB8945"/>
<path d="M595.655 503.545V495.045L379.655 495.045V503.545L595.655 503.545Z" fill="#F9C59B"/>
<path d="M595.738 535.729V495.029L379.738 495.029V535.729H595.738Z" stroke="#333333" stroke-width="10" stroke-miterlimit="10" stroke-linecap="round" stroke-linejoin="round"/>
<path d="M401 515.3H447.7" stroke="#333333" stroke-width="12" stroke-miterlimit="10" stroke-linecap="round" stroke-linejoin="round"/>
<path d="M527.3 522.4C531.221 522.4 534.4 519.221 534.4 515.3C534.4 511.379 531.221 508.2 527.3 508.2C523.379 508.2 520.2 511.379 520.2 515.3C520.2 519.221 523.379 522.4 527.3 522.4Z" fill="#EA5050"/>
<path d="M527.3 522.4C531.221 522.4 534.4 519.221 534.4 515.3C534.4 511.379 531.221 508.2 527.3 508.2C523.379 508.2 520.2 511.379 520.2 515.3C520.2 519.221 523.379 522.4 527.3 522.4Z" stroke="#333333" stroke-width="4" stroke-miterlimit="10" stroke-linecap="round" stroke-linejoin="round"/>
<path d="M548.7 522.4C552.621 522.4 555.8 519.221 555.8 515.3C555.8 511.379 552.621 508.2 548.7 508.2C544.779 508.2 541.6 511.379 541.6 515.3C541.6 519.221 544.779 522.4 548.7 522.4Z" fill="#7DC163"/>
<path d="M548.7 522.4C552.621 522.4 555.8 519.221 555.8 515.3C555.8 511.379 552.621 508.2 548.7 508.2C544.779 508.2 541.6 511.379 541.6 515.3C541.6 519.221 544.779 522.4 548.7 522.4Z" stroke="#333333" stroke-width="4" stroke-miterlimit="10" stroke-linecap="round" stroke-linejoin="round"/>
<path d="M570.2 522.4C574.121 522.4 577.3 519.221 577.3 515.3C577.3 511.379 574.121 508.2 570.2 508.2C566.279 508.2 563.1 511.379 563.1 515.3C563.1 519.221 566.279 522.4 570.2 522.4Z" stroke="#333333" stroke-width="4" stroke-miterlimit="10" stroke-linecap="round" stroke-linejoin="round"/>
<path d="M570.2 522.4C574.121 522.4 577.3 519.221 577.3 515.3C577.3 511.379 574.121 508.2 570.2 508.2C566.279 508.2 563.1 511.379 563.1 515.3C563.1 519.221 566.279 522.4 570.2 522.4Z" fill="#333333"/>
<path d="M729.7 486.5C742 486.5 752 473.3 752 457H707.4C707.4 473.3 717.4 486.5 729.7 486.5Z" fill="#FFF3E9"/>
<path opacity="0.45" d="M740.2 457C740.2 470.6 733.2 482 723.8 485.4C725.7 486.1 727.6 486.4 729.7 486.4C742 486.4 752 473.2 752 456.9H740.2V457Z" fill="#C4CECD"/>
<path d="M729.7 486.5C742 486.5 752 473.3 752 457H707.4C707.4 473.3 717.4 486.5 729.7 486.5Z" stroke="#333333" stroke-width="8" stroke-miterlimit="10" stroke-linecap="round" stroke-linejoin="round"/>
<path d="M711.4 490H748" stroke="#333333" stroke-width="10" stroke-miterlimit="10" stroke-linecap="round" stroke-linejoin="round"/>
<path d="M721.9 422.7C721.9 422.7 717.9 428.7 717.9 431.4C717.9 434.1 726.8 433.4 726.8 437.4C726.8 441.4 722.3 447.5 722.3 447.5" stroke="#333333" stroke-width="6" stroke-miterlimit="10" stroke-linecap="round" stroke-linejoin="round"/>
<path d="M736.6 417.1C736.6 417.1 732.6 423.1 732.6 425.8C732.6 428.5 741.5 427.8 741.5 431.8C741.5 435.8 737 441.9 737 441.9" stroke="#333333" stroke-width="6" stroke-miterlimit="10" stroke-linecap="round" stroke-linejoin="round"/>
<path d="M729.3 403L726.9 409.3" stroke="#333333" stroke-width="6" stroke-miterlimit="10" stroke-linecap="round" stroke-linejoin="round"/>
<path d="M846.8 495H595.7V535.7H846.8V495Z" stroke="#333333" stroke-width="10" stroke-miterlimit="10" stroke-linecap="round" stroke-linejoin="round"/>
<path d="M631.1 551H652.4" stroke="#333333" stroke-width="8" stroke-miterlimit="10" stroke-linecap="round" stroke-linejoin="round"/>
<path d="M668.311 705.802V659.702H615.211V705.802H668.311Z" fill="#F4B77F"/>
<path opacity="0.43" d="M639.6 659.7L615.1 691.9V705.7H620.8L655.8 659.7H639.6Z" fill="#F9C59B"/>
<path opacity="0.43" d="M638.3 705.7L668.3 666.3V659.7H662.7L627.7 705.7H638.3Z" fill="#F9C59B"/>
<path d="M668.311 705.802V659.702H615.211V705.802H668.311Z" stroke="#333333" stroke-width="6" stroke-miterlimit="10" stroke-linecap="round" stroke-linejoin="round"/>
<path d="M631.1 645.1H652.4" stroke="#333333" stroke-width="8" stroke-miterlimit="10" stroke-linecap="round" stroke-linejoin="round"/>
<path d="M724.5 551H707.1" stroke="#333333" stroke-width="8" stroke-miterlimit="10" stroke-linecap="round" stroke-linejoin="round"/>
<path d="M810.5 551H797.5" stroke="#333333" stroke-width="8" stroke-miterlimit="10" stroke-linecap="round" stroke-linejoin="round"/>
<path d="M522 495H451C448.1 495 445.7 492.6 445.7 489.7C445.7 486.8 448.1 484.4 451 484.4H522C524.9 484.4 527.3 486.8 527.3 489.7C527.3 492.6 524.9 495 522 495Z" fill="#333333"/>
<path d="M534.4 457L568 429.5L563.1 422.7L525 441.8L534.4 457Z" fill="#FFF3E9"/>
<path d="M534.4 457L568 429.5L563.1 422.7L525 441.8L534.4 457Z" stroke="#333333" stroke-width="10" stroke-miterlimit="10" stroke-linecap="round" stroke-linejoin="round"/>
<path d="M520 484.4H453.1C442.9 484.4 434.6 476.1 434.6 465.9V441.1C434.6 430.9 442.9 422.6 453.1 422.6H520C530.2 422.6 538.5 430.9 538.5 441.1V466C538.5 476.2 530.2 484.4 520 484.4Z" fill="#DBDDDD"/>
<path opacity="0.55" d="M448.1 466V441.2C448.1 431 456.4 422.7 466.6 422.7H453.2C443 422.7 434.7 431 434.7 441.2V466C434.7 476.2 443 484.5 453.2 484.5H466.6C456.4 484.4 448.1 476.2 448.1 466Z" fill="white"/>
<path d="M520 422.7H501.6C511.8 422.7 520.1 431 520.1 441.2V466C520.1 476.2 511.8 484.5 501.6 484.5H520C530.2 484.5 538.5 476.2 538.5 466V441.2C538.5 430.9 530.2 422.7 520 422.7Z" fill="#C4CECD"/>
<path d="M520 484.4H453.1C442.9 484.4 434.6 476.1 434.6 465.9V441.1C434.6 430.9 442.9 422.6 453.1 422.6H520C530.2 422.6 538.5 430.9 538.5 441.1V466C538.5 476.2 530.2 484.4 520 484.4Z" stroke="#333333" stroke-width="10" stroke-miterlimit="10" stroke-linecap="round" stroke-linejoin="round"/>
<path d="M434.7 443.9H422V458H434.7V443.9Z" fill="#333333"/>
<path d="M434.7 443.9H422V458H434.7V443.9Z" stroke="#333333" stroke-width="10" stroke-miterlimit="10" stroke-linecap="round" stroke-linejoin="round"/>
<path d="M487 429.6C511.466 429.6 531.3 426.108 531.3 421.8C531.3 417.492 511.466 414 487 414C462.534 414 442.7 417.492 442.7 421.8C442.7 426.108 462.534 429.6 487 429.6Z" stroke="#333333" stroke-width="10" stroke-miterlimit="10" stroke-linecap="round" stroke-linejoin="round"/>
<path d="M491.4 403H481.7V417.7H491.4V403Z" stroke="#333333" stroke-width="10" stroke-miterlimit="10" stroke-linecap="round" stroke-linejoin="round"/>
<path d="M577.3 392.5L574 398.5L580.5 406.2L574 414" stroke="#333333" stroke-width="6" stroke-miterlimit="10" stroke-linecap="round" stroke-linejoin="round"/>
<path d="M464.1 675L519.4 602H498.2L442.9 675H464.1Z" fill="#D7FFF7"/>
<path d="M487 675L542.4 602C542.3 602 542.2 602 542 602H531.8L476.4 675H487Z" fill="#D7FFF7"/>
<path d="M452.1 774.6H531.3" stroke="#1D2F3D" stroke-width="10" stroke-miterlimit="10" stroke-linecap="round" stroke-linejoin="round"/>
<path d="M417.3 774.6H430" stroke="#1D2F3D" stroke-width="10" stroke-miterlimit="10" stroke-linecap="round" stroke-linejoin="round"/>
<path d="M335 726H157C150.4 726 145 720.6 145 714V242C145 235.4 150.4 230 157 230H335C341.6 230 347 235.4 347 242V714C347 720.6 341.6 726 335 726Z" fill="#AECBD9"/>
<path d="M159.5 714V242C159.5 235.4 165.3 230 172.4 230H157.9C150.8 230 145 235.4 145 242V714C145 720.6 150.8 726 157.9 726H172.4C165.2 726 159.5 720.6 159.5 714Z" fill="#C4E7F4"/>
<path opacity="0.89" d="M335 230H312.5C319.1 230 324.5 235.4 324.5 242V714C324.5 720.6 319.1 726 312.5 726H335C341.6 726 347 720.6 347 714V242C347 235.4 341.6 230 335 230Z" fill="#8CA2AE"/>
<path d="M335 726H157C150.4 726 145 720.6 145 714V242C145 235.4 150.4 230 157 230H335C341.6 230 347 235.4 347 242V714C347 720.6 341.6 726 335 726Z" stroke="#333333" stroke-width="10" stroke-miterlimit="10" stroke-linecap="round" stroke-linejoin="round"/>
<path d="M347 382H145V242C145 235.4 150.4 230 157 230H335C341.6 230 347 235.4 347 242V382Z" stroke="#333333" stroke-width="10" stroke-miterlimit="10" stroke-linecap="round" stroke-linejoin="round"/>
<path d="M172.3 301.7V348" stroke="#333333" stroke-width="10" stroke-miterlimit="10" stroke-linecap="round" stroke-linejoin="round"/>
<path d="M172.3 459.9V544" stroke="#333333" stroke-width="10" stroke-miterlimit="10" stroke-linecap="round" stroke-linejoin="round"/>
<path d="M347 382H145V409.3H347V382Z" fill="#64809B"/>
<path opacity="0.71" d="M347 382H324V409.3H347V382Z" fill="#8CA2AE"/>
<path opacity="0.26" d="M159.5 382H145V409.3H159.5V382Z" fill="#64809B"/>
<path d="M347 382H145V409.3H347V382Z" stroke="#333333" stroke-width="10" stroke-miterlimit="10" stroke-linecap="round" stroke-linejoin="round"/>
<path d="M207 395.7H284" stroke="#333333" stroke-width="6" stroke-miterlimit="10" stroke-linecap="round" stroke-linejoin="round"/>
</svg>
