<svg width="1000" height="1000" viewBox="0 0 1000 1000" fill="none" xmlns="http://www.w3.org/2000/svg">
<path d="M1000 0H0V1000H1000V0Z" fill="#CDEBE8"/>
<path d="M253.9 390.4V421.3H192" stroke="#8DC6BF" stroke-width="6" stroke-miterlimit="10" stroke-linecap="round" stroke-linejoin="round"/>
<path d="M315.7 421.3H253.9V390.4" stroke="#8DC6BF" stroke-width="6" stroke-miterlimit="10" stroke-linecap="round" stroke-linejoin="round"/>
<path d="M284.8 421.3H222.9V452.2H284.8V421.3Z" stroke="#8DC6BF" stroke-width="6" stroke-miterlimit="10" stroke-linecap="round" stroke-linejoin="round"/>
<path d="M271.4 483.1H253.9V452.2H315.7" stroke="#8DC6BF" stroke-width="6" stroke-miterlimit="10" stroke-linecap="round" stroke-linejoin="round"/>
<path d="M192 452.2H253.9V483.1H203.7" stroke="#8DC6BF" stroke-width="6" stroke-miterlimit="10" stroke-linecap="round" stroke-linejoin="round"/>
<path d="M170.9 421.3H222.9V452.2H192" stroke="#8DC6BF" stroke-width="6" stroke-miterlimit="10" stroke-linecap="round" stroke-linejoin="round"/>
<path d="M329.4 452.2H284.8V421.3H306.2" stroke="#8DC6BF" stroke-width="6" stroke-miterlimit="10" stroke-linecap="round" stroke-linejoin="round"/>
<path d="M756.5 382.1V413H694.6" stroke="#8DC6BF" stroke-width="6" stroke-miterlimit="10" stroke-linecap="round" stroke-linejoin="round"/>
<path d="M818.3 413H756.5V382.1" stroke="#8DC6BF" stroke-width="6" stroke-miterlimit="10" stroke-linecap="round" stroke-linejoin="round"/>
<path d="M787.4 413H725.5V443.9H787.4V413Z" stroke="#8DC6BF" stroke-width="6" stroke-miterlimit="10" stroke-linecap="round" stroke-linejoin="round"/>
<path d="M666.2 288.2H718.3V319.1H687.3" stroke="#8DC6BF" stroke-width="6" stroke-miterlimit="10" stroke-linecap="round" stroke-linejoin="round"/>
<path d="M832.1 443.9H787.4V413H808.9" stroke="#8DC6BF" stroke-width="6" stroke-miterlimit="10" stroke-linecap="round" stroke-linejoin="round"/>
<path d="M287.5 524H233.5V546H287.5V524Z" fill="#6DA580"/>
<path d="M287.5 524H233.5V546H287.5V524Z" stroke="#313031" stroke-width="10" stroke-miterlimit="10" stroke-linecap="round" stroke-linejoin="round"/>
<path d="M382.6 584.5C404.691 584.5 422.6 566.591 422.6 544.5C422.6 522.409 404.691 504.5 382.6 504.5C360.509 504.5 342.6 522.409 342.6 544.5C342.6 566.591 360.509 584.5 382.6 584.5Z" fill="#0BC6D5"/>
<path opacity="0.74" d="M367.9 544.5C367.9 526.8 379.4 511.9 395.2 506.6C391.2 505.3 387 504.5 382.5 504.5C360.4 504.5 342.5 522.4 342.5 544.5C342.5 566.6 360.4 584.5 382.5 584.5C386.9 584.5 391.2 583.8 395.2 582.4C379.4 577.1 367.9 562.2 367.9 544.5Z" fill="#0BC6D5"/>
<path d="M382.6 584.5C404.691 584.5 422.6 566.591 422.6 544.5C422.6 522.409 404.691 504.5 382.6 504.5C360.509 504.5 342.6 522.409 342.6 544.5C342.6 566.591 360.509 584.5 382.6 584.5Z" stroke="#313031" stroke-width="10" stroke-miterlimit="10" stroke-linecap="round" stroke-linejoin="round"/>
<path d="M382.6 499.2V413" stroke="#313031" stroke-width="14" stroke-miterlimit="10" stroke-linecap="round" stroke-linejoin="round"/>
<path d="M446.2 436.8H319.1L337.2 346H428L446.2 436.8Z" stroke="#313031" stroke-width="10" stroke-miterlimit="10" stroke-linecap="round" stroke-linejoin="round"/>
<path d="M446.2 436.8H319.1L337.2 346H428L446.2 436.8Z" fill="#F0F4F7"/>
<path d="M337.2 346L319.1 436.8H365.2L375.3 346H337.2Z" fill="#DBDBDB"/>
<path d="M446.2 436.8H319.1L337.2 346H428L446.2 436.8Z" stroke="#313031" stroke-width="10" stroke-miterlimit="10" stroke-linecap="round" stroke-linejoin="round"/>
<path d="M412.8 436.8V461.7" stroke="#313031" stroke-width="4" stroke-miterlimit="10" stroke-linecap="round" stroke-linejoin="round"/>
<path d="M412.8 477.4C417.163 477.4 420.7 473.863 420.7 469.5C420.7 465.137 417.163 461.6 412.8 461.6C408.437 461.6 404.9 465.137 404.9 469.5C404.9 473.863 408.437 477.4 412.8 477.4Z" stroke="#313031" stroke-width="4" stroke-miterlimit="10" stroke-linecap="round" stroke-linejoin="round"/>
<path d="M412.8 477.4C417.163 477.4 420.7 473.863 420.7 469.5C420.7 465.137 417.163 461.6 412.8 461.6C408.437 461.6 404.9 465.137 404.9 469.5C404.9 473.863 408.437 477.4 412.8 477.4Z" fill="#313031"/>
<path d="M250.2 706H218.2V726H250.2V706Z" stroke="#313031" stroke-width="10" stroke-miterlimit="10" stroke-linecap="round" stroke-linejoin="round"/>
<path d="M250.2 706H218.2V726H250.2V706Z" fill="#313031"/>
<path d="M413.2 706H381.2V726H413.2V706Z" stroke="#313031" stroke-width="10" stroke-miterlimit="10" stroke-linecap="round" stroke-linejoin="round"/>
<path d="M413.2 706H381.2V726H413.2V706Z" fill="#313031"/>
<path d="M547.2 618V487C547.2 458.3 570.5 435 599.2 435H693.5C722.2 435 745.5 458.3 745.5 487V618H547.2Z" fill="#FFC857"/>
<path opacity="0.6" d="M693.5 436H599.2C570.5 436 547.2 459.3 547.2 488V500.2C547.2 471.5 570.5 448.2 599.2 448.2H693.5C722.2 448.2 745.5 471.5 745.5 500.2V488C745.5 459.3 722.2 436 693.5 436Z" fill="#FFC857"/>
<path d="M547.2 618V487C547.2 458.3 570.5 435 599.2 435H693.5C722.2 435 745.5 458.3 745.5 487V618H547.2Z" stroke="#313031" stroke-width="10" stroke-miterlimit="10" stroke-linecap="round" stroke-linejoin="round"/>
<path d="M438.2 626H194.2V706H438.2V626Z" fill="#7C4F49"/>
<path opacity="0.24" d="M342.6 666H283.2V675.2H342.6V666Z" stroke="#7C4F49" stroke-width="10" stroke-miterlimit="10" stroke-linecap="round" stroke-linejoin="round"/>
<path opacity="0.54" d="M438.2 626.6H194.2V636.3H438.2V626.6Z" fill="#7C4F49"/>
<path opacity="0.24" d="M438.2 696.2H194.2V705.9H438.2V696.2Z" fill="#7C4F49"/>
<path d="M438.2 626H194.2V706H438.2V626Z" stroke="#313031" stroke-width="10" stroke-miterlimit="10" stroke-linecap="round" stroke-linejoin="round"/>
<path d="M438.2 546H194.2V626H438.2V546Z" fill="#7C4F49"/>
<path opacity="0.24" d="M342.6 586H283.2V595.2H342.6V586Z" stroke="#7C4F49" stroke-width="10" stroke-miterlimit="10" stroke-linecap="round" stroke-linejoin="round"/>
<path opacity="0.24" d="M438.2 616H194.2V625.7H438.2V616Z" fill="#7C4F49"/>
<path opacity="0.54" d="M438.2 546H194.2V555.7H438.2V546Z" fill="#7C4F49"/>
<path d="M438.2 546H194.2V626H438.2V546Z" stroke="#313031" stroke-width="10" stroke-miterlimit="10" stroke-linecap="round" stroke-linejoin="round"/>
<path d="M790.3 706.6H736.3V562.6C736.3 553.8 743.5 546.6 752.3 546.6H774.3C783.1 546.6 790.3 553.8 790.3 562.6V706.6Z" fill="#FFC857"/>
<path opacity="0.6" d="M774.3 546H752.3C743.5 546 736.3 553.2 736.3 562V572C736.3 563.2 743.5 556 752.3 556H774.3C783.1 556 790.3 563.2 790.3 572V562C790.3 553.2 783.2 546 774.3 546Z" fill="#FFC857"/>
<path d="M790.3 706H736.3V562C736.3 553.2 743.5 546 752.3 546H774.3C783.1 546 790.3 553.2 790.3 562V706Z" stroke="#313031" stroke-width="10" stroke-miterlimit="10" stroke-linecap="round" stroke-linejoin="round"/>
<path d="M723.628 379.567V259.567L559.628 259.567V379.567H723.628Z" fill="white"/>
<path d="M723.628 379.567V259.567L559.628 259.567V379.567H723.628Z" stroke="#313031" stroke-width="10" stroke-miterlimit="10" stroke-linecap="round" stroke-linejoin="round"/>
<path d="M707.6 275.6H575.6V363.6H707.6V275.6Z" fill="#C6C6C6"/>
<path d="M707.6 275.6H575.6V363.6H707.6V275.6Z" stroke="#313031" stroke-width="6" stroke-miterlimit="10" stroke-linecap="round" stroke-linejoin="round"/>
<path d="M599.4 346L620.3 309.7L641.3 346H599.4Z" fill="#313031"/>
<path d="M599.4 346L620.3 309.7L641.3 346H599.4Z" stroke="#313031" stroke-width="4" stroke-miterlimit="10" stroke-linecap="round" stroke-linejoin="round"/>
<path d="M620.3 346L644.7 303.7L669.1 346H620.3Z" fill="#0BC6D5"/>
<path d="M620.3 346L644.7 303.7L669.1 346H620.3Z" stroke="#313031" stroke-width="4" stroke-miterlimit="10" stroke-linecap="round" stroke-linejoin="round"/>
<path d="M678.5 309.6C683.636 309.6 687.8 305.436 687.8 300.3C687.8 295.164 683.636 291 678.5 291C673.364 291 669.2 295.164 669.2 300.3C669.2 305.436 673.364 309.6 678.5 309.6Z" fill="#FFC857"/>
<path d="M678.5 309.6C683.636 309.6 687.8 305.436 687.8 300.3C687.8 295.164 683.636 291 678.5 291C673.364 291 669.2 295.164 669.2 300.3C669.2 305.436 673.364 309.6 678.5 309.6Z" stroke="#313031" stroke-width="4" stroke-miterlimit="10" stroke-linecap="round" stroke-linejoin="round"/>
<path d="M588.5 259.6L640.5 224L692.5 259.6" stroke="#313031" stroke-width="6" stroke-miterlimit="10" stroke-linecap="round" stroke-linejoin="round"/>
<path d="M342.6 586H283.2" stroke="#313031" stroke-width="10" stroke-miterlimit="10" stroke-linecap="round" stroke-linejoin="round"/>
<path d="M283.2 666H342.6" stroke="#313031" stroke-width="10" stroke-miterlimit="10" stroke-linecap="round" stroke-linejoin="round"/>
<path d="M768.3 706H736.3V726H768.3V706Z" fill="#313031"/>
<path d="M768.3 706H736.3V726H768.3V706Z" stroke="#313031" stroke-width="10" stroke-miterlimit="10" stroke-linecap="round" stroke-linejoin="round"/>
<path d="M556.1 706H524.1V726H556.1V706Z" fill="#313031"/>
<path d="M556.1 706H524.1V726H556.1V706Z" stroke="#313031" stroke-width="10" stroke-miterlimit="10" stroke-linecap="round" stroke-linejoin="round"/>
<path d="M556.1 706H502.1V562C502.1 553.2 509.3 546 518.1 546H540.1C548.9 546 556.1 553.2 556.1 562V706Z" fill="#FFC857"/>
<path opacity="0.6" d="M540.1 546H518.1C509.3 546 502.1 553.2 502.1 562V572C502.1 563.2 509.3 556 518.1 556H540.1C548.9 556 556.1 563.2 556.1 572V562C556.1 553.2 548.9 546 540.1 546Z" fill="#FFC857"/>
<path d="M556.1 706H502.1V562C502.1 553.2 509.3 546 518.1 546H540.1C548.9 546 556.1 553.2 556.1 562V706Z" stroke="#313031" stroke-width="10" stroke-miterlimit="10" stroke-linecap="round" stroke-linejoin="round"/>
<path d="M556.3 663V614.6C556.3 604.3 564.6 596 574.9 596H717.7C728 596 736.3 604.3 736.3 614.6V663H556.3Z" fill="#FFC857"/>
<path opacity="0.6" d="M717.7 596H574.9C564.6 596 556.3 604.3 556.3 614.6V626.6C556.3 616.3 564.6 608 574.9 608H717.7C728 608 736.3 616.3 736.3 626.6V614.6C736.3 604.3 728 596 717.7 596Z" fill="#FFC857"/>
<path d="M556.3 663V614.6C556.3 604.3 564.6 596 574.9 596H717.7C728 596 736.3 604.3 736.3 614.6V663H556.3Z" stroke="#313031" stroke-width="10" stroke-miterlimit="10" stroke-linecap="round" stroke-linejoin="round"/>
<path d="M736.333 700.967V662.967H556.333V700.967H736.333Z" fill="#FFC857"/>
<path d="M736.333 700.967V662.967H556.333V700.967H736.333Z" fill="#FFC857"/>
<path d="M736.333 674.967V662.967H556.333V674.967H736.333Z" fill="#D89E36"/>
<path d="M736.333 700.967V662.967H556.333V700.967H736.333Z" stroke="#313031" stroke-width="10" stroke-miterlimit="10" stroke-linecap="round" stroke-linejoin="round"/>
<path opacity="0.69" d="M646.7 526.5C652.775 526.5 657.7 521.575 657.7 515.5C657.7 509.425 652.775 504.5 646.7 504.5C640.625 504.5 635.7 509.425 635.7 515.5C635.7 521.575 640.625 526.5 646.7 526.5Z" fill="white"/>
<path d="M646.7 526.5C652.775 526.5 657.7 521.575 657.7 515.5C657.7 509.425 652.775 504.5 646.7 504.5C640.625 504.5 635.7 509.425 635.7 515.5C635.7 521.575 640.625 526.5 646.7 526.5Z" stroke="#313031" stroke-width="6" stroke-miterlimit="10" stroke-linecap="round" stroke-linejoin="round"/>
<path d="M166.5 726H814.1" stroke="#313031" stroke-width="10" stroke-miterlimit="10" stroke-linecap="round" stroke-linejoin="round"/>
<path d="M423.3 774.6H502.5" stroke="#313031" stroke-width="10" stroke-miterlimit="10" stroke-linecap="round" stroke-linejoin="round"/>
<path d="M388.5 774.6H405.8" stroke="#313031" stroke-width="10" stroke-miterlimit="10" stroke-linecap="round" stroke-linejoin="round"/>
<path d="M832.1 726H845.7" stroke="#313031" stroke-width="10" stroke-miterlimit="10" stroke-linecap="round" stroke-linejoin="round"/>
<path d="M414.9 467.2C416.005 467.2 416.9 466.394 416.9 465.4C416.9 464.406 416.005 463.6 414.9 463.6C413.795 463.6 412.9 464.406 412.9 465.4C412.9 466.394 413.795 467.2 414.9 467.2Z" fill="#DBDBDB"/>
</svg>
