<svg width="1000" height="1000" viewBox="0 0 1000 1000" fill="none" xmlns="http://www.w3.org/2000/svg">
<path d="M1000 0H0V1000H1000V0Z" fill="#1F5BC7" fill-opacity="0.6"/>
<g opacity="0.79">
<path opacity="0.79" d="M291.1 587.4V618.4H229.3" stroke="#DBBA95" stroke-width="6" stroke-miterlimit="10" stroke-linecap="round" stroke-linejoin="round"/>
<path opacity="0.79" d="M353 618.4H291.1V587.4" stroke="#DBBA95" stroke-width="6" stroke-miterlimit="10" stroke-linecap="round" stroke-linejoin="round"/>
<path opacity="0.79" d="M322.1 618.4H260.2V649.3H322.1V618.4Z" stroke="#DBBA95" stroke-width="6" stroke-miterlimit="10" stroke-linecap="round" stroke-linejoin="round"/>
<path opacity="0.79" d="M308.7 680.2H291.1V649.3H353" stroke="#DBBA95" stroke-width="6" stroke-miterlimit="10" stroke-linecap="round" stroke-linejoin="round"/>
<path opacity="0.79" d="M229.3 649.3H291.1V680.2H241" stroke="#DBBA95" stroke-width="6" stroke-miterlimit="10" stroke-linecap="round" stroke-linejoin="round"/>
<path opacity="0.79" d="M208.2 618.4H260.2V649.3H229.3" stroke="#DBBA95" stroke-width="6" stroke-miterlimit="10" stroke-linecap="round" stroke-linejoin="round"/>
<path opacity="0.79" d="M366.7 649.3H322.1V618.4H343.5" stroke="#DBBA95" stroke-width="6" stroke-miterlimit="10" stroke-linecap="round" stroke-linejoin="round"/>
</g>
<g opacity="0.79">
<path opacity="0.79" d="M875.3 414.5V445.5H937.2" stroke="#DBBA95" stroke-width="6" stroke-miterlimit="10" stroke-linecap="round" stroke-linejoin="round"/>
<path opacity="0.79" d="M813.4 445.5H875.3V414.5" stroke="#DBBA95" stroke-width="6" stroke-miterlimit="10" stroke-linecap="round" stroke-linejoin="round"/>
<path opacity="0.79" d="M844.323 476.334L906.223 476.334L906.223 445.434L844.323 445.434L844.323 476.334Z" stroke="#DBBA95" stroke-width="6" stroke-miterlimit="10" stroke-linecap="round" stroke-linejoin="round"/>
<path opacity="0.79" d="M857.7 507.3H875.3V476.4H813.4" stroke="#DBBA95" stroke-width="6" stroke-miterlimit="10" stroke-linecap="round" stroke-linejoin="round"/>
<path opacity="0.79" d="M937.2 476.4H875.3V507.3H898.5" stroke="#DBBA95" stroke-width="6" stroke-miterlimit="10" stroke-linecap="round" stroke-linejoin="round"/>
<path opacity="0.79" d="M958.3 445.5H906.2V476.4H937.2" stroke="#DBBA95" stroke-width="6" stroke-miterlimit="10" stroke-linecap="round" stroke-linejoin="round"/>
<path opacity="0.79" d="M799.7 476.4H844.4V445.5H822.9" stroke="#DBBA95" stroke-width="6" stroke-miterlimit="10" stroke-linecap="round" stroke-linejoin="round"/>
</g>
<g opacity="0.79">
<path opacity="0.79" d="M129.8 425.5V394.5H67.9" stroke="#DBBA95" stroke-width="6" stroke-miterlimit="10" stroke-linecap="round" stroke-linejoin="round"/>
<path opacity="0.79" d="M191.6 394.5H129.8V425.5" stroke="#DBBA95" stroke-width="6" stroke-miterlimit="10" stroke-linecap="round" stroke-linejoin="round"/>
<path opacity="0.79" d="M160.7 363.6H98.8V394.5H160.7V363.6Z" stroke="#DBBA95" stroke-width="6" stroke-miterlimit="10" stroke-linecap="round" stroke-linejoin="round"/>
<path opacity="0.79" d="M147.3 332.7H129.8V363.6H191.6" stroke="#DBBA95" stroke-width="6" stroke-miterlimit="10" stroke-linecap="round" stroke-linejoin="round"/>
<path opacity="0.79" d="M67.9 363.6H129.8V332.7H79.6" stroke="#DBBA95" stroke-width="6" stroke-miterlimit="10" stroke-linecap="round" stroke-linejoin="round"/>
<path opacity="0.79" d="M46.8 394.5H98.8V363.6H67.9" stroke="#DBBA95" stroke-width="6" stroke-miterlimit="10" stroke-linecap="round" stroke-linejoin="round"/>
<path opacity="0.79" d="M205.3 363.6H160.7V394.5H182.1" stroke="#DBBA95" stroke-width="6" stroke-miterlimit="10" stroke-linecap="round" stroke-linejoin="round"/>
</g>
<path d="M201 713V337.9" stroke="#1B3242" stroke-width="14" stroke-miterlimit="10" stroke-linecap="round" stroke-linejoin="round"/>
<path d="M439.7 625.7H417.9V716H439.7V625.7Z" fill="#C3F3F7"/>
<path d="M439.7 625.7H417.9V652.3H439.7V625.7Z" fill="#93C4C6"/>
<path d="M439.7 625.7H417.9V716H439.7V625.7Z" stroke="#1B3242" stroke-width="10" stroke-miterlimit="10" stroke-linecap="round" stroke-linejoin="round"/>
<path d="M475.6 382.1H382C365.8 382.1 350.4 388.8 339.5 400.8C315.9 426.8 301.2 463 301.2 503.1C301.2 518.9 303.5 534.1 307.7 548.3H549.8C554 534.1 556.3 518.9 556.3 503.1C556.3 463 541.6 426.8 518 400.8C507.2 388.8 491.8 382.1 475.6 382.1Z" fill="#F9263B"/>
<path d="M475.6 382.1H382C365.8 382.1 350.4 388.8 339.5 400.8C315.9 426.8 301.2 463 301.2 503.1C301.2 518.9 303.5 534.1 307.7 548.3H549.8C554 534.1 556.3 518.9 556.3 503.1C556.3 463 541.6 426.8 518 400.8C507.2 388.8 491.8 382.1 475.6 382.1Z" fill="#EF3946"/>
<path opacity="0.64" d="M519.4 397.8C508.4 385.8 492.7 379.1 476.3 379.1H381.3C364.9 379.1 349.2 385.8 338.2 397.8C314.2 423.8 299.3 460 299.3 500.1C299.3 515.9 301.6 531.1 305.9 545.3H313.1C309.6 532.8 307.6 519.5 307.6 505.6C307.6 468.1 321.5 434.2 343.9 409.9C354.2 398.7 368.9 392.4 384.2 392.4H473C488.3 392.4 503 398.7 513.3 409.9C535.7 434.2 549.6 468.1 549.6 505.6C549.6 519.4 547.7 532.7 544.1 545.3H551.3C555.6 531.1 557.9 515.9 557.9 500.1C558.3 460 543.4 423.8 519.4 397.8Z" fill="#FCFCFC"/>
<path d="M475.6 382.1H382C365.8 382.1 350.4 388.8 339.5 400.8C315.9 426.8 301.2 463 301.2 503.1C301.2 518.9 303.5 534.1 307.7 548.3H549.8C554 534.1 556.3 518.9 556.3 503.1C556.3 463 541.6 426.8 518 400.8C507.2 388.8 491.8 382.1 475.6 382.1Z" stroke="#1B3242" stroke-width="10" stroke-miterlimit="10" stroke-linecap="round" stroke-linejoin="round"/>
<path d="M262.9 485.9L305 468.4C305 468.4 324.3 478.6 344.3 498.6C365.2 519.5 366.4 536.5 366.4 536.5L334.6 563.3L262.9 485.9Z" fill="white"/>
<path d="M262.9 485.9L305 468.4C305 468.4 324.3 478.6 344.3 498.6C365.2 519.5 366.4 536.5 366.4 536.5L334.6 563.3L262.9 485.9Z" fill="#D12845"/>
<path opacity="0.64" d="M272.2 495.2L314.3 477.7C314.3 477.7 330.3 486.2 348.2 502.8C347 501.4 345.7 500 344.2 498.6C324.2 478.6 304.9 468.4 304.9 468.4L262.8 485.9L334.6 563.3L335 563L272.2 495.2Z" fill="#FCFCFC"/>
<path d="M262.9 485.9L305 468.4C305 468.4 324.3 478.6 344.3 498.6C365.2 519.5 366.4 536.5 366.4 536.5L334.6 563.3L262.9 485.9Z" stroke="#1B3242" stroke-width="10" stroke-miterlimit="10" stroke-linecap="round" stroke-linejoin="round"/>
<path d="M594.9 485.9L552.8 468.4C552.8 468.4 533.5 478.6 513.5 498.6C492.6 519.5 491.4 536.5 491.4 536.5L523.2 563.3L594.9 485.9Z" fill="#D12845"/>
<path opacity="0.64" d="M552.8 468.4C552.8 468.4 534 478.3 514.3 497.8C529.3 485.2 541.4 478.7 541.4 478.7L583.5 496.2L522.1 562.5L523.1 563.3L594.9 485.9L552.8 468.4Z" fill="#FCFCFC"/>
<path d="M594.9 485.9L552.8 468.4C552.8 468.4 533.5 478.6 513.5 498.6C492.6 519.5 491.4 536.5 491.4 536.5L523.2 563.3L594.9 485.9Z" stroke="#1B3242" stroke-width="10" stroke-miterlimit="10" stroke-linecap="round" stroke-linejoin="round"/>
<path d="M879 726H893" stroke="#1B3242" stroke-width="10" stroke-miterlimit="10" stroke-linecap="round" stroke-linejoin="round"/>
<path d="M910 726H917" stroke="#1B3242" stroke-width="10" stroke-miterlimit="10" stroke-linecap="round" stroke-linejoin="round"/>
<path d="M569 726H863" stroke="#1B3242" stroke-width="10" stroke-miterlimit="10" stroke-linecap="round" stroke-linejoin="round"/>
<path d="M103 726H554.6" stroke="#1B3242" stroke-width="10" stroke-miterlimit="10" stroke-linecap="round" stroke-linejoin="round"/>
<path d="M493.9 527.5C475.1 531.3 452.8 533.5 428.8 533.5C404.8 533.5 382.5 531.3 363.7 527.5C349.9 535.7 341.4 546.6 341.4 558.4C341.4 584 380.5 604.8 428.7 604.8C476.9 604.8 516 584 516 558.4C516.2 546.6 507.7 535.8 493.9 527.5Z" fill="#FF485E"/>
<path opacity="0.36" d="M428.8 573.9C390.1 573.9 357 564 342.7 549.9C341.9 552.4 341.5 554.9 341.5 557.5C341.5 583.1 380.6 603.9 428.8 603.9C477 603.9 516.1 583.1 516.1 557.5C516.1 554.9 515.7 552.4 514.9 549.9C500.7 564 467.5 573.9 428.8 573.9Z" fill="#7BB448"/>
<path d="M493.9 527.5C475.1 531.3 452.8 533.5 428.8 533.5C404.8 533.5 382.5 531.3 363.7 527.5C349.9 535.7 341.4 546.6 341.4 558.4C341.4 584 380.5 604.8 428.7 604.8C476.9 604.8 516 584 516 558.4C516.2 546.6 507.7 535.8 493.9 527.5Z" stroke="#303030" stroke-width="10" stroke-miterlimit="10" stroke-linecap="round" stroke-linejoin="round"/>
<path d="M493.9 527.5C475.1 531.3 452.8 533.5 428.8 533.5C404.8 533.5 382.5 531.3 363.7 527.5C349.9 535.7 341.4 546.6 341.4 558.4C341.4 584 380.5 604.8 428.7 604.8C476.9 604.8 516 584 516 558.4C516.2 546.6 507.7 535.8 493.9 527.5Z" stroke="#1B3242" stroke-width="10" stroke-miterlimit="10" stroke-linecap="round" stroke-linejoin="round"/>
<path d="M428.8 585C368.6 585 314.5 548.1 276.7 489.2C274.8 486.2 271.5 484.5 268 484.5C260.4 484.5 255.3 492.5 258.6 499.3C295.8 577.3 358.2 628.4 428.8 628.4C499.4 628.4 561.8 577.3 599 499.3C602.3 492.4 597.2 484.5 589.6 484.5C586.1 484.5 582.8 486.3 580.9 489.2C543.2 548.1 489 585 428.8 585Z" fill="#EF3946"/>
<path opacity="0.64" d="M428.8 595.8C492.4 595.8 549.8 553.2 590.7 484.6C590.3 484.6 590 484.5 589.6 484.5C586.1 484.5 582.8 486.3 580.9 489.2C543.2 548.1 489 585 428.8 585C368.6 585 314.5 548.1 276.7 489.2C274.8 486.2 271.5 484.5 268 484.5C267.6 484.5 267.2 484.5 266.9 484.6C307.9 553.2 365.3 595.8 428.8 595.8Z" fill="#FCFCFC"/>
<path opacity="0.29" d="M596.7 487.3C596.6 487.5 596.6 487.7 596.5 487.9C559.8 565.9 498.4 617 428.8 617C359.2 617 297.8 565.9 261.1 487.9C261 487.7 261 487.5 260.9 487.3C257.8 490.2 256.5 495 258.6 499.4C295.8 577.4 358.2 628.5 428.8 628.5C499.4 628.5 561.8 577.4 599 499.4C601.1 495 599.9 490.3 596.7 487.3Z" fill="#7BB448"/>
<path d="M428.8 585C368.6 585 314.5 548.1 276.7 489.2C274.8 486.2 271.5 484.5 268 484.5C260.4 484.5 255.3 492.5 258.6 499.3C295.8 577.3 358.2 628.4 428.8 628.4C499.4 628.4 561.8 577.3 599 499.3C602.3 492.4 597.2 484.5 589.6 484.5C586.1 484.5 582.8 486.3 580.9 489.2C543.2 548.1 489 585 428.8 585Z" stroke="#1B3242" stroke-width="10" stroke-miterlimit="10" stroke-linecap="round" stroke-linejoin="round"/>
<path d="M493.5 726H364.2C361.3 726 358.9 723.6 358.9 720.7C358.9 717.8 361.3 715.4 364.2 715.4H493.6C496.5 715.4 498.9 717.8 498.9 720.7C498.8 723.6 496.5 726 493.5 726Z" fill="#303030"/>
<path d="M493.5 726H364.2C361.3 726 358.9 723.6 358.9 720.7C358.9 717.8 361.3 715.4 364.2 715.4H493.6C496.5 715.4 498.9 717.8 498.9 720.7C498.8 723.6 496.5 726 493.5 726Z" stroke="#1B3242" stroke-width="10" stroke-miterlimit="10" stroke-linecap="round" stroke-linejoin="round"/>
<path d="M276 337.9H126.1L150.4 211H251.7L276 337.9Z" fill="#82E086"/>
<path opacity="0.37" d="M249.7 211H238.7L257 337.9H274L249.7 211Z" fill="#82E086"/>
<path opacity="0.83" d="M150.4 211L126.1 337.9H172L181.8 211H150.4Z" fill="#CCCCCC"/>
<path d="M276 337.9H126.1L150.4 211H251.7L276 337.9Z" stroke="#1B3242" stroke-width="10" stroke-miterlimit="10" stroke-linecap="round" stroke-linejoin="round"/>
<path d="M253.5 726H148.5C148.5 711.6 160.1 700 174.5 700H227.5C241.9 700 253.5 711.6 253.5 726Z" fill="#1AC7CE"/>
<path d="M199.9 700H174.6C160.2 700 148.6 711.6 148.6 726H173.9C173.9 711.6 185.5 700 199.9 700Z" fill="#31AFAF"/>
<path d="M253.5 726H148.5C148.5 711.6 160.1 700 174.5 700H227.5C241.9 700 253.5 711.6 253.5 726Z" stroke="#303030" stroke-width="10" stroke-miterlimit="10" stroke-linecap="round" stroke-linejoin="round"/>
<path d="M253.5 726H148.5C148.5 711.6 160.1 700 174.5 700H227.5C241.9 700 253.5 711.6 253.5 726Z" stroke="#303030" stroke-width="10" stroke-miterlimit="10" stroke-linecap="round" stroke-linejoin="round"/>
<path d="M253.5 726H148.5C148.5 711.6 160.1 700 174.5 700H227.5C241.9 700 253.5 711.6 253.5 726Z" stroke="#1B3242" stroke-width="10" stroke-miterlimit="10" stroke-linecap="round" stroke-linejoin="round"/>
<path d="M240.7 337.9V424.5" stroke="#1B3242" stroke-width="5" stroke-miterlimit="10" stroke-linecap="round" stroke-linejoin="round"/>
<path d="M243.3 454H238C234.9 454 232.4 451.5 232.4 448.4V430.1C232.4 427 234.9 424.5 238 424.5H243.3C246.4 424.5 248.9 427 248.9 430.1V448.4C248.9 451.5 246.4 454 243.3 454Z" fill="#1B3242"/>
<path d="M430.6 177.5H307.3V302.8H430.6V177.5Z" fill="white"/>
<path d="M430.6 177.5H307.3V302.8H430.6V177.5Z" stroke="#1B3242" stroke-width="10" stroke-miterlimit="10" stroke-linecap="round" stroke-linejoin="round"/>
<path d="M413.355 283.451V196.951L324.455 196.951V283.451H413.355Z" fill="#F34C6A"/>
<path d="M413.355 283.451V196.951L324.455 196.951V283.451H413.355Z" stroke="#1B3242" stroke-width="6" stroke-miterlimit="10" stroke-linecap="round" stroke-linejoin="round"/>
<path d="M569.2 137.5H460.6V215.3H569.2V137.5Z" fill="white"/>
<path d="M569.2 137.5H460.6V215.3H569.2V137.5Z" stroke="#1B3242" stroke-width="10" stroke-miterlimit="10" stroke-linecap="round" stroke-linejoin="round"/>
<path d="M553.352 199.346V153.446H476.652V199.346H553.352Z" fill="#1AC7CE"/>
<path d="M540.2 248.7H460.6V353.2H540.2V248.7Z" fill="white"/>
<path d="M524.308 337.254V264.654H476.608V337.254H524.308Z" fill="#FFD55C"/>
<path d="M553.352 199.346V153.446H476.652V199.346H553.352Z" stroke="#1B3242" stroke-width="6" stroke-miterlimit="10" stroke-linecap="round" stroke-linejoin="round"/>
<path d="M524.308 337.254V264.654H476.608V337.254H524.308Z" stroke="#1B3242" stroke-width="6" stroke-miterlimit="10" stroke-linecap="round" stroke-linejoin="round"/>
<path d="M540.2 248.7H460.6V353.2H540.2V248.7Z" stroke="#1B3242" stroke-width="10" stroke-miterlimit="10" stroke-linecap="round" stroke-linejoin="round"/>
<path opacity="0.64" d="M426 476.3C432.13 476.3 437.1 471.33 437.1 465.2C437.1 459.07 432.13 454.1 426 454.1C419.87 454.1 414.9 459.07 414.9 465.2C414.9 471.33 419.87 476.3 426 476.3Z" fill="#FCFCFC"/>
<path d="M426 476.3C432.13 476.3 437.1 471.33 437.1 465.2C437.1 459.07 432.13 454.1 426 454.1C419.87 454.1 414.9 459.07 414.9 465.2C414.9 471.33 419.87 476.3 426 476.3Z" stroke="#1B3242" stroke-width="8" stroke-miterlimit="10" stroke-linecap="round" stroke-linejoin="round"/>
<path d="M363.3 774.6H442.5" stroke="#1D2F3D" stroke-width="10" stroke-miterlimit="10" stroke-linecap="round" stroke-linejoin="round"/>
<path d="M328.5 774.6H345.8" stroke="#1D2F3D" stroke-width="10" stroke-miterlimit="10" stroke-linecap="round" stroke-linejoin="round"/>
<path d="M244.7 436.9C243.9 436.9 243.2 436.2 243.2 435.4V430.5C243.2 429.7 243.9 429 244.7 429C245.5 429 246.2 429.7 246.2 430.5V435.4C246.2 436.2 245.5 436.9 244.7 436.9Z" fill="#F7F7F7"/>
<path d="M717.1 701H687.1V725H717.1V701Z" fill="#1B3242"/>
<path d="M717.1 701H687.1V725H717.1V701Z" stroke="#1B3242" stroke-width="10" stroke-miterlimit="10" stroke-linecap="round" stroke-linejoin="round"/>
<path d="M830.5 701H800.5V725H830.5V701Z" fill="#1B3242"/>
<path d="M830.5 701H800.5V725H830.5V701Z" stroke="#1B3242" stroke-width="10" stroke-miterlimit="10" stroke-linecap="round" stroke-linejoin="round"/>
<path d="M855.8 702L855.8 181L661.8 181L661.8 702H855.8Z" fill="#E8BA8B"/>
<path opacity="0.79" d="M851.4 182.7H664.7V188.7H851.4V182.7Z" fill="#995D45"/>
<path opacity="0.35" d="M855.8 689.5H661V702H855.8V689.5Z" fill="#995D45"/>
<path d="M837.8 199H679.8V673H837.8V199Z" fill="#C3F3F7"/>
<path opacity="0.31" d="M836.8 221.7V203H697.3H678.8V221.7V373.7V392.3V532.5V551.2V677H697.3V551.2H836.8V532.5H697.3V392.3H836.8V373.7H697.3V221.7H836.8Z" fill="#474747"/>
<path d="M855.8 702L855.8 181L661.8 181L661.8 702H855.8Z" stroke="#1B3242" stroke-width="10" stroke-miterlimit="10" stroke-linecap="round" stroke-linejoin="round"/>
<path d="M837.8 515H679.8V673H837.8V515Z" stroke="#303030" stroke-width="10" stroke-miterlimit="10" stroke-linecap="round" stroke-linejoin="round"/>
<path d="M837.8 357H679.8V515H837.8V357Z" stroke="#303030" stroke-width="10" stroke-miterlimit="10" stroke-linecap="round" stroke-linejoin="round"/>
<path d="M837.8 199H679.8V357H837.8V199Z" stroke="#303030" stroke-width="10" stroke-miterlimit="10" stroke-linecap="round" stroke-linejoin="round"/>
<path d="M837.8 199H679.8V673H837.8V199Z" stroke="#1B3242" stroke-width="10" stroke-miterlimit="10" stroke-linecap="round" stroke-linejoin="round"/>
<path d="M837.8 240.3H809.8V351.8H837.8V240.3Z" fill="#FF433E"/>
<path d="M837.8 240.3H809.8V351.8H837.8V240.3Z" stroke="#1B3242" stroke-width="10" stroke-miterlimit="10" stroke-linecap="round" stroke-linejoin="round"/>
<path d="M697.633 487.491L697.633 513.991L809.133 513.991L809.133 487.491L697.633 487.491Z" fill="#FF433E"/>
<path d="M697.633 487.491L697.633 513.991L809.133 513.991L809.133 487.491L697.633 487.491Z" stroke="#1B3242" stroke-width="10" stroke-miterlimit="10" stroke-linecap="round" stroke-linejoin="round"/>
<path d="M712.262 460.938L712.262 487.438L823.762 487.438L823.762 460.938L712.262 460.938Z" fill="#6CBC96"/>
<path d="M712.262 460.938L712.262 487.438L823.762 487.438L823.762 460.938L712.262 460.938Z" stroke="#1B3242" stroke-width="10" stroke-miterlimit="10" stroke-linecap="round" stroke-linejoin="round"/>
<path d="M698.287 439.012L698.287 461.112L809.787 461.112L809.787 439.012L698.287 439.012Z" fill="#FF433E"/>
<path d="M698.287 439.012L698.287 461.112L809.787 461.112L809.787 439.012L698.287 439.012Z" stroke="#1B3242" stroke-width="10" stroke-miterlimit="10" stroke-linecap="round" stroke-linejoin="round"/>
<path d="M809.8 268H837.8" stroke="#1B3242" stroke-width="10" stroke-miterlimit="10" stroke-linecap="round" stroke-linejoin="round"/>
<path d="M809.8 248.5H786V351.8H809.8V248.5Z" fill="#F4BA7A"/>
<path d="M809.8 248.5H786V351.8H809.8V248.5Z" stroke="#1B3242" stroke-width="10" stroke-miterlimit="10" stroke-linecap="round" stroke-linejoin="round"/>
<path d="M786 274.1H809.8" stroke="#1B3242" stroke-width="10" stroke-miterlimit="10" stroke-linecap="round" stroke-linejoin="round"/>
<path d="M810.037 560.068L785.936 552.704L753.355 659.343L777.457 666.706L810.037 560.068Z" fill="#5492A8"/>
<path d="M810.037 560.068L785.936 552.704L753.355 659.343L777.457 666.706L810.037 560.068Z" stroke="#1B3242" stroke-width="10" stroke-miterlimit="10" stroke-linecap="round" stroke-linejoin="round"/>
<path d="M777.9 579.1L801.9 586.4" stroke="#1B3242" stroke-width="10" stroke-miterlimit="10" stroke-linecap="round" stroke-linejoin="round"/>
<path d="M781.822 566.13L761.355 559.877L731.171 658.673L751.638 664.926L781.822 566.13Z" fill="#934D84"/>
<path d="M781.822 566.13L761.355 559.877L731.171 658.673L751.638 664.926L781.822 566.13Z" stroke="#1B3242" stroke-width="10" stroke-miterlimit="10" stroke-linecap="round" stroke-linejoin="round"/>
<path d="M753.9 584.3L774.3 590.6" stroke="#1B3242" stroke-width="10" stroke-miterlimit="10" stroke-linecap="round" stroke-linejoin="round"/>
<path d="M831.573 564.29L811.106 558.036L780.249 659.032L800.716 665.285L831.573 564.29Z" fill="#FF433E"/>
<path d="M831.573 564.29L811.106 558.036L780.249 659.032L800.716 665.285L831.573 564.29Z" stroke="#1B3242" stroke-width="10" stroke-miterlimit="10" stroke-linecap="round" stroke-linejoin="round"/>
<path d="M803.4 583.1L823.9 589.3" stroke="#1B3242" stroke-width="10" stroke-miterlimit="10" stroke-linecap="round" stroke-linejoin="round"/>
<path d="M784.76 266.322L765.362 255.122L716.712 339.384L736.11 350.584L784.76 266.322Z" fill="#18C6CD"/>
<path d="M784.76 266.322L765.362 255.122L716.712 339.384L736.11 350.584L784.76 266.322Z" stroke="#1B3242" stroke-width="10" stroke-miterlimit="10" stroke-linecap="round" stroke-linejoin="round"/>
<path d="M753.4 276L772.8 287.2" stroke="#1B3242" stroke-width="10" stroke-miterlimit="10" stroke-linecap="round" stroke-linejoin="round"/>
<path d="M741.7 461.1V487.5" stroke="#1B3242" stroke-width="10" stroke-miterlimit="10" stroke-linecap="round" stroke-linejoin="round"/>
<path d="M723.3 439V460.9" stroke="#1B3242" stroke-width="10" stroke-miterlimit="10" stroke-linecap="round" stroke-linejoin="round"/>
<path d="M726.2 487.5V514" stroke="#1B3242" stroke-width="10" stroke-miterlimit="10" stroke-linecap="round" stroke-linejoin="round"/>
<path d="M837.8 356.7H679.8V374H837.8V356.7Z" fill="#E8BA8B"/>
<path d="M837.8 356.7H679.8V371.5H837.8V356.7Z" stroke="#1B3242" stroke-width="10" stroke-miterlimit="10" stroke-linecap="round" stroke-linejoin="round"/>
<path d="M837.8 514H679.8V531.3H837.8V514Z" fill="#995D45"/>
<path d="M837.8 514H679.8V529H837.8V514Z" stroke="#1B3242" stroke-width="10" stroke-miterlimit="10" stroke-linecap="round" stroke-linejoin="round"/>
<path d="M837.8 521.5H678.8V673H837.8V521.5Z" fill="#E8BA8B"/>
<path opacity="0.35" d="M837.8 660.9H678.8V673H837.8V660.9Z" fill="#995D45"/>
<path opacity="0.82" d="M837.8 525.3H678.8V532.5H837.8V525.3Z" fill="#995D45"/>
<path d="M837.8 521.5H679.8V673H837.8V521.5Z" stroke="#1B3242" stroke-width="10" stroke-miterlimit="10" stroke-linecap="round" stroke-linejoin="round"/>
<path d="M802.2 564.2V630.3" stroke="#1B3242" stroke-width="11" stroke-miterlimit="10" stroke-linecap="round" stroke-linejoin="round"/>
</svg>
