<svg width="1000" height="1000" viewBox="0 0 1000 1000" fill="none" xmlns="http://www.w3.org/2000/svg">
<path d="M1000 0H0V1000H1000V0Z" fill="#A7C8E3"/>
<path d="M217.7 284.1V315H155.8" stroke="#78C1F9" stroke-width="6" stroke-miterlimit="10" stroke-linecap="round" stroke-linejoin="round"/>
<path d="M279.6 315H217.7V284.1" stroke="#78C1F9" stroke-width="6" stroke-miterlimit="10" stroke-linecap="round" stroke-linejoin="round"/>
<path d="M248.7 315H186.8V345.9H248.7V315Z" stroke="#78C1F9" stroke-width="6" stroke-miterlimit="10" stroke-linecap="round" stroke-linejoin="round"/>
<path d="M235.3 376.8H217.7V345.9H279.6" stroke="#78C1F9" stroke-width="6" stroke-miterlimit="10" stroke-linecap="round" stroke-linejoin="round"/>
<path d="M155.8 345.9H217.7V376.8H167.5" stroke="#78C1F9" stroke-width="6" stroke-miterlimit="10" stroke-linecap="round" stroke-linejoin="round"/>
<path d="M134.7 315H186.8V345.9H155.8" stroke="#78C1F9" stroke-width="6" stroke-miterlimit="10" stroke-linecap="round" stroke-linejoin="round"/>
<path d="M293.3 345.9H248.6V315H270.1" stroke="#78C1F9" stroke-width="6" stroke-miterlimit="10" stroke-linecap="round" stroke-linejoin="round"/>
<path d="M792.3 394.7V425.6H730.4" stroke="#78C1F9" stroke-width="6" stroke-miterlimit="10" stroke-linecap="round" stroke-linejoin="round"/>
<path d="M854.1 425.6H792.3V394.7" stroke="#78C1F9" stroke-width="6" stroke-miterlimit="10" stroke-linecap="round" stroke-linejoin="round"/>
<path d="M823.2 425.6H761.3V456.5H823.2V425.6Z" stroke="#78C1F9" stroke-width="6" stroke-miterlimit="10" stroke-linecap="round" stroke-linejoin="round"/>
<path d="M809.8 487.5H792.3V456.6H854.1" stroke="#78C1F9" stroke-width="6" stroke-miterlimit="10" stroke-linecap="round" stroke-linejoin="round"/>
<path d="M730.4 456.6H792.3V487.5H742.1" stroke="#78C1F9" stroke-width="6" stroke-miterlimit="10" stroke-linecap="round" stroke-linejoin="round"/>
<path d="M709.3 425.6H761.3V456.6H730.4" stroke="#8DC6BF" stroke-width="6" stroke-miterlimit="10" stroke-linecap="round" stroke-linejoin="round"/>
<path d="M867.8 456.6H823.2V425.6H844.6" stroke="#78C1F9" stroke-width="6" stroke-miterlimit="10" stroke-linecap="round" stroke-linejoin="round"/>
<path d="M837 726H862" stroke="#1D2F3D" stroke-width="10" stroke-miterlimit="10" stroke-linecap="round" stroke-linejoin="round"/>
<path d="M429.7 726H814.1" stroke="#1D2F3D" stroke-width="10" stroke-miterlimit="10" stroke-linecap="round" stroke-linejoin="round"/>
<path d="M395.2 726H414.3" stroke="#1D2F3D" stroke-width="10" stroke-miterlimit="10" stroke-linecap="round" stroke-linejoin="round"/>
<path d="M109.6 726H378" stroke="#1D2F3D" stroke-width="10" stroke-miterlimit="10" stroke-linecap="round" stroke-linejoin="round"/>
<path d="M772 702H736V726H772V702Z" stroke="#1D2F3D" stroke-width="10" stroke-miterlimit="10" stroke-linecap="round" stroke-linejoin="round"/>
<path d="M772 702H736V726H772V702Z" fill="#1D2F3D"/>
<path d="M264 702H228V726H264V702Z" stroke="#1D2F3D" stroke-width="10" stroke-miterlimit="10" stroke-linecap="round" stroke-linejoin="round"/>
<path d="M264 702H228V726H264V702Z" fill="#1D2F3D"/>
<path d="M814.1 674H185.9V702H814.1V674Z" fill="#E7E0D0"/>
<path d="M814.1 674H185.9V702H814.1V674Z" stroke="#1D2F3D" stroke-width="10" stroke-miterlimit="10" stroke-linecap="round" stroke-linejoin="round"/>
<path d="M814.1 528H185.9V546H814.1V528Z" fill="#E7E0D0"/>
<path d="M814.1 528H185.9V546H814.1V528Z" stroke="#1D2F3D" stroke-width="10" stroke-miterlimit="10" stroke-linecap="round" stroke-linejoin="round"/>
<path d="M800 546H500V674H800V546Z" fill="#E7E0D0"/>
<path d="M800 546H500V674H800V546Z" stroke="#1D2F3D" stroke-width="10" stroke-miterlimit="10" stroke-linecap="round" stroke-linejoin="round"/>
<path opacity="0.23" d="M800 546H528.8H500V571.9V674H528.8V571.9H800V546Z" fill="#1D2F3D"/>
<path d="M500 546H200V610H500V546Z" fill="#FE615A"/>
<path d="M500 546H200V610H500V546Z" fill="#EF4D4D"/>
<path opacity="0.23" d="M500 600.3H200V609.9H500V600.3Z" fill="#1D2F3D"/>
<path opacity="0.23" d="M500 546H200V567.7H500V546Z" fill="#1D2F3D"/>
<path d="M500 546H200V610H500V546Z" stroke="#1D2F3D" stroke-width="10" stroke-miterlimit="10" stroke-linecap="round" stroke-linejoin="round"/>
<path d="M500 610H200V674H500V610Z" fill="#EF4D4D"/>
<path opacity="0.23" d="M500 664.9H200V674.5H500V664.9Z" fill="#1D2F3D"/>
<path d="M500 610.1H200V619.7H500V610.1Z" fill="#1D2F3D"/>
<path d="M500 610H200V674H500V610Z" stroke="#1D2F3D" stroke-width="10" stroke-miterlimit="10" stroke-linecap="round" stroke-linejoin="round"/>
<path d="M214 546H200V674H214V546Z" fill="#E7E0D0"/>
<path d="M214 546H200V674H214V546Z" stroke="#1D2F3D" stroke-width="10" stroke-miterlimit="10" stroke-linecap="round" stroke-linejoin="round"/>
<path d="M507 546H493V674H507V546Z" fill="#E7E0D0"/>
<path d="M507 546H493V674H507V546Z" stroke="#1D2F3D" stroke-width="10" stroke-miterlimit="10" stroke-linecap="round" stroke-linejoin="round"/>
<path d="M802.6 546H788.6V674H802.6V546Z" stroke="#1D2F3D" stroke-width="10" stroke-miterlimit="10" stroke-linecap="round" stroke-linejoin="round"/>
<path d="M679 489H516.9V528H679V489Z" fill="#938F8F"/>
<path opacity="0.57" d="M679 519.7H516.9V528H679V519.7Z" fill="#938F8F"/>
<path opacity="0.55" d="M679 489H516.9V497.4H679V489Z" fill="#AAAAAA"/>
<path d="M679 489H516.9V528H679V489Z" stroke="#1D2F3D" stroke-width="10" stroke-miterlimit="10" stroke-linecap="round" stroke-linejoin="round"/>
<path d="M583.9 504.5H648.2" stroke="#1D2F3D" stroke-width="4" stroke-miterlimit="10" stroke-linecap="round" stroke-linejoin="round"/>
<path d="M583.9 512.5H616.1" stroke="#1D2F3D" stroke-width="4" stroke-miterlimit="10" stroke-linecap="round" stroke-linejoin="round"/>
<path d="M548.1 515.5C551.966 515.5 555.1 512.366 555.1 508.5C555.1 504.634 551.966 501.5 548.1 501.5C544.234 501.5 541.1 504.634 541.1 508.5C541.1 512.366 544.234 515.5 548.1 515.5Z" fill="#E7E0D0"/>
<path d="M548.1 515.5C551.966 515.5 555.1 512.366 555.1 508.5C555.1 504.634 551.966 501.5 548.1 501.5C544.234 501.5 541.1 504.634 541.1 508.5C541.1 512.366 544.234 515.5 548.1 515.5Z" stroke="#1D2F3D" stroke-width="4" stroke-miterlimit="10" stroke-linecap="round" stroke-linejoin="round"/>
<path d="M755.9 465H444.1C435.3 465 428.1 457.8 428.1 449V276C428.1 267.2 435.3 260 444.1 260H756C764.8 260 772 267.2 772 276V449C771.9 457.9 764.8 465 755.9 465Z" fill="#546672"/>
<path opacity="0.68" d="M755.9 453.1H444.1C435.3 453.1 428.1 445.9 428.1 437.1V449C428.1 457.8 435.3 465 444.1 465H756C764.8 465 772 457.8 772 449V437.1C771.9 445.9 764.8 453.1 755.9 453.1Z" fill="#546672"/>
<path opacity="0.81" d="M755.9 259.1H444.1C435.3 259.1 428.1 266.3 428.1 275.1V284.1C428.1 275.3 435.3 268.1 444.1 268.1H756C764.8 268.1 772 275.3 772 284.1V275.1C771.9 266.2 764.8 259.1 755.9 259.1Z" fill="#546672"/>
<path d="M444.6 426.2V284.9C444.6 279.5 449 275.1 454.4 275.1H745.5C750.9 275.1 755.3 279.5 755.3 284.9V426.2C755.3 431.6 750.9 436 745.5 436H454.4C449 436 444.6 431.6 444.6 426.2Z" fill="#1D2F3D"/>
<path d="M755.9 465H444.1C435.3 465 428.1 457.8 428.1 449V276C428.1 267.2 435.3 260 444.1 260H756C764.8 260 772 267.2 772 276V449C771.9 457.9 764.8 465 755.9 465Z" stroke="#1D2F3D" stroke-width="10" stroke-miterlimit="10" stroke-linecap="round" stroke-linejoin="round"/>
<path opacity="0.13" d="M600 455.3C604.142 455.3 607.5 451.897 607.5 447.7C607.5 443.503 604.142 440.1 600 440.1C595.858 440.1 592.5 443.503 592.5 447.7C592.5 451.897 595.858 455.3 600 455.3Z" fill="#D1E3ED"/>
<path d="M600 454.3C603.535 454.3 606.4 451.345 606.4 447.7C606.4 444.055 603.535 441.1 600 441.1C596.465 441.1 593.6 444.055 593.6 447.7C593.6 451.345 596.465 454.3 600 454.3Z" fill="#1D2F3D"/>
<path d="M569.3 610.1C576.59 610.1 582.5 604.19 582.5 596.9C582.5 589.61 576.59 583.7 569.3 583.7C562.01 583.7 556.1 589.61 556.1 596.9C556.1 604.19 562.01 610.1 569.3 610.1Z" fill="#61BA4F"/>
<path d="M569.3 610.1C576.59 610.1 582.5 604.19 582.5 596.9C582.5 589.61 576.59 583.7 569.3 583.7C562.01 583.7 556.1 589.61 556.1 596.9C556.1 604.19 562.01 610.1 569.3 610.1Z" stroke="#1D2F3D" stroke-width="10" stroke-miterlimit="10" stroke-linecap="round" stroke-linejoin="round"/>
<path d="M558.1 576.1C554.7 570.5 548.2 570.5 544.8 576.1C540.4 583.5 537.6 593.9 537.6 605.5C537.6 622.1 543.3 636.4 551.4 642.6C559.5 636.4 565.2 622.1 565.2 605.5C565.3 593.9 562.5 583.4 558.1 576.1Z" fill="#61BA4F"/>
<path d="M558.1 576.1C554.7 570.5 548.2 570.5 544.8 576.1C540.4 583.5 537.6 593.9 537.6 605.5C537.6 622.1 543.3 636.4 551.4 642.6C559.5 636.4 565.2 622.1 565.2 605.5C565.3 593.9 562.5 583.4 558.1 576.1Z" stroke="#1D2F3D" stroke-width="10" stroke-miterlimit="10" stroke-linecap="round" stroke-linejoin="round"/>
<path d="M568.8 674H534.1L528.8 630.7H574.1L568.8 674Z" fill="#FFEA87"/>
<path opacity="0.26" d="M528.8 630.7L534.1 674H551.9L550 630.7H528.8Z" fill="#3D3D3D"/>
<path d="M568.8 674H534.1L528.8 630.7H574.1L568.8 674Z" stroke="#1D2F3D" stroke-width="10" stroke-miterlimit="10" stroke-linecap="round" stroke-linejoin="round"/>
<path d="M788.6 571H768.6V674H788.6V571Z" fill="#FF6259"/>
<path d="M788.6 571H768.6V674H788.6V571Z" stroke="#1D2F3D" stroke-width="10" stroke-miterlimit="10" stroke-linecap="round" stroke-linejoin="round"/>
<path d="M768.6 578H745.6V674H768.6V578Z" fill="#F7B363"/>
<path d="M768.6 578H745.6V674H768.6V578Z" stroke="#1D2F3D" stroke-width="10" stroke-miterlimit="10" stroke-linecap="round" stroke-linejoin="round"/>
<path d="M744.961 588.621L729.344 581.177L690.187 663.322L705.803 670.766L744.961 588.621Z" fill="#0AC4DD"/>
<path d="M744.961 588.621L729.344 581.177L690.187 663.322L705.803 670.766L744.961 588.621Z" stroke="#1D2F3D" stroke-width="10" stroke-miterlimit="10" stroke-linecap="round" stroke-linejoin="round"/>
<path d="M676.8 655.8H587.1V674H676.8V655.8Z" fill="#F7B363"/>
<path d="M676.8 655.8H587.1V674H676.8V655.8Z" stroke="#1D2F3D" stroke-width="10" stroke-miterlimit="10" stroke-linecap="round" stroke-linejoin="round"/>
<path d="M683.1 638H597.9V656.2H683.1V638Z" fill="#8BB572"/>
<path d="M683.1 637H597.9V655.2H683.1V637Z" stroke="#1D2F3D" stroke-width="10" stroke-miterlimit="10" stroke-linecap="round" stroke-linejoin="round"/>
<path d="M337.2 381.9H256.2V526.4H337.2V381.9Z" fill="#976B50"/>
<path d="M337.2 381.9H256.2V526.4H337.2V381.9Z" fill="#976B50"/>
<path opacity="0.72" d="M337.2 381.9H256.2V391.7H337.2V381.9Z" fill="#976B50"/>
<path opacity="0.41" d="M337.2 514.8H256.2V526.3H337.2V514.8Z" fill="#976B50"/>
<path d="M337.2 381.9H256.2V526.4H337.2V381.9Z" stroke="#1D2F3D" stroke-width="10" stroke-miterlimit="10" stroke-linecap="round" stroke-linejoin="round"/>
<path d="M295.7 453.3C308.9 453.3 319.6 442.6 319.6 429.4C319.6 416.2 308.9 405.5 295.7 405.5C282.5 405.5 271.8 416.2 271.8 429.4C271.8 442.6 282.5 453.3 295.7 453.3Z" fill="#E7E0D0"/>
<path d="M271.8 429.4C271.8 416.2 282.5 405.5 295.7 405.5C308.9 405.5 319.6 416.2 319.6 429.4H271.8Z" fill="#E7E0D0"/>
<path d="M295.7 453.3C308.9 453.3 319.6 442.6 319.6 429.4C319.6 416.2 308.9 405.5 295.7 405.5C282.5 405.5 271.8 416.2 271.8 429.4C271.8 442.6 282.5 453.3 295.7 453.3Z" stroke="#1D2F3D" stroke-width="8" stroke-miterlimit="10" stroke-linecap="round" stroke-linejoin="round"/>
<path d="M295.7 438.4C300.671 438.4 304.7 434.37 304.7 429.4C304.7 424.429 300.671 420.4 295.7 420.4C290.729 420.4 286.7 424.429 286.7 429.4C286.7 434.37 290.729 438.4 295.7 438.4Z" fill="#1D2F3D"/>
<path d="M295.7 502.7C303.874 502.7 310.5 496.074 310.5 487.9C310.5 479.726 303.874 473.1 295.7 473.1C287.526 473.1 280.9 479.726 280.9 487.9C280.9 496.074 287.526 502.7 295.7 502.7Z" fill="#E7E0D0"/>
<path d="M280.9 487.9C280.9 479.7 287.5 473.1 295.7 473.1C303.9 473.1 310.5 479.7 310.5 487.9H280.9Z" fill="#E7E0D0"/>
<path d="M295.7 492.8C298.406 492.8 300.6 490.606 300.6 487.9C300.6 485.194 298.406 483 295.7 483C292.994 483 290.8 485.194 290.8 487.9C290.8 490.606 292.994 492.8 295.7 492.8Z" fill="#1D2F3D"/>
<path d="M295.7 502.7C303.874 502.7 310.5 496.074 310.5 487.9C310.5 479.726 303.874 473.1 295.7 473.1C287.526 473.1 280.9 479.726 280.9 487.9C280.9 496.074 287.526 502.7 295.7 502.7Z" stroke="#1D2F3D" stroke-width="8" stroke-miterlimit="10" stroke-linecap="round" stroke-linejoin="round"/>
<path d="M338.7 277.3H254.8C245.5 277.3 237.9 269.7 237.9 260.4V176.5C237.9 167.2 245.5 159.6 254.8 159.6H338.7C348 159.6 355.6 167.2 355.6 176.5V260.4C355.6 269.8 348 277.3 338.7 277.3Z" fill="#E7E0D0"/>
<path opacity="0.82" d="M338.7 159.6H254.8C245.5 159.6 237.9 167.2 237.9 176.5V191.5C237.9 182.2 245.5 174.6 254.8 174.6H338.7C348 174.6 355.6 182.2 355.6 191.5V176.5C355.6 167.2 348 159.6 338.7 159.6Z" fill="#E7E0D0"/>
<path d="M338.7 277.3H254.8C245.5 277.3 237.9 269.7 237.9 260.4V176.5C237.9 167.2 245.5 159.6 254.8 159.6H338.7C348 159.6 355.6 167.2 355.6 176.5V260.4C355.6 269.8 348 277.3 338.7 277.3Z" stroke="#1D2F3D" stroke-width="10" stroke-miterlimit="10" stroke-linecap="round" stroke-linejoin="round"/>
<path d="M297.5 218.5H271.6" stroke="#1D2F3D" stroke-width="6" stroke-miterlimit="10" stroke-linecap="round" stroke-linejoin="round"/>
<path d="M319.4 184.3L297.5 218.5" stroke="#1D2F3D" stroke-width="4" stroke-miterlimit="10" stroke-linecap="round" stroke-linejoin="round"/>
<path d="M802.6 546H788.6V674H802.6V546Z" fill="#E7E0D0"/>
<path d="M802.6 546H788.6V674H802.6V546Z" stroke="#1D2F3D" stroke-width="10" stroke-miterlimit="10" stroke-linecap="round" stroke-linejoin="round"/>
<path d="M350 592C357.843 592 364.2 585.643 364.2 577.8C364.2 569.958 357.843 563.6 350 563.6C342.158 563.6 335.8 569.958 335.8 577.8C335.8 585.643 342.158 592 350 592Z" fill="#E7E0D0"/>
<path d="M350 592C357.843 592 364.2 585.643 364.2 577.8C364.2 569.958 357.843 563.6 350 563.6C342.158 563.6 335.8 569.958 335.8 577.8C335.8 585.643 342.158 592 350 592Z" stroke="#1D2F3D" stroke-width="10" stroke-miterlimit="10" stroke-linecap="round" stroke-linejoin="round"/>
<path d="M350 656.2C357.843 656.2 364.2 649.843 364.2 642C364.2 634.158 357.843 627.8 350 627.8C342.158 627.8 335.8 634.158 335.8 642C335.8 649.843 342.158 656.2 350 656.2Z" fill="#E7E0D0"/>
<path d="M350 656.2C357.843 656.2 364.2 649.843 364.2 642C364.2 634.158 357.843 627.8 350 627.8C342.158 627.8 335.8 634.158 335.8 642C335.8 649.843 342.158 656.2 350 656.2Z" stroke="#1D2F3D" stroke-width="10" stroke-miterlimit="10" stroke-linecap="round" stroke-linejoin="round"/>
<path d="M768.6 599.3H788.6" stroke="#1D2F3D" stroke-width="10" stroke-miterlimit="10" stroke-linecap="round" stroke-linejoin="round"/>
<path d="M745.6 610H768.6" stroke="#1D2F3D" stroke-width="10" stroke-miterlimit="10" stroke-linecap="round" stroke-linejoin="round"/>
<path d="M718.9 603L734.6 610.5" stroke="#1D2F3D" stroke-width="10" stroke-miterlimit="10" stroke-linecap="round" stroke-linejoin="round"/>
<path opacity="0.07" d="M654.7 275.1H597L444.7 427.4C445.3 432.2 449.4 436 454.4 436H493.8L654.7 275.1Z" fill="#D1E3ED"/>
<path opacity="0.07" d="M511.9 436H540.8L701.7 275.1H672.8L511.9 436Z" fill="#D1E3ED"/>
<path opacity="0.07" d="M652.4 436L755.4 333V311.3L630.7 436H652.4Z" fill="#D1E3ED"/>
<path d="M616.1 637V655.2" stroke="#1D2F3D" stroke-width="10" stroke-miterlimit="10" stroke-linecap="round" stroke-linejoin="round"/>
<path d="M296.7 166.3V172.2" stroke="#1D2F3D" stroke-width="6" stroke-miterlimit="10" stroke-linecap="round" stroke-linejoin="round"/>
<path d="M296.7 264.7V270.6" stroke="#1D2F3D" stroke-width="6" stroke-miterlimit="10" stroke-linecap="round" stroke-linejoin="round"/>
<path d="M348.9 218.5H343" stroke="#1D2F3D" stroke-width="6" stroke-miterlimit="10" stroke-linecap="round" stroke-linejoin="round"/>
<path d="M250.5 218.5H244.6" stroke="#1D2F3D" stroke-width="6" stroke-miterlimit="10" stroke-linecap="round" stroke-linejoin="round"/>
<path d="M297.5 225.8C301.532 225.8 304.8 222.532 304.8 218.5C304.8 214.468 301.532 211.2 297.5 211.2C293.468 211.2 290.2 214.468 290.2 218.5C290.2 222.532 293.468 225.8 297.5 225.8Z" fill="#1D2F3D"/>
<path d="M650 656.2V674" stroke="#1D2F3D" stroke-width="10" stroke-miterlimit="10" stroke-linecap="round" stroke-linejoin="round"/>
<path d="M564.9 774.6H644.1" stroke="#1D2F3D" stroke-width="10" stroke-miterlimit="10" stroke-linecap="round" stroke-linejoin="round"/>
<path d="M530.1 774.6H547.5" stroke="#1D2F3D" stroke-width="10" stroke-miterlimit="10" stroke-linecap="round" stroke-linejoin="round"/>
<path d="M445.6 516.6H364.2V524H445.6V516.6Z" stroke="#1D2F3D" stroke-width="10" stroke-miterlimit="10" stroke-linecap="round" stroke-linejoin="round"/>
</svg>
